<svg width="1590" height="139" viewBox="0 0 1590 139" fill="none" xmlns="http://www.w3.org/2000/svg">
<path d="M43.5 1.1001H1546.5C1570.3 1.1001 1589.5 20.4001 1589.5 44.1001V94.7C1589.5 118.4 1570.3 137.7 1546.5 137.7H43.5C19.7 137.7 0.5 118.4 0.5 94.7V44.1001C0.5 20.4001 19.7 1.1001 43.5 1.1001ZM43.5 1.1001H1546.5C1570.3 1.1001 1589.5 20.4001 1589.5 44.1001V94.7C1589.5 118.4 1570.3 137.7 1546.5 137.7H43.5C19.7 137.7 0.5 118.4 0.5 94.7V44.1001C0.5 20.4001 19.7 1.1001 43.5 1.1001ZM43.5 1.1001H1546.5C1570.3 1.1001 1589.5 20.4001 1589.5 44.1001V94.7C1589.5 118.4 1570.3 137.7 1546.5 137.7H43.5C19.7 137.7 0.5 118.4 0.5 94.7V44.1001C0.5 20.4001 19.7 1.1001 43.5 1.1001ZM43.5 1.1001H1546.5C1570.3 1.1001 1589.5 20.4001 1589.5 44.1001V94.7C1589.5 118.4 1570.3 137.7 1546.5 137.7H43.5C19.7 137.7 0.5 118.4 0.5 94.7V44.1001C0.5 20.4001 19.7 1.1001 43.5 1.1001ZM43.5 1.1001H1546.5C1570.3 1.1001 1589.5 20.4001 1589.5 44.1001V94.7C1589.5 118.4 1570.3 137.7 1546.5 137.7H43.5C19.7 137.7 0.5 118.4 0.5 94.7V44.1001C0.5 20.4001 19.7 1.1001 43.5 1.1001ZM43.5 1.1001H1546.5C1570.3 1.1001 1589.5 20.4001 1589.5 44.1001V94.7C1589.5 118.4 1570.3 137.7 1546.5 137.7H43.5C19.7 137.7 0.5 118.4 0.5 94.7V44.1001C0.5 20.4001 19.7 1.1001 43.5 1.1001Z" fill="black"/>
<path d="M43.5 1.1001H1546.5C1570.3 1.1001 1589.5 20.4001 1589.5 44.1001V94.7C1589.5 118.4 1570.3 137.7 1546.5 137.7H43.5C19.7 137.7 0.5 118.4 0.5 94.7V44.1001C0.5 20.4001 19.7 1.1001 43.5 1.1001Z" stroke="black" stroke-miterlimit="100"/>
</svg>
