<svg width="120" height="29" viewBox="0 0 120 29" fill="none" xmlns="http://www.w3.org/2000/svg">
<path d="M32.4 28.1C32.1334 28.1 31.8666 28 31.6 27.8C31.4 27.6 31.2667 27.3333 31.2 27C30.9333 25.1333 30.6333 23 30.3 20.6C29.9 18.2 29.5 15.7 29.1 13.1C28.6333 10.5667 28.1667 8.1 27.7 5.7C26.6333 7.9 25.5 10.2333 24.3 12.7C23.1667 15.1 22.1 17.4667 21.1 19.8C20.0333 22.1333 19.1 24.3 18.3 26.3C18.0333 26.9 17.6667 27.2 17.2 27.2C16.6 27.2 16.2 26.9667 16 26.5C15 24.4333 13.9333 22.2 12.8 19.8C11.6 17.3333 10.4333 14.9 9.29999 12.5C8.16665 10.0333 7.09998 7.76666 6.09998 5.7C5.83331 7.5 5.53335 9.36667 5.20001 11.3C4.93335 13.3 4.66669 15.2667 4.40002 17.2C4.20002 19.1333 3.96668 20.9333 3.70001 22.6C3.50001 24.3333 3.33335 25.8 3.20001 27C3.20001 27.3333 3.06665 27.6 2.79999 27.8C2.53332 28 2.23336 28.1 1.90002 28.1C1.56669 28.1 1.29998 28 1.09998 27.8C0.833309 27.5333 0.700012 27.2 0.700012 26.8C0.700012 26.7333 0.766691 26.2667 0.900024 25.4C1.03336 24.2667 1.20002 22.7667 1.40002 20.9C1.66669 18.9667 1.93335 16.9 2.20001 14.7C2.53335 12.4333 2.86668 10.1667 3.20001 7.9C3.53335 5.7 3.83331 3.7 4.09998 1.9C4.16664 1.56667 4.33331 1.3 4.59998 1.1C4.86664 0.899998 5.13336 0.800003 5.40002 0.800003C5.80002 0.800003 6.09999 0.93333 6.29999 1.2C6.63332 1.53333 6.89998 1.93333 7.09998 2.4C8.03331 4.26667 9.06668 6.36666 10.2 8.7C11.3333 11.0333 12.5 13.4 13.7 15.8C14.9 18.2667 16.0333 20.6 17.1 22.8C18.0333 20.6 19.0667 18.2667 20.2 15.8C21.3333 13.3333 22.4666 10.8667 23.6 8.4C24.8 5.86667 25.9666 3.53333 27.1 1.4C27.3666 1 27.7667 0.800003 28.3 0.800003C28.5667 0.800003 28.8333 0.899998 29.1 1.1C29.3666 1.23333 29.5333 1.46667 29.6 1.8C30 3.73334 30.3667 5.83333 30.7 8.1C31.1 10.3 31.4667 12.4 31.8 14.4C32.1333 16.4667 32.4 18.2667 32.6 19.8C32.8666 21.2667 33.0333 22.3 33.1 22.9C33.3666 24.5 33.5333 25.5333 33.6 26C33.6666 26.4667 33.7 26.7667 33.7 26.9C33.7 27.2333 33.5667 27.5333 33.3 27.8C33.1 28 32.8 28.1 32.4 28.1ZM50.6 28C47.4 28 44.8 27.1667 42.8 25.5C40.8667 23.8333 39.9 21.5 39.9 18.5C39.9 16.4333 40.3333 14.6667 41.2 13.2C42.0667 11.6667 43.2333 10.5 44.7 9.7C46.1667 8.83333 47.7667 8.4 49.5 8.4C51.3 8.4 52.8 8.76667 54 9.5C55.2 10.1667 56.1 11.0333 56.7 12.1C57.3 13.1 57.6 14.1 57.6 15.1C57.6 16.3 57.2333 17.3333 56.5 18.2C55.7667 19.0667 54.3667 19.5 52.3 19.5H42.5C42.7667 21.5 43.6333 23 45.1 24C46.5666 25 48.4 25.5 50.6 25.5C51.4 25.5 52.1333 25.4333 52.8 25.3C53.5333 25.1667 54.0667 25.0333 54.4 24.9C54.8 24.7667 55.0333 24.7 55.1 24.7C55.2333 24.6333 55.3334 24.6 55.4 24.6C55.7334 24.6 56.0333 24.7333 56.3 25C56.5667 25.2667 56.7 25.5667 56.7 25.9C56.7 26.4333 56.4334 26.8 55.9 27C55.1667 27.2667 54.3334 27.5 53.4 27.7C52.4667 27.9 51.5333 28 50.6 28ZM49.5 10.9C47.7667 10.9 46.2334 11.4667 44.9 12.6C43.6334 13.7333 42.8333 15.2 42.5 17H52.3C54.2333 17 55.2 16.3667 55.2 15.1C55.2 14.1 54.6666 13.1667 53.6 12.3C52.6 11.3667 51.2333 10.9 49.5 10.9ZM66 28C65.6667 28 65.3666 27.9 65.1 27.7C64.8333 27.4333 64.7 27.1333 64.7 26.8V9.7C64.7 9.3 64.8333 9 65.1 8.8C65.3666 8.53334 65.6667 8.4 66 8.4C66.3333 8.4 66.6334 8.53334 66.9 8.8C67.1 9 67.2 9.3 67.2 9.7V12.6C68.5333 11.2667 69.9334 10.2333 71.4 9.5C72.8667 8.83333 74.2666 8.5 75.6 8.5C76 8.5 76.3 8.6 76.5 8.8C76.7 9 76.8 9.26667 76.8 9.6C76.8 10.4 76.4333 10.8333 75.7 10.9C73.7667 11.1667 72.1333 11.8 70.8 12.8C69.4667 13.8 68.2667 15.1 67.2 16.7V26.8C67.2 27.1333 67.1 27.4333 66.9 27.7C66.6334 27.9 66.3333 28 66 28ZM93.5 11.5C92.3 11.1 91.1333 10.9 90 10.9C87.4667 10.9 85.5 11.6333 84.1 13.1C82.7 14.5667 82 16.4333 82 18.7C82 20.6333 82.7 22.2667 84.1 23.6C85.5 24.8667 87.4667 25.5 90 25.5C90.9333 25.5 91.7334 25.4333 92.4 25.3C93.1334 25.1667 93.7 25.0333 94.1 24.9C94.4333 24.7667 94.6667 24.6667 94.8 24.6C94.9333 24.6 95.0333 24.6 95.1 24.6C95.4333 24.6 95.7 24.7333 95.9 25C96.1667 25.2 96.3 25.4667 96.3 25.8C96.3 26.4 96.0333 26.8 95.5 27C94.7667 27.2667 93.9333 27.5 93 27.7C92.1333 27.9 91.1333 28 90 28C87.7333 28 85.8 27.6 84.2 26.8C82.6667 25.9333 81.5 24.8 80.7 23.4C79.9 21.9333 79.5 20.3667 79.5 18.7C79.5 16.7 79.9 14.9333 80.7 13.4C81.5667 11.8667 82.7667 10.6667 84.3 9.8C85.9 8.86667 87.8 8.4 90 8.4C91.7333 8.4 93.3667 8.66666 94.9 9.2C95.4334 9.4 95.7 9.83333 95.7 10.5C95.7 10.7667 95.5667 11.0333 95.3 11.3C95.0333 11.5667 94.7334 11.7 94.4 11.7C94.3334 11.7 94.0333 11.6333 93.5 11.5ZM118.7 28C118.367 28 118.067 27.9 117.8 27.7C117.533 27.4333 117.4 27.1333 117.4 26.8V16.8C117.4 14.7333 117 13.2333 116.2 12.3C115.467 11.3667 114.433 10.9 113.1 10.9C111.7 10.9 110.367 11.3 109.1 12.1C107.833 12.8333 106.667 13.7333 105.6 14.8V26.8C105.6 27.1333 105.467 27.4333 105.2 27.7C105 27.9 104.7 28 104.3 28C103.967 28 103.667 27.9 103.4 27.7C103.2 27.4333 103.1 27.1333 103.1 26.8V1.2C103.1 0.866664 103.2 0.56667 103.4 0.300003C103.667 0.100003 103.967 0 104.3 0C104.7 0 105 0.100003 105.2 0.300003C105.467 0.56667 105.6 0.866664 105.6 1.2V11.5C106.733 10.6333 107.9 9.9 109.1 9.3C110.367 8.7 111.7 8.4 113.1 8.4C114.367 8.4 115.5 8.66666 116.5 9.2C117.567 9.66666 118.4 10.5333 119 11.8C119.6 13 119.9 14.6667 119.9 16.8V26.8C119.9 27.1333 119.8 27.4333 119.6 27.7C119.333 27.9 119.033 28 118.7 28Z" fill="white"/>
</svg>
