<svg width="144" height="39" viewBox="0 0 144 39" fill="none" xmlns="http://www.w3.org/2000/svg">
<path d="M15.7 6.59995C14.9 6.26662 14.0333 5.99996 13.0999 5.79996C12.1666 5.59996 10.9333 5.49995 9.39993 5.49995C7.6666 5.49995 6.29993 5.93329 5.29993 6.79996C4.29993 7.59996 3.79993 8.53329 3.79993 9.59995C3.79993 10.6666 4.26662 11.6333 5.19995 12.5C6.13328 13.3666 7.96662 14.1333 10.7 14.8C13.1 15.3333 14.9333 16 16.2 16.8C17.5333 17.6666 18.4666 18.6333 18.9999 19.7C19.5333 20.7 19.7999 21.8333 19.7999 23.1C19.7999 24.3666 19.4999 25.5666 18.8999 26.7C18.2999 27.7666 17.2999 28.6666 15.8999 29.4C14.4999 30.0666 12.6666 30.4 10.3999 30.4C7.13327 30.4 4.09993 29.6666 1.29993 28.2C0.899927 27.9333 0.699951 27.5666 0.699951 27.1C0.699951 26.7666 0.799939 26.4666 0.999939 26.2C1.26661 25.9333 1.5666 25.8 1.89993 25.8C2.09993 25.8 2.29994 25.8666 2.49994 26C4.89994 27.3333 7.53327 28 10.3999 28C12.6666 28 14.3666 27.5333 15.4999 26.6C16.6999 25.6 17.2999 24.4333 17.2999 23.1C17.2999 21.7 16.7333 20.5333 15.5999 19.6C14.5333 18.6666 12.7333 17.9 10.2 17.3C7.79995 16.7 5.96662 16 4.69995 15.2C3.43328 14.4666 2.53327 13.6 1.99994 12.6C1.53327 11.6666 1.29993 10.6 1.29993 9.39996C1.29993 8.33329 1.59995 7.33329 2.19995 6.39996C2.86662 5.39996 3.79994 4.56662 4.99994 3.89996C6.19994 3.29996 7.6666 2.99995 9.39993 2.99995C11.1999 2.99995 12.6666 3.13329 13.7999 3.39996C14.9333 3.66662 16.0999 4.06662 17.2999 4.59995C17.8333 4.79995 18.0999 5.16662 18.0999 5.69995C18.0999 6.03328 17.9666 6.33329 17.7 6.59995C17.5 6.86662 17.2333 6.99995 16.8999 6.99995C16.8333 6.99995 16.7333 6.96662 16.5999 6.89996C16.4666 6.83329 16.1666 6.73329 15.7 6.59995ZM36.7 30C33.6333 30 31.4333 29.3666 30.0999 28.1C28.8333 26.8333 28.2 25.1 28.2 22.9V12.9H24.9999C24.6666 12.9 24.3666 12.8 24.0999 12.6C23.8999 12.3333 23.7999 12.0333 23.7999 11.7C23.7999 11.3 23.8999 11 24.0999 10.8C24.3666 10.5333 24.6666 10.4 24.9999 10.4H28.2V5.39996C28.2 4.99996 28.2999 4.69995 28.4999 4.49995C28.7666 4.23329 29.0666 4.09995 29.3999 4.09995C29.7999 4.09995 30.0999 4.23329 30.2999 4.49995C30.5666 4.69995 30.7 4.99996 30.7 5.39996V10.4H37.2999C37.6999 10.4 38 10.5333 38.2 10.8C38.4666 11 38.5999 11.3 38.5999 11.7C38.5999 12.0333 38.4666 12.3333 38.2 12.6C38 12.8 37.6999 12.9 37.2999 12.9H30.7V22.9C30.7 25.9666 32.7 27.5 36.7 27.5C37.0333 27.5 37.3333 27.6333 37.5999 27.9C37.7999 28.1666 37.8999 28.4666 37.8999 28.8C37.8999 29.1333 37.7666 29.4333 37.4999 29.7C37.2999 29.9 37.0333 30 36.7 30ZM58.5999 29.6C57.8666 28.8 57.2999 27.8333 56.8999 26.7C55.7666 27.7666 54.4999 28.6 53.0999 29.2C51.7666 29.7333 50.3333 30 48.7999 30C47.2666 30 46.0333 29.7333 45.0999 29.2C44.2333 28.6 43.6 27.9 43.2 27.1C42.8666 26.2333 42.7 25.4333 42.7 24.7C42.7 23.9 42.8333 23.1333 43.0999 22.4C43.3666 21.6666 43.7999 21 44.3999 20.4C45.2666 19.6666 46.3999 19.0333 47.7999 18.5C49.1999 17.9666 50.8999 17.7 52.8999 17.7C53.9666 17.7 55.0999 17.7333 56.2999 17.8C56.1666 16.3333 55.6666 15.1666 54.7999 14.3C53.9333 13.3666 52.6333 12.9 50.8999 12.9C50.2333 12.9 49.5666 12.9666 48.8999 13.1C48.1666 13.2333 47.6333 13.3666 47.2999 13.5C46.8333 13.6333 46.4999 13.7 46.2999 13.7C45.9666 13.7 45.6666 13.6 45.3999 13.4C45.1333 13.1333 44.9999 12.8333 44.9999 12.5C44.9999 11.9 45.2999 11.5 45.8999 11.3C46.4333 11.1 47.1666 10.9 48.0999 10.7C49.0999 10.5 50.0333 10.4 50.8999 10.4C53.6333 10.4 55.6333 11.1666 56.8999 12.7C58.2333 14.1666 58.8999 16.1 58.8999 18.5V23.1C58.8999 24.2333 59 25.1666 59.2 25.9C59.4666 26.6333 59.8666 27.3 60.3999 27.9C60.5999 28.1 60.7 28.3666 60.7 28.7C60.7 29.0333 60.5666 29.3333 60.2999 29.6C60.0999 29.8666 59.8333 30 59.4999 30C59.1666 30 58.8666 29.8666 58.5999 29.6ZM48.7999 27.5C50.1999 27.5 51.5666 27.2 52.8999 26.6C54.1666 25.9333 55.3333 24.9333 56.3999 23.6V20.3C55.1333 20.2333 53.9666 20.2 52.8999 20.2C49.7666 20.2 47.5333 20.8333 46.2 22.1C45.8 22.5 45.5333 22.9333 45.3999 23.4C45.2666 23.8 45.2 24.2333 45.2 24.7C45.2 25.3666 45.4666 26 45.9999 26.6C46.5999 27.2 47.5333 27.5 48.7999 27.5ZM82.3999 30C81.9333 30 81.5999 29.8333 81.3999 29.5L74.0999 19.3L69.3999 23V28.8C69.3999 29.1333 69.2999 29.4333 69.0999 29.7C68.8333 29.9 68.5333 30 68.2 30C67.8666 30 67.5666 29.9 67.2999 29.7C67.0333 29.4333 66.8999 29.1333 66.8999 28.8V3.19995C66.8999 2.86662 67.0333 2.56662 67.2999 2.29996C67.5666 2.09996 67.8666 1.99995 68.2 1.99995C68.5333 1.99995 68.8333 2.09996 69.0999 2.29996C69.2999 2.56662 69.3999 2.86662 69.3999 3.19995V19.8L80.9999 10.7C81.2666 10.5 81.5 10.4 81.7 10.4C82.1 10.4 82.3999 10.5333 82.5999 10.8C82.8666 11 82.9999 11.2666 82.9999 11.6C82.9999 12.0666 82.8333 12.4333 82.4999 12.7L76.0999 17.7L83.3999 28C83.5999 28.2666 83.7 28.5333 83.7 28.8C83.7 29.1333 83.5666 29.4333 83.2999 29.7C83.0333 29.9 82.7333 30 82.3999 30ZM91.8999 0.199951C92.4333 0.199951 92.8999 0.433289 93.2999 0.899956C93.6999 1.29996 93.8999 1.89995 93.8999 2.69995C93.8999 3.43328 93.6999 3.99996 93.2999 4.39996C92.8999 4.79996 92.4333 4.99995 91.8999 4.99995C91.2999 4.99995 90.7999 4.79996 90.3999 4.39996C89.9999 3.99996 89.7999 3.43328 89.7999 2.69995C89.7999 1.89995 89.9999 1.29996 90.3999 0.899956C90.7999 0.433289 91.2999 0.199951 91.8999 0.199951ZM90.7 28.8V11.7C90.7 11.3 90.7999 11 90.9999 10.8C91.2666 10.5333 91.5666 10.4 91.8999 10.4C92.2999 10.4 92.5999 10.5333 92.7999 10.8C93.0666 11 93.2 11.3 93.2 11.7V28.8C93.2 29.1333 93.0666 29.4333 92.7999 29.7C92.5999 29.9 92.2999 30 91.8999 30C91.5666 30 91.2666 29.9 90.9999 29.7C90.7999 29.4333 90.7 29.1333 90.7 28.8ZM117.6 30C117.267 30 116.967 29.9 116.7 29.7C116.433 29.4333 116.3 29.1333 116.3 28.8V18.8C116.3 16.7333 115.9 15.2333 115.1 14.3C114.367 13.3666 113.333 12.9 112 12.9C110.6 12.9 109.267 13.3 108 14.1C106.733 14.8333 105.567 15.7333 104.5 16.8V28.8C104.5 29.1333 104.367 29.4333 104.1 29.7C103.9 29.9 103.6 30 103.2 30C102.867 30 102.567 29.9 102.3 29.7C102.1 29.4333 102 29.1333 102 28.8V11.7C102 11.3 102.1 11 102.3 10.8C102.567 10.5333 102.867 10.4 103.2 10.4C103.6 10.4 103.9 10.5333 104.1 10.8C104.367 11 104.5 11.3 104.5 11.7V13.5C105.633 12.5666 106.8 11.8333 108 11.3C109.267 10.7 110.6 10.4 112 10.4C113.267 10.4 114.4 10.6666 115.4 11.2C116.467 11.6666 117.3 12.5333 117.9 13.8C118.5 15 118.8 16.6666 118.8 18.8V28.8C118.8 29.1333 118.7 29.4333 118.5 29.7C118.233 29.9 117.933 30 117.6 30ZM130.7 39C130.367 39 130.067 38.9 129.8 38.7C129.533 38.4333 129.4 38.1333 129.4 37.8C129.4 37.4666 129.533 37.1666 129.8 36.9C130.067 36.6333 130.367 36.5 130.7 36.5C134.233 36.5 136.833 35.6 138.5 33.8C140.167 31.9333 141 29.5 141 26.5V26.3C139.867 27.3 138.667 28.0666 137.4 28.6C136.067 29.1333 134.733 29.4 133.4 29.4C132 29.4 130.667 29.1 129.4 28.5C128.133 27.9 127.067 26.9666 126.2 25.7C125.4 24.3666 125 22.7 125 20.7C125 18.5666 125.5 16.7333 126.5 15.2C127.433 13.6666 128.667 12.5 130.2 11.7C131.8 10.8333 133.433 10.4 135.1 10.4C136.233 10.4 137.267 10.5 138.2 10.7C139.133 10.9 140.067 11.2 141 11.6C141.067 11.2 141.2 10.9 141.4 10.7C141.667 10.5 141.933 10.4 142.2 10.4C142.6 10.4 142.9 10.5333 143.1 10.8C143.367 11 143.5 11.3 143.5 11.7V26.5C143.5 30.2333 142.467 33.2666 140.4 35.6C138.4 37.8666 135.167 39 130.7 39ZM133.4 26.9C134.8 26.9 136.167 26.5333 137.5 25.8C138.833 25.0666 140 23.9666 141 22.5V14.3C139.933 13.8333 138.967 13.5 138.1 13.3C137.233 13.0333 136.233 12.9 135.1 12.9C133.833 12.9 132.6 13.2333 131.4 13.9C130.267 14.5 129.333 15.4 128.6 16.6C127.867 17.7333 127.5 19.1 127.5 20.7C127.5 22.1 127.8 23.2666 128.4 24.2C128.933 25.1333 129.667 25.8333 130.6 26.3C131.467 26.7 132.4 26.9 133.4 26.9Z" fill="white"/>
</svg>
