<svg width="256" height="64" viewBox="0 0 256 64" fill="none" xmlns="http://www.w3.org/2000/svg">
<path d="M88.5 16.3C88.7 16.3667 89 16.4333 89.4 16.5C89.8 16.5667 90.2 16.6001 90.6 16.6001C91.7333 16.6001 92.5333 16.2333 93 15.5C93.4667 14.7667 93.7 13.7332 93.7 12.3999V1C93.7 0.733333 93.8 0.533236 94 0.399902C94.1333 0.266569 94.3333 0.199951 94.6 0.199951C94.8 0.199951 95 0.266569 95.2 0.399902C95.3333 0.533236 95.4 0.733333 95.4 1V12.3999C95.4 14.4666 94.9666 15.9666 94.1 16.8999C93.3 17.8332 92.1333 18.3 90.6 18.3C89.4666 18.3 88.3667 18.0668 87.3 17.6001C87.1667 17.5334 87.0667 17.4334 87 17.3C86.8667 17.1667 86.8 17 86.8 16.8C86.8 16.6 86.9 16.4 87.1 16.2C87.2333 16.0666 87.4333 16 87.7 16C87.7666 16 87.8667 16.0334 88 16.1001C88.1333 16.1001 88.3 16.1667 88.5 16.3ZM110.5 17.7C110.033 17.1666 109.667 16.5334 109.4 15.8C108.667 16.4667 107.833 16.9999 106.9 17.3999C106.033 17.7999 105.067 18 104 18C103 18 102.2 17.7999 101.6 17.3999C101 17.0666 100.567 16.6 100.3 16C100.033 15.4667 99.9 14.9667 99.9 14.5C99.9 13.9667 100 13.4332 100.2 12.8999C100.4 12.4332 100.7 12.0001 101.1 11.6001C101.633 11.0668 102.367 10.6334 103.3 10.3C104.233 9.96672 105.4 9.80005 106.8 9.80005C107.467 9.80005 108.2 9.83324 109 9.8999C108.933 8.8999 108.6 8.1 108 7.5C107.467 6.9 106.6 6.6001 105.4 6.6001C105 6.6001 104.567 6.63328 104.1 6.69995C103.633 6.76662 103.267 6.86667 103 7C102.733 7.06667 102.533 7.1001 102.4 7.1001C102.133 7.1001 101.933 7.03324 101.8 6.8999C101.6 6.6999 101.5 6.50005 101.5 6.30005C101.5 5.90005 101.7 5.63333 102.1 5.5C102.433 5.36667 102.933 5.23343 103.6 5.1001C104.2 4.96676 104.8 4.8999 105.4 4.8999C107.267 4.8999 108.6 5.3999 109.4 6.3999C110.267 7.3999 110.7 8.70005 110.7 10.3V13.3999C110.7 14.1332 110.8 14.7667 111 15.3C111.133 15.7667 111.367 16.2001 111.7 16.6001C111.9 16.7334 112 16.9001 112 17.1001C112 17.3668 111.9 17.5666 111.7 17.7C111.567 17.9 111.367 18 111.1 18C110.9 18 110.7 17.9 110.5 17.7ZM104 16.3C104.933 16.3 105.833 16.1 106.7 15.7C107.567 15.2333 108.367 14.5666 109.1 13.7V11.5C108.233 11.4333 107.467 11.3999 106.8 11.3999C104.667 11.3999 103.167 11.8333 102.3 12.7C102.033 12.9666 101.833 13.2668 101.7 13.6001C101.633 13.8668 101.6 14.1667 101.6 14.5C101.6 14.9 101.8 15.3 102.2 15.7C102.6 16.1 103.2 16.3 104 16.3ZM135 18C134.8 18 134.6 17.9334 134.4 17.8C134.267 17.6 134.2 17.4 134.2 17.2V10.2C134.2 8.86662 133.933 7.93324 133.4 7.3999C132.867 6.86657 132.2 6.6001 131.4 6.6001C130.533 6.6001 129.733 6.83338 129 7.30005C128.2 7.76672 127.467 8.36676 126.8 9.1001V17.2C126.8 17.4 126.733 17.6 126.6 17.8C126.467 17.9334 126.267 18 126 18C125.8 18 125.6 17.9334 125.4 17.8C125.267 17.6 125.2 17.4 125.2 17.2V10.2C125.2 8.86662 124.933 7.93324 124.4 7.3999C123.867 6.86657 123.2 6.6001 122.4 6.6001C121.533 6.6001 120.7 6.86657 119.9 7.3999C119.1 7.86657 118.4 8.46662 117.8 9.19995V17.2C117.8 17.4 117.7 17.6 117.5 17.8C117.367 17.9334 117.167 18 116.9 18C116.7 18 116.5 17.9334 116.3 17.8C116.167 17.6 116.1 17.4 116.1 17.2V5.80005C116.1 5.53338 116.167 5.33328 116.3 5.19995C116.5 4.99995 116.7 4.8999 116.9 4.8999C117.167 4.8999 117.367 4.99995 117.5 5.19995C117.7 5.33328 117.8 5.53338 117.8 5.80005V6.8999C118.467 6.2999 119.2 5.83333 120 5.5C120.8 5.1 121.6 4.8999 122.4 4.8999C123.267 4.8999 124.033 5.06657 124.7 5.3999C125.433 5.73324 126 6.33328 126.4 7.19995C127.133 6.53328 127.933 6.0001 128.8 5.6001C129.667 5.13343 130.533 4.8999 131.4 4.8999C132.2 4.8999 132.933 5.06657 133.6 5.3999C134.267 5.66657 134.8 6.16657 135.2 6.8999C135.6 7.63324 135.8 8.73328 135.8 10.2V17.2C135.8 17.4 135.733 17.6 135.6 17.8C135.467 17.9334 135.267 18 135 18ZM147.1 18C144.967 18 143.233 17.4334 141.9 16.3C140.633 15.2334 140 13.6668 140 11.6001C140 10.2668 140.267 9.1001 140.8 8.1001C141.4 7.1001 142.167 6.33338 143.1 5.80005C144.1 5.20005 145.2 4.8999 146.4 4.8999C147.533 4.8999 148.5 5.13343 149.3 5.6001C150.1 6.06676 150.7 6.66657 151.1 7.3999C151.567 8.06657 151.8 8.73324 151.8 9.3999C151.8 10.1999 151.533 10.9 151 11.5C150.533 12.0333 149.6 12.3 148.2 12.3H141.7C141.833 13.6334 142.4 14.6334 143.4 15.3C144.4 15.9667 145.633 16.3 147.1 16.3C147.633 16.3 148.133 16.2666 148.6 16.2C149.067 16.1333 149.4 16.0332 149.6 15.8999C149.867 15.8332 150.033 15.8 150.1 15.8C150.167 15.7334 150.233 15.7 150.3 15.7C150.5 15.7 150.7 15.8 150.9 16C151.033 16.1333 151.1 16.3334 151.1 16.6001C151.1 16.9334 150.933 17.1667 150.6 17.3C150.133 17.5 149.6 17.6667 149 17.8C148.333 17.9334 147.7 18 147.1 18ZM146.4 6.6001C145.2 6.6001 144.167 6.96662 143.3 7.69995C142.433 8.43328 141.9 9.43328 141.7 10.7H148.2C149.467 10.7 150.1 10.2666 150.1 9.3999C150.1 8.73324 149.767 8.1 149.1 7.5C148.433 6.9 147.533 6.6001 146.4 6.6001ZM163.8 6.8999C163.6 6.83324 163.233 6.73343 162.7 6.6001C162.167 6.53343 161.567 6.5 160.9 6.5C159.833 6.5 159 6.7001 158.4 7.1001C157.8 7.43343 157.5 7.9 157.5 8.5C157.5 8.96667 157.733 9.36662 158.2 9.69995C158.733 9.96662 159.567 10.1667 160.7 10.3L162 10.3999C163.133 10.5332 164.033 10.8 164.7 11.2C165.367 11.6 165.833 12.0668 166.1 12.6001C166.367 13.1334 166.5 13.7 166.5 14.3C166.5 14.9 166.333 15.5001 166 16.1001C165.667 16.7001 165.133 17.2001 164.4 17.6001C163.6 17.9334 162.5 18.1001 161.1 18.1001C160.3 18.1001 159.467 18.0332 158.6 17.8999C157.733 17.6999 156.9 17.4334 156.1 17.1001C155.767 16.9668 155.6 16.7 155.6 16.3C155.6 16.1 155.7 15.9334 155.9 15.8C156.033 15.6 156.233 15.5 156.5 15.5C156.5 15.5 156.567 15.5334 156.7 15.6001C156.833 15.6668 157.033 15.7334 157.3 15.8C157.7 16 158.267 16.1667 159 16.3C159.667 16.4334 160.367 16.5 161.1 16.5C162.3 16.5 163.2 16.2999 163.8 15.8999C164.467 15.4332 164.8 14.9 164.8 14.3C164.8 13.7 164.567 13.2 164.1 12.8C163.7 12.4 162.967 12.1668 161.9 12.1001L160.6 11.8999C159.267 11.7666 158.267 11.5333 157.6 11.2C156.867 10.8 156.4 10.3666 156.2 9.8999C155.933 9.43324 155.8 8.93324 155.8 8.3999C155.8 7.86657 155.933 7.33338 156.2 6.80005C156.533 6.26672 157.067 5.7999 157.8 5.3999C158.533 4.9999 159.567 4.80005 160.9 4.80005C161.633 4.80005 162.333 4.86667 163 5C163.667 5.06667 164.267 5.1999 164.8 5.3999C164.933 5.3999 165.067 5.49995 165.2 5.69995C165.333 5.83328 165.4 5.99995 165.4 6.19995C165.4 6.39995 165.3 6.60005 165.1 6.80005C164.967 6.93338 164.767 7 164.5 7C164.367 7 164.133 6.96657 163.8 6.8999ZM1.40002 58C1.13336 58 0.933382 57.9334 0.800049 57.8C0.600049 57.6 0.5 57.4 0.5 57.2V41C0.5 40.7333 0.600049 40.5332 0.800049 40.3999C0.933382 40.2666 1.13336 40.2 1.40002 40.2H10.9C11.1 40.2 11.3 40.2666 11.5 40.3999C11.6333 40.5332 11.7 40.7333 11.7 41C11.7 41.2 11.6333 41.4001 11.5 41.6001C11.3 41.7334 11.1 41.8 10.9 41.8H2.19995V48.3H9.19995C9.39995 48.3 9.60005 48.3667 9.80005 48.5C9.93338 48.6333 10 48.8334 10 49.1001C10 49.3001 9.93338 49.5 9.80005 49.7C9.60005 49.8333 9.39995 49.8999 9.19995 49.8999H2.19995V57.2C2.19995 57.4 2.13333 57.6 2 57.8C1.8 57.9334 1.60002 58 1.40002 58ZM16.8 38.1001C17.1334 38.1001 17.4333 38.2668 17.7 38.6001C17.9666 38.8668 18.1 39.2667 18.1 39.8C18.1 40.2667 17.9666 40.6332 17.7 40.8999C17.4333 41.1666 17.1334 41.3 16.8 41.3C16.4 41.3 16.0667 41.1666 15.8 40.8999C15.5334 40.6332 15.4 40.2667 15.4 39.8C15.4 39.2667 15.5334 38.8668 15.8 38.6001C16.0667 38.2668 16.4 38.1001 16.8 38.1001ZM16 57.2V45.8C16 45.5334 16.0666 45.3333 16.2 45.2C16.4 45 16.6 44.8999 16.8 44.8999C17.0667 44.8999 17.2667 45 17.4 45.2C17.5334 45.3333 17.6 45.5334 17.6 45.8V57.2C17.6 57.4 17.5334 57.6 17.4 57.8C17.2667 57.9334 17.0667 58 16.8 58C16.6 58 16.4 57.9334 16.2 57.8C16.0666 57.6 16 57.4 16 57.2ZM33.9 58C33.7 58 33.5 57.9334 33.3 57.8C33.1667 57.6 33.1 57.4 33.1 57.2V50.5C33.1 49.1 32.8334 48.1 32.3 47.5C31.7667 46.9 31.0666 46.6001 30.2 46.6001C29.2666 46.6001 28.3667 46.8666 27.5 47.3999C26.6333 47.8666 25.8666 48.4666 25.2 49.2V57.2C25.2 57.4 25.1 57.6 24.9 57.8C24.7667 57.9334 24.5667 58 24.3 58C24.1 58 23.9 57.9334 23.7 57.8C23.5666 57.6 23.5 57.4 23.5 57.2V45.8C23.5 45.5334 23.5666 45.3333 23.7 45.2C23.9 45 24.1 44.8999 24.3 44.8999C24.5667 44.8999 24.7667 45 24.9 45.2C25.1 45.3333 25.2 45.5334 25.2 45.8V47C25.9333 46.4 26.7 45.9 27.5 45.5C28.3667 45.1 29.2666 44.8999 30.2 44.8999C31 44.8999 31.7667 45.0666 32.5 45.3999C33.1667 45.7332 33.7 46.3333 34.1 47.2C34.5 48 34.7 49.1 34.7 50.5V57.2C34.7 57.4 34.6333 57.6 34.5 57.8C34.3667 57.9334 34.1667 58 33.9 58ZM49.5 57.7C49.0333 57.1666 48.6667 56.5334 48.4 55.8C47.6 56.4667 46.7667 56.9999 45.9 57.3999C44.9667 57.7999 44 58 43 58C41.9333 58 41.1 57.7999 40.5 57.3999C39.9 57.0666 39.5 56.6 39.3 56C39.0334 55.4667 38.9 54.9667 38.9 54.5C38.9 53.9667 39 53.4332 39.2 52.8999C39.4 52.4332 39.7 52.0001 40.1 51.6001C40.6333 51.0668 41.3667 50.6334 42.3 50.3C43.2334 49.9667 44.3666 49.8 45.7 49.8C46.4333 49.8 47.2 49.8332 48 49.8999C47.9333 48.8999 47.6 48.1 47 47.5C46.4 46.9 45.5334 46.6001 44.4 46.6001C43.9334 46.6001 43.4667 46.6333 43 46.7C42.5333 46.7666 42.2 46.8667 42 47C41.6667 47.0667 41.4334 47.1001 41.3 47.1001C41.1 47.1001 40.9 47.0332 40.7 46.8999C40.5666 46.6999 40.5 46.5 40.5 46.3C40.5 45.9 40.6667 45.6333 41 45.5C41.4 45.3667 41.9 45.2334 42.5 45.1001C43.1667 44.9668 43.8 44.8999 44.4 44.8999C46.2 44.8999 47.5334 45.3999 48.4 46.3999C49.2667 47.3999 49.7 48.7 49.7 50.3V53.3999C49.7 54.1332 49.7667 54.7667 49.9 55.3C50.1 55.7667 50.3666 56.2001 50.7 56.6001C50.8333 56.7334 50.9 56.9001 50.9 57.1001C50.9 57.3668 50.8333 57.5666 50.7 57.7C50.5 57.9 50.3 58 50.1 58C49.9 58 49.7 57.9 49.5 57.7ZM43 56.3C43.9333 56.3 44.8333 56.1 45.7 55.7C46.5666 55.2333 47.3333 54.5666 48 53.7V51.5C47.2 51.4333 46.4333 51.3999 45.7 51.3999C43.6333 51.3999 42.1667 51.8333 41.3 52.7C41.0334 52.9666 40.8333 53.2668 40.7 53.6001C40.6333 53.8668 40.6 54.1667 40.6 54.5C40.6 54.9 40.7666 55.3 41.1 55.7C41.5 56.1 42.1333 56.3 43 56.3ZM65.5 58C65.2333 58 65.0334 57.9334 64.9 57.8C64.7 57.6 64.6 57.4 64.6 57.2V50.5C64.6 49.1 64.3334 48.1 63.8 47.5C63.3334 46.9 62.6333 46.6001 61.7 46.6001C60.7666 46.6001 59.9 46.8666 59.1 47.3999C58.2333 47.8666 57.4333 48.4666 56.7 49.2V57.2C56.7 57.4 56.6333 57.6 56.5 57.8C56.3667 57.9334 56.1667 58 55.9 58C55.7 58 55.5 57.9334 55.3 57.8C55.1667 57.6 55.1 57.4 55.1 57.2V45.8C55.1 45.5334 55.1667 45.3333 55.3 45.2C55.5 45 55.7 44.8999 55.9 44.8999C56.1667 44.8999 56.3667 45 56.5 45.2C56.6333 45.3333 56.7 45.5334 56.7 45.8V47C57.5 46.4 58.3 45.9 59.1 45.5C59.9 45.1 60.7666 44.8999 61.7 44.8999C62.5666 44.8999 63.3333 45.0666 64 45.3999C64.7333 45.7332 65.3 46.3333 65.7 47.2C66.1 48 66.3 49.1 66.3 50.5V57.2C66.3 57.4 66.2333 57.6 66.1 57.8C65.9 57.9334 65.7 58 65.5 58ZM79.8 47C79 46.7333 78.2333 46.6001 77.5 46.6001C75.7667 46.6001 74.4333 47.1001 73.5 48.1001C72.5667 49.0334 72.1 50.2667 72.1 51.8C72.1 53.0667 72.5667 54.1333 73.5 55C74.4333 55.8667 75.7334 56.3 77.4 56.3C78.0667 56.3 78.6333 56.2666 79.1 56.2C79.5666 56.0666 79.9333 55.9666 80.2 55.8999C80.4 55.8332 80.5333 55.7666 80.6 55.7C80.7333 55.7 80.8 55.7 80.8 55.7C81.0667 55.7 81.2667 55.8 81.4 56C81.6 56.1333 81.7 56.3 81.7 56.5C81.7 56.9 81.5 57.1667 81.1 57.3C80.6333 57.5 80.1 57.6667 79.5 57.8C78.9 57.9334 78.2 58 77.4 58C75.9334 58 74.6666 57.7333 73.6 57.2C72.5333 56.6 71.7333 55.8332 71.2 54.8999C70.6666 53.9666 70.4 52.9334 70.4 51.8C70.4 50.4667 70.7 49.3 71.3 48.3C71.8334 47.2334 72.6333 46.4 73.7 45.8C74.7 45.2 75.9667 44.8999 77.5 44.8999C78.6333 44.8999 79.7 45.1 80.7 45.5C81.1 45.6333 81.3 45.9 81.3 46.3C81.3 46.5 81.2 46.6999 81 46.8999C80.8 47.0332 80.6 47.1001 80.4 47.1001C80.3334 47.1001 80.1334 47.0667 79.8 47ZM87.2 38.1001C87.5333 38.1001 87.8333 38.2668 88.1 38.6001C88.3666 38.8668 88.5 39.2667 88.5 39.8C88.5 40.2667 88.3666 40.6332 88.1 40.8999C87.8333 41.1666 87.5333 41.3 87.2 41.3C86.8 41.3 86.4666 41.1666 86.2 40.8999C85.9333 40.6332 85.8 40.2667 85.8 39.8C85.8 39.2667 85.9333 38.8668 86.2 38.6001C86.4666 38.2668 86.8 38.1001 87.2 38.1001ZM86.4 57.2V45.8C86.4 45.5334 86.4666 45.3333 86.6 45.2C86.8 45 87 44.8999 87.2 44.8999C87.4666 44.8999 87.6667 45 87.8 45.2C87.9334 45.3333 88 45.5334 88 45.8V57.2C88 57.4 87.9334 57.6 87.8 57.8C87.6667 57.9334 87.4666 58 87.2 58C87 58 86.8 57.9334 86.6 57.8C86.4666 57.6 86.4 57.4 86.4 57.2ZM103.3 57.7C102.833 57.1666 102.467 56.5334 102.2 55.8C101.467 56.4667 100.633 56.9999 99.7 57.3999C98.8333 57.7999 97.8667 58 96.8 58C95.8 58 95 57.7999 94.4 57.3999C93.8 57.0666 93.3666 56.6 93.1 56C92.8333 55.4667 92.7 54.9667 92.7 54.5C92.7 53.9667 92.8 53.4332 93 52.8999C93.2 52.4332 93.5 52.0001 93.9 51.6001C94.4334 51.0668 95.1666 50.6334 96.1 50.3C97.0333 49.9667 98.2 49.8 99.6 49.8C100.267 49.8 101 49.8332 101.8 49.8999C101.733 48.8999 101.4 48.1 100.8 47.5C100.267 46.9 99.4 46.6001 98.2 46.6001C97.8 46.6001 97.3667 46.6333 96.9 46.7C96.4334 46.7666 96.0667 46.8667 95.8 47C95.5334 47.0667 95.3333 47.1001 95.2 47.1001C94.9333 47.1001 94.7333 47.0332 94.6 46.8999C94.4 46.6999 94.3 46.5 94.3 46.3C94.3 45.9 94.5 45.6333 94.9 45.5C95.2334 45.3667 95.7334 45.2334 96.4 45.1001C97 44.9668 97.6 44.8999 98.2 44.8999C100.067 44.8999 101.4 45.3999 102.2 46.3999C103.067 47.3999 103.5 48.7 103.5 50.3V53.3999C103.5 54.1332 103.6 54.7667 103.8 55.3C103.933 55.7667 104.167 56.2001 104.5 56.6001C104.7 56.7334 104.8 56.9001 104.8 57.1001C104.8 57.3668 104.7 57.5666 104.5 57.7C104.367 57.9 104.167 58 103.9 58C103.7 58 103.5 57.9 103.3 57.7ZM96.8 56.3C97.7334 56.3 98.6333 56.1 99.5 55.7C100.367 55.2333 101.167 54.5666 101.9 53.7V51.5C101.033 51.4333 100.267 51.3999 99.6 51.3999C97.4666 51.3999 95.9666 51.8333 95.1 52.7C94.8333 52.9666 94.6333 53.2668 94.5 53.6001C94.4333 53.8668 94.4 54.1667 94.4 54.5C94.4 54.9 94.6 55.3 95 55.7C95.4 56.1 96 56.3 96.8 56.3ZM109.1 57.2V40.1001C109.1 39.9001 109.167 39.7 109.3 39.5C109.5 39.3667 109.7 39.3 109.9 39.3C110.167 39.3 110.367 39.3667 110.5 39.5C110.7 39.7 110.8 39.9001 110.8 40.1001V57.2C110.8 57.4 110.7 57.6 110.5 57.8C110.367 57.9334 110.167 58 109.9 58C109.7 58 109.5 57.9334 109.3 57.8C109.167 57.6 109.1 57.4 109.1 57.2ZM135.7 42.3999C135.167 42.1332 134.6 41.9334 134 41.8C133.333 41.6667 132.5 41.6001 131.5 41.6001C130.367 41.6001 129.467 41.9 128.8 42.5C128.133 43.0333 127.8 43.6666 127.8 44.3999C127.8 45.1332 128.1 45.7667 128.7 46.3C129.367 46.9 130.6 47.4 132.4 47.8C134 48.2 135.233 48.6666 136.1 49.2C136.967 49.7333 137.567 50.3668 137.9 51.1001C138.3 51.7668 138.5 52.5332 138.5 53.3999C138.5 54.1999 138.267 55 137.8 55.8C137.4 56.5334 136.733 57.1334 135.8 57.6001C134.933 58.0668 133.733 58.3 132.2 58.3C130 58.3 127.967 57.8 126.1 56.8C125.833 56.6 125.7 56.3333 125.7 56C125.7 55.8 125.767 55.6333 125.9 55.5C126.1 55.3 126.3 55.2 126.5 55.2C126.633 55.2 126.767 55.2334 126.9 55.3C128.5 56.1667 130.267 56.6001 132.2 56.6001C133.667 56.6001 134.8 56.3 135.6 55.7C136.4 55.0333 136.8 54.2666 136.8 53.3999C136.8 52.4666 136.433 51.7001 135.7 51.1001C134.967 50.4334 133.733 49.9 132 49.5C130.467 49.1 129.267 48.6334 128.4 48.1001C127.533 47.6334 126.933 47.0666 126.6 46.3999C126.267 45.7332 126.1 45.0334 126.1 44.3C126.1 43.5667 126.3 42.8666 126.7 42.2C127.167 41.5333 127.8 41.0001 128.6 40.6001C129.4 40.2001 130.367 40 131.5 40C132.7 40 133.667 40.1 134.4 40.3C135.2 40.4334 136 40.6667 136.8 41C137.133 41.1333 137.3 41.4 137.3 41.8C137.3 42 137.233 42.1999 137.1 42.3999C136.9 42.5332 136.7 42.6001 136.5 42.6001C136.433 42.6001 136.367 42.6001 136.3 42.6001C136.233 42.5334 136.033 42.4666 135.7 42.3999ZM149.7 58C147.633 58 146.167 57.5666 145.3 56.7C144.433 55.8333 144 54.7 144 53.3V46.6001H141.9C141.7 46.6001 141.5 46.5332 141.3 46.3999C141.167 46.1999 141.1 46 141.1 45.8C141.1 45.5334 141.167 45.3333 141.3 45.2C141.5 45 141.7 44.8999 141.9 44.8999H144V41.6001C144 41.3334 144.1 41.1333 144.3 41C144.433 40.8 144.633 40.7 144.9 40.7C145.1 40.7 145.3 40.8 145.5 41C145.633 41.1333 145.7 41.3334 145.7 41.6001V44.8999H150.1C150.367 44.8999 150.567 45 150.7 45.2C150.9 45.3333 151 45.5334 151 45.8C151 46 150.9 46.1999 150.7 46.3999C150.567 46.5332 150.367 46.6001 150.1 46.6001H145.7V53.3C145.7 55.3 147.033 56.3 149.7 56.3C149.967 56.3 150.167 56.4001 150.3 56.6001C150.433 56.7334 150.5 56.9333 150.5 57.2C150.5 57.4 150.433 57.6 150.3 57.8C150.1 57.9334 149.9 58 149.7 58ZM155.9 58C155.633 58 155.433 57.9334 155.3 57.8C155.1 57.6 155 57.4 155 57.2V45.8C155 45.5334 155.1 45.3333 155.3 45.2C155.433 45 155.633 44.8999 155.9 44.8999C156.1 44.8999 156.3 45 156.5 45.2C156.633 45.3333 156.7 45.5334 156.7 45.8V47.7C157.567 46.8333 158.5 46.1666 159.5 45.7C160.433 45.2333 161.367 45 162.3 45C162.567 45 162.767 45.0666 162.9 45.2C163.033 45.3333 163.1 45.5 163.1 45.7C163.1 46.2333 162.867 46.5334 162.4 46.6001C161.067 46.7334 159.967 47.1334 159.1 47.8C158.233 48.4667 157.433 49.3332 156.7 50.3999V57.2C156.7 57.4 156.633 57.6 156.5 57.8C156.3 57.9334 156.1 58 155.9 58ZM175.3 57.7C174.833 57.1666 174.467 56.5334 174.2 55.8C173.467 56.4667 172.633 56.9999 171.7 57.3999C170.833 57.7999 169.867 58 168.8 58C167.8 58 167 57.7999 166.4 57.3999C165.8 57.0666 165.367 56.6 165.1 56C164.833 55.4667 164.7 54.9667 164.7 54.5C164.7 53.9667 164.8 53.4332 165 52.8999C165.2 52.4332 165.5 52.0001 165.9 51.6001C166.433 51.0668 167.167 50.6334 168.1 50.3C169.033 49.9667 170.2 49.8 171.6 49.8C172.267 49.8 173 49.8332 173.8 49.8999C173.733 48.8999 173.4 48.1 172.8 47.5C172.267 46.9 171.4 46.6001 170.2 46.6001C169.8 46.6001 169.367 46.6333 168.9 46.7C168.433 46.7666 168.067 46.8667 167.8 47C167.533 47.0667 167.333 47.1001 167.2 47.1001C166.933 47.1001 166.733 47.0332 166.6 46.8999C166.4 46.6999 166.3 46.5 166.3 46.3C166.3 45.9 166.5 45.6333 166.9 45.5C167.233 45.3667 167.733 45.2334 168.4 45.1001C169 44.9668 169.6 44.8999 170.2 44.8999C172.067 44.8999 173.4 45.3999 174.2 46.3999C175.067 47.3999 175.5 48.7 175.5 50.3V53.3999C175.5 54.1332 175.6 54.7667 175.8 55.3C175.933 55.7667 176.167 56.2001 176.5 56.6001C176.7 56.7334 176.8 56.9001 176.8 57.1001C176.8 57.3668 176.7 57.5666 176.5 57.7C176.367 57.9 176.167 58 175.9 58C175.7 58 175.5 57.9 175.3 57.7ZM168.8 56.3C169.733 56.3 170.633 56.1 171.5 55.7C172.367 55.2333 173.167 54.5666 173.9 53.7V51.5C173.033 51.4333 172.267 51.3999 171.6 51.3999C169.467 51.3999 167.967 51.8333 167.1 52.7C166.833 52.9666 166.633 53.2668 166.5 53.6001C166.433 53.8668 166.4 54.1667 166.4 54.5C166.4 54.9 166.6 55.3 167 55.7C167.4 56.1 168 56.3 168.8 56.3ZM187.4 58C185.333 58 183.867 57.5666 183 56.7C182.133 55.8333 181.7 54.7 181.7 53.3V46.6001H179.6C179.4 46.6001 179.2 46.5332 179 46.3999C178.867 46.1999 178.8 46 178.8 45.8C178.8 45.5334 178.867 45.3333 179 45.2C179.2 45 179.4 44.8999 179.6 44.8999H181.7V41.6001C181.7 41.3334 181.767 41.1333 181.9 41C182.1 40.8 182.3 40.7 182.5 40.7C182.767 40.7 182.967 40.8 183.1 41C183.3 41.1333 183.4 41.3334 183.4 41.6001V44.8999H187.8C188.067 44.8999 188.267 45 188.4 45.2C188.533 45.3333 188.6 45.5334 188.6 45.8C188.6 46 188.533 46.1999 188.4 46.3999C188.267 46.5332 188.067 46.6001 187.8 46.6001H183.4V53.3C183.4 55.3 184.733 56.3 187.4 56.3C187.6 56.3 187.8 56.4001 188 56.6001C188.133 56.7334 188.2 56.9333 188.2 57.2C188.2 57.4 188.1 57.6 187.9 57.8C187.767 57.9334 187.6 58 187.4 58ZM198.3 58C196.167 58 194.433 57.4334 193.1 56.3C191.833 55.2334 191.2 53.6668 191.2 51.6001C191.2 50.2668 191.467 49.1001 192 48.1001C192.6 47.1001 193.367 46.3334 194.3 45.8C195.3 45.2 196.4 44.8999 197.6 44.8999C198.733 44.8999 199.7 45.1334 200.5 45.6001C201.3 46.0668 201.9 46.6666 202.3 47.3999C202.767 48.0666 203 48.7332 203 49.3999C203 50.1999 202.733 50.9 202.2 51.5C201.733 52.0333 200.8 52.3 199.4 52.3H192.9C193.033 53.6334 193.6 54.6334 194.6 55.3C195.6 55.9667 196.833 56.3 198.3 56.3C198.833 56.3 199.333 56.2666 199.8 56.2C200.267 56.1333 200.6 56.0332 200.8 55.8999C201.067 55.8332 201.233 55.8 201.3 55.8C201.367 55.7334 201.433 55.7 201.5 55.7C201.7 55.7 201.9 55.8 202.1 56C202.233 56.1333 202.3 56.3334 202.3 56.6001C202.3 56.9334 202.133 57.1667 201.8 57.3C201.333 57.5 200.8 57.6667 200.2 57.8C199.533 57.9334 198.9 58 198.3 58ZM197.6 46.6001C196.4 46.6001 195.367 46.9666 194.5 47.7C193.633 48.4333 193.1 49.4333 192.9 50.7H199.4C200.667 50.7 201.3 50.2666 201.3 49.3999C201.3 48.7332 200.967 48.1 200.3 47.5C199.633 46.9 198.733 46.6001 197.6 46.6001ZM210.4 64C210.2 64 210 63.9334 209.8 63.8C209.667 63.6 209.6 63.4 209.6 63.2C209.6 63 209.667 62.8001 209.8 62.6001C210 62.4668 210.2 62.3999 210.4 62.3999C212.8 62.3999 214.533 61.7667 215.6 60.5C216.733 59.3 217.3 57.6668 217.3 55.6001V55.5C216.567 56.1667 215.767 56.7001 214.9 57.1001C214.033 57.4334 213.133 57.6001 212.2 57.6001C211.333 57.6001 210.467 57.4 209.6 57C208.733 56.6 208.033 55.9668 207.5 55.1001C206.967 54.2334 206.7 53.1334 206.7 51.8C206.7 50.4 207 49.1668 207.6 48.1001C208.267 47.1001 209.1 46.3334 210.1 45.8C211.167 45.2 212.267 44.8999 213.4 44.8999C214.133 44.8999 214.8 44.9668 215.4 45.1001C216.067 45.2334 216.7 45.4333 217.3 45.7C217.367 45.4333 217.467 45.2334 217.6 45.1001C217.733 44.9668 217.9 44.8999 218.1 44.8999C218.367 44.8999 218.567 45 218.7 45.2C218.9 45.3333 219 45.5334 219 45.8V55.6001C219 58.1334 218.3 60.1666 216.9 61.7C215.567 63.2333 213.4 64 210.4 64ZM212.2 55.8999C213.2 55.8999 214.133 55.6666 215 55.2C215.867 54.6666 216.633 53.9333 217.3 53V47.5C216.633 47.2333 216 47 215.4 46.8C214.8 46.6667 214.133 46.6001 213.4 46.6001C212.533 46.6001 211.7 46.8 210.9 47.2C210.167 47.6666 209.533 48.2667 209 49C208.533 49.8 208.3 50.7334 208.3 51.8C208.3 52.7334 208.5 53.5001 208.9 54.1001C209.3 54.7668 209.8 55.2333 210.4 55.5C211 55.7667 211.6 55.8999 212.2 55.8999ZM225.6 38.1001C226 38.1001 226.333 38.2668 226.6 38.6001C226.867 38.8668 227 39.2667 227 39.8C227 40.2667 226.867 40.6332 226.6 40.8999C226.333 41.1666 226.033 41.3 225.7 41.3C225.3 41.3 224.933 41.1666 224.6 40.8999C224.333 40.6332 224.2 40.2667 224.2 39.8C224.2 39.2667 224.333 38.8668 224.6 38.6001C224.867 38.2668 225.2 38.1001 225.6 38.1001ZM224.8 57.2V45.8C224.8 45.5334 224.9 45.3333 225.1 45.2C225.233 45 225.433 44.8999 225.7 44.8999C225.9 44.8999 226.1 45 226.3 45.2C226.433 45.3333 226.5 45.5334 226.5 45.8V57.2C226.5 57.4 226.433 57.6 226.3 57.8C226.1 57.9334 225.9 58 225.7 58C225.433 58 225.233 57.9334 225.1 57.8C224.9 57.6 224.8 57.4 224.8 57.2ZM240 46.8999C239.8 46.8332 239.433 46.7334 238.9 46.6001C238.367 46.5334 237.767 46.5 237.1 46.5C236.033 46.5 235.2 46.7001 234.6 47.1001C234 47.4334 233.7 47.9 233.7 48.5C233.7 48.9667 233.933 49.3666 234.4 49.7C234.933 49.9666 235.767 50.1667 236.9 50.3L238.2 50.3999C239.333 50.5332 240.233 50.8 240.9 51.2C241.567 51.6 242.033 52.0668 242.3 52.6001C242.567 53.1334 242.7 53.7 242.7 54.3C242.7 54.9 242.533 55.5001 242.2 56.1001C241.867 56.7001 241.333 57.2001 240.6 57.6001C239.8 57.9334 238.7 58.1001 237.3 58.1001C236.5 58.1001 235.667 58.0332 234.8 57.8999C233.933 57.6999 233.1 57.4334 232.3 57.1001C231.967 56.9668 231.8 56.7 231.8 56.3C231.8 56.1 231.9 55.9334 232.1 55.8C232.233 55.6 232.433 55.5 232.7 55.5C232.7 55.5 232.767 55.5334 232.9 55.6001C233.033 55.6668 233.233 55.7334 233.5 55.8C233.9 56 234.467 56.1667 235.2 56.3C235.867 56.4334 236.567 56.5 237.3 56.5C238.5 56.5 239.4 56.2999 240 55.8999C240.667 55.4332 241 54.9 241 54.3C241 53.7 240.767 53.2 240.3 52.8C239.9 52.4 239.167 52.1668 238.1 52.1001L236.8 51.8999C235.467 51.7666 234.467 51.5333 233.8 51.2C233.067 50.8 232.6 50.3666 232.4 49.8999C232.133 49.4332 232 48.9332 232 48.3999C232 47.8666 232.133 47.3334 232.4 46.8C232.733 46.2667 233.267 45.7999 234 45.3999C234.733 44.9999 235.767 44.8 237.1 44.8C237.833 44.8 238.533 44.8667 239.2 45C239.867 45.0667 240.467 45.1999 241 45.3999C241.133 45.3999 241.267 45.5 241.4 45.7C241.533 45.8333 241.6 46 241.6 46.2C241.6 46.4 241.5 46.6 241.3 46.8C241.167 46.9334 240.967 47 240.7 47C240.567 47 240.333 46.9666 240 46.8999ZM253.8 58C251.8 58 250.367 57.5666 249.5 56.7C248.633 55.8333 248.2 54.7 248.2 53.3V46.6001H246.1C245.833 46.6001 245.633 46.5332 245.5 46.3999C245.3 46.1999 245.2 46 245.2 45.8C245.2 45.5334 245.3 45.3333 245.5 45.2C245.633 45 245.833 44.8999 246.1 44.8999H248.2V41.6001C248.2 41.3334 248.267 41.1333 248.4 41C248.6 40.8 248.8 40.7 249 40.7C249.267 40.7 249.467 40.8 249.6 41C249.733 41.1333 249.8 41.3334 249.8 41.6001V44.8999H254.3C254.5 44.8999 254.7 45 254.9 45.2C255.033 45.3333 255.1 45.5334 255.1 45.8C255.1 46 255.033 46.1999 254.9 46.3999C254.7 46.5332 254.5 46.6001 254.3 46.6001H249.8V53.3C249.8 55.3 251.133 56.3 253.8 56.3C254.067 56.3 254.267 56.4001 254.4 56.6001C254.6 56.7334 254.7 56.9333 254.7 57.2C254.7 57.4 254.6 57.6 254.4 57.8C254.267 57.9334 254.067 58 253.8 58Z" fill="white"/>
</svg>
