<svg width="230" height="40" viewBox="0 0 230 40" fill="none" xmlns="http://www.w3.org/2000/svg">
<path d="M28.5 30.5C28.3 30.5 28.0667 30.4333 27.8 30.3C27.6 30.1 27.4 29.8333 27.2 29.5C26.8 28.7 26.2666 27.5 25.6 25.9C24.9333 24.3 24.2333 22.5 23.5 20.5C22.7667 18.5 22 16.4666 21.2 14.4C20.4667 12.3333 19.8333 10.4666 19.3 8.79996C18.6333 10.6 17.9333 12.5333 17.2 14.6C16.4 16.6666 15.6334 18.7 14.9 20.7C14.1 22.6333 13.3667 24.4 12.7 26C12.1 27.6 11.6 28.8333 11.2 29.7C10.9333 30.1666 10.5333 30.4 10 30.4C9.66667 30.4 9.36664 30.3 9.09998 30.1C8.89998 29.9 8.76668 29.7 8.70001 29.5C8.36668 28.7666 7.89999 27.6666 7.29999 26.2C6.76665 24.6666 6.16667 23 5.5 21.2C4.83333 19.3333 4.16667 17.4666 3.5 15.6C2.9 13.6666 2.33332 11.9333 1.79999 10.4C1.26665 8.79996 0.866642 7.53329 0.599976 6.59995C0.399976 5.86662 0.266679 5.36662 0.200012 5.09995C0.133346 4.83329 0.0999756 4.66662 0.0999756 4.59995C0.0999756 4.26662 0.233333 3.96662 0.5 3.69995C0.766667 3.43328 1.06669 3.29996 1.40002 3.29996C2.00002 3.29996 2.39998 3.59995 2.59998 4.19995C2.93331 5.53328 3.4 7.16662 4 9.09995C4.6 10.9666 5.26667 12.9666 6 15.1C6.73333 17.1666 7.43331 19.1666 8.09998 21.1C8.83331 23.0333 9.46667 24.7 10 26.1C10.6 24.7 11.2667 23.0666 12 21.2C12.7333 19.3333 13.4667 17.4 14.2 15.4C15 13.3333 15.7334 11.3666 16.4 9.49995C17.0667 7.56662 17.6333 5.86662 18.1 4.39996C18.2333 3.79996 18.6333 3.49995 19.3 3.49995C19.9 3.49995 20.3667 3.99995 20.7 4.99995C21.1 6.33329 21.6333 7.93329 22.3 9.79996C22.9667 11.6666 23.6667 13.6 24.4 15.6C25.1334 17.6 25.8333 19.5333 26.5 21.4C27.2333 23.2666 27.8667 24.8666 28.4 26.2C29 24.8 29.6333 23.1666 30.3 21.3C30.9667 19.3666 31.6667 17.4 32.4 15.4C33.0667 13.3333 33.7334 11.3333 34.4 9.39996C35 7.46662 35.5333 5.73328 36 4.19995C36.1333 3.59995 36.5333 3.29996 37.2 3.29996C37.4667 3.29996 37.7333 3.43328 38 3.69995C38.2667 3.96662 38.4 4.26662 38.4 4.59995C38.4 4.73329 38.3333 5.06662 38.2 5.59995C37.8 6.93329 37.3 8.46662 36.7 10.2C36.1667 11.9333 35.5667 13.7666 34.9 15.7C34.2334 17.6333 33.5667 19.5 32.9 21.3C32.2334 23.1666 31.6333 24.8333 31.1 26.3C30.5 27.7666 30.0333 28.9333 29.7 29.8C29.4333 30.2666 29.0333 30.5 28.5 30.5ZM61 30C60.6667 30 60.3666 29.9 60.1 29.7C59.9 29.4333 59.8 29.1333 59.8 28.8V18.8C59.8 16.7333 59.4 15.2333 58.6 14.3C57.8 13.3666 56.7334 12.9 55.4 12.9C54 12.9 52.6667 13.3 51.4 14.1C50.1334 14.8333 48.9667 15.7333 47.9 16.8V28.8C47.9 29.1333 47.8 29.4333 47.6 29.7C47.3333 29.9 47.0333 30 46.7 30C46.3667 30 46.0667 29.9 45.8 29.7C45.5333 29.4333 45.4 29.1333 45.4 28.8V3.19995C45.4 2.86662 45.5333 2.56662 45.8 2.29996C46.0667 2.09996 46.3667 1.99995 46.7 1.99995C47.0333 1.99995 47.3333 2.09996 47.6 2.29996C47.8 2.56662 47.9 2.86662 47.9 3.19995V13.5C49.0334 12.6333 50.2333 11.9 51.5 11.3C52.7 10.7 54 10.4 55.4 10.4C56.6667 10.4 57.8334 10.6666 58.9 11.2C59.9 11.6666 60.7 12.5333 61.3 13.8C61.9667 15 62.3 16.6666 62.3 18.8V28.8C62.3 29.1333 62.1667 29.4333 61.9 29.7C61.7 29.9 61.4 30 61 30ZM71.8 0.199951C72.3333 0.199951 72.8 0.433289 73.2 0.899956C73.6 1.29996 73.8 1.89995 73.8 2.69995C73.8 3.43328 73.6 3.99996 73.2 4.39996C72.8 4.79996 72.3333 4.99995 71.8 4.99995C71.2 4.99995 70.7 4.79996 70.3 4.39996C69.9 3.99996 69.7 3.43328 69.7 2.69995C69.7 1.89995 69.9 1.29996 70.3 0.899956C70.7 0.433289 71.2 0.199951 71.8 0.199951ZM70.6 28.8V11.7C70.6 11.3 70.7 11 70.9 10.8C71.1667 10.5333 71.4667 10.4 71.8 10.4C72.2 10.4 72.5 10.5333 72.7 10.8C72.9667 11 73.1 11.3 73.1 11.7V28.8C73.1 29.1333 72.9667 29.4333 72.7 29.7C72.5 29.9 72.2 30 71.8 30C71.4667 30 71.1667 29.9 70.9 29.7C70.7 29.4333 70.6 29.1333 70.6 28.8ZM91.6 30C88.5333 30 86.3333 29.3666 85 28.1C83.7333 26.8333 83.1 25.1 83.1 22.9V12.9H79.9C79.5667 12.9 79.2667 12.8 79 12.6C78.8 12.3333 78.7 12.0333 78.7 11.7C78.7 11.3 78.8 11 79 10.8C79.2667 10.5333 79.5667 10.4 79.9 10.4H83.1V5.39996C83.1 4.99996 83.2 4.69995 83.4 4.49995C83.6667 4.23329 83.9667 4.09995 84.3 4.09995C84.7 4.09995 85 4.23329 85.2 4.49995C85.4667 4.69995 85.6 4.99996 85.6 5.39996V10.4H92.2C92.6 10.4 92.9 10.5333 93.1 10.8C93.3666 11 93.5 11.3 93.5 11.7C93.5 12.0333 93.3666 12.3333 93.1 12.6C92.9 12.8 92.6 12.9 92.2 12.9H85.6V22.9C85.6 25.9666 87.6 27.5 91.6 27.5C91.9333 27.5 92.2333 27.6333 92.5 27.9C92.7 28.1666 92.8 28.4666 92.8 28.8C92.8 29.1333 92.6667 29.4333 92.4 29.7C92.2 29.9 91.9333 30 91.6 30ZM107.9 30C104.7 30 102.133 29.1666 100.2 27.5C98.2666 25.8333 97.3 23.5 97.3 20.5C97.3 18.4333 97.7333 16.6666 98.6 15.2C99.4666 13.6666 100.6 12.5 102 11.7C103.467 10.8333 105.1 10.4 106.9 10.4C108.633 10.4 110.1 10.7666 111.3 11.5C112.5 12.1666 113.4 13.0333 114 14.1C114.667 15.1 115 16.1 115 17.1C115 18.3 114.6 19.3333 113.8 20.2C113.067 21.0666 111.667 21.5 109.6 21.5H99.8C100.067 23.5 100.933 25 102.4 26C103.933 27 105.767 27.5 107.9 27.5C108.767 27.5 109.533 27.4333 110.2 27.3C110.867 27.1666 111.4 27.0333 111.8 26.9C112.133 26.7666 112.367 26.7 112.5 26.7C112.633 26.6333 112.733 26.6 112.8 26.6C113.133 26.6 113.4 26.7333 113.6 27C113.867 27.2666 114 27.5666 114 27.9C114 28.4333 113.733 28.8 113.2 29C112.533 29.2666 111.733 29.5 110.8 29.7C109.867 29.9 108.9 30 107.9 30ZM106.9 12.9C105.1 12.9 103.567 13.4666 102.3 14.6C100.967 15.7333 100.167 17.2 99.9 19H109.7C111.567 19 112.5 18.3666 112.5 17.1C112.5 16.1 112 15.1666 111 14.3C109.933 13.3666 108.567 12.9 106.9 12.9ZM124.6 28V38.3C124.6 38.6333 124.467 38.9333 124.2 39.2C124 39.4 123.7 39.5 123.3 39.5C122.967 39.5 122.667 39.4 122.4 39.2C122.2 38.9333 122.1 38.6333 122.1 38.3V11.7C122.1 11.3 122.2 11 122.4 10.8C122.667 10.5333 122.967 10.4 123.3 10.4C123.7 10.4 124 10.5333 124.2 10.8C124.467 11 124.6 11.3 124.6 11.7V13.7C125.667 12.6333 126.767 11.8333 127.9 11.3C129.1 10.7 130.367 10.4 131.7 10.4C133.233 10.4 134.667 10.7666 136 11.5C137.4 12.2333 138.5 13.3333 139.3 14.8C140.167 16.2666 140.6 18.0666 140.6 20.2C140.6 22.0666 140.2 23.7666 139.4 25.3C138.6 26.7666 137.467 27.9333 136 28.8C134.6 29.6 132.967 30 131.1 30C129.967 30 128.867 29.8333 127.8 29.5C126.667 29.1 125.6 28.6 124.6 28ZM131.1 27.5C133.167 27.5 134.833 26.8 136.1 25.4C137.433 24 138.1 22.2666 138.1 20.2C138.1 17.8666 137.467 16.0666 136.2 14.8C134.933 13.5333 133.433 12.9 131.7 12.9C130.3 12.9 129 13.3333 127.8 14.2C126.6 15 125.533 16.0666 124.6 17.4V25C125.533 25.7333 126.567 26.3333 127.7 26.8C128.833 27.2666 129.967 27.5 131.1 27.5ZM160.9 29.6C160.167 28.8 159.6 27.8333 159.2 26.7C158.067 27.7666 156.8 28.6 155.4 29.2C154.067 29.7333 152.633 30 151.1 30C149.567 30 148.333 29.7333 147.4 29.2C146.533 28.6 145.9 27.9 145.5 27.1C145.167 26.2333 145 25.4333 145 24.7C145 23.9 145.133 23.1333 145.4 22.4C145.667 21.6666 146.1 21 146.7 20.4C147.567 19.6666 148.7 19.0333 150.1 18.5C151.5 17.9666 153.2 17.7 155.2 17.7C156.267 17.7 157.4 17.7333 158.6 17.8C158.467 16.3333 157.967 15.1666 157.1 14.3C156.233 13.3666 154.933 12.9 153.2 12.9C152.533 12.9 151.867 12.9666 151.2 13.1C150.467 13.2333 149.933 13.3666 149.6 13.5C149.133 13.6333 148.8 13.7 148.6 13.7C148.267 13.7 147.967 13.6 147.7 13.4C147.433 13.1333 147.3 12.8333 147.3 12.5C147.3 11.9 147.6 11.5 148.2 11.3C148.733 11.1 149.467 10.9 150.4 10.7C151.4 10.5 152.333 10.4 153.2 10.4C155.933 10.4 157.933 11.1666 159.2 12.7C160.533 14.1666 161.2 16.1 161.2 18.5V23.1C161.2 24.2333 161.3 25.1666 161.5 25.9C161.767 26.6333 162.167 27.3 162.7 27.9C162.9 28.1 163 28.3666 163 28.7C163 29.0333 162.867 29.3333 162.6 29.6C162.4 29.8666 162.133 30 161.8 30C161.467 30 161.167 29.8666 160.9 29.6ZM151.1 27.5C152.5 27.5 153.867 27.2 155.2 26.6C156.467 25.9333 157.633 24.9333 158.7 23.6V20.3C157.433 20.2333 156.267 20.2 155.2 20.2C152.067 20.2 149.833 20.8333 148.5 22.1C148.1 22.5 147.833 22.9333 147.7 23.4C147.567 23.8 147.5 24.2333 147.5 24.7C147.5 25.3666 147.767 26 148.3 26.6C148.9 27.2 149.833 27.5 151.1 27.5ZM171.7 28V38.3C171.7 38.6333 171.6 38.9333 171.4 39.2C171.133 39.4 170.833 39.5 170.5 39.5C170.167 39.5 169.867 39.4 169.6 39.2C169.333 38.9333 169.2 38.6333 169.2 38.3V11.7C169.2 11.3 169.333 11 169.6 10.8C169.867 10.5333 170.167 10.4 170.5 10.4C170.833 10.4 171.133 10.5333 171.4 10.8C171.6 11 171.7 11.3 171.7 11.7V13.7C172.767 12.6333 173.9 11.8333 175.1 11.3C176.3 10.7 177.533 10.4 178.8 10.4C180.4 10.4 181.867 10.7666 183.2 11.5C184.533 12.2333 185.633 13.3333 186.5 14.8C187.3 16.2666 187.7 18.0666 187.7 20.2C187.7 22.0666 187.3 23.7666 186.5 25.3C185.7 26.7666 184.6 27.9333 183.2 28.8C181.733 29.6 180.067 30 178.2 30C177.133 30 176.033 29.8333 174.9 29.5C173.833 29.1 172.767 28.6 171.7 28ZM178.2 27.5C180.333 27.5 182.033 26.8 183.3 25.4C184.567 24 185.2 22.2666 185.2 20.2C185.2 17.8666 184.567 16.0666 183.3 14.8C182.033 13.5333 180.533 12.9 178.8 12.9C177.4 12.9 176.1 13.3333 174.9 14.2C173.767 15 172.7 16.0666 171.7 17.4V25C172.7 25.7333 173.733 26.3333 174.8 26.8C175.933 27.2666 177.067 27.5 178.2 27.5ZM203.5 30C200.3 30 197.7 29.1666 195.7 27.5C193.767 25.8333 192.8 23.5 192.8 20.5C192.8 18.4333 193.233 16.6666 194.1 15.2C194.967 13.6666 196.133 12.5 197.6 11.7C199.067 10.8333 200.667 10.4 202.4 10.4C204.2 10.4 205.7 10.7666 206.9 11.5C208.1 12.1666 209 13.0333 209.6 14.1C210.2 15.1 210.5 16.1 210.5 17.1C210.5 18.3 210.133 19.3333 209.4 20.2C208.667 21.0666 207.267 21.5 205.2 21.5H195.4C195.667 23.5 196.533 25 198 26C199.467 27 201.3 27.5 203.5 27.5C204.3 27.5 205.033 27.4333 205.7 27.3C206.433 27.1666 206.967 27.0333 207.3 26.9C207.7 26.7666 207.933 26.7 208 26.7C208.133 26.6333 208.233 26.6 208.3 26.6C208.633 26.6 208.933 26.7333 209.2 27C209.467 27.2666 209.6 27.5666 209.6 27.9C209.6 28.4333 209.333 28.8 208.8 29C208.067 29.2666 207.233 29.5 206.3 29.7C205.367 29.9 204.433 30 203.5 30ZM202.4 12.9C200.667 12.9 199.133 13.4666 197.8 14.6C196.533 15.7333 195.733 17.2 195.4 19H205.2C207.133 19 208.1 18.3666 208.1 17.1C208.1 16.1 207.567 15.1666 206.5 14.3C205.5 13.3666 204.133 12.9 202.4 12.9ZM218.9 30C218.567 30 218.267 29.9 218 29.7C217.733 29.4333 217.6 29.1333 217.6 28.8V11.7C217.6 11.3 217.733 11 218 10.8C218.267 10.5333 218.567 10.4 218.9 10.4C219.233 10.4 219.533 10.5333 219.8 10.8C220 11 220.1 11.3 220.1 11.7V14.6C221.433 13.2666 222.833 12.2333 224.3 11.5C225.767 10.8333 227.167 10.5 228.5 10.5C228.9 10.5 229.2 10.6 229.4 10.8C229.6 11 229.7 11.2666 229.7 11.6C229.7 12.4 229.333 12.8333 228.6 12.9C226.667 13.1666 225.033 13.8 223.7 14.8C222.367 15.8 221.167 17.1 220.1 18.7V28.8C220.1 29.1333 220 29.4333 219.8 29.7C219.533 29.9 219.233 30 218.9 30Z" fill="white"/>
</svg>
