<svg width="192" height="38" viewBox="0 0 192 38" fill="none" xmlns="http://www.w3.org/2000/svg">
<path d="M15.7 4.60004C14.9 4.26671 14 4.00005 13 3.80005C12.0667 3.60005 10.8333 3.50005 9.29999 3.50005C7.63332 3.50005 6.29999 3.93338 5.29999 4.80005C4.29999 5.60005 3.79999 6.53338 3.79999 7.60004C3.79999 8.66671 4.26668 9.63338 5.20001 10.5C6.13335 11.3667 7.93331 12.1334 10.6 12.8C13 13.3334 14.8667 14 16.2 14.8C17.5333 15.6667 18.4667 16.6334 19 17.7C19.5333 18.7 19.8 19.8334 19.8 21.1C19.8 22.3667 19.4667 23.5667 18.8 24.7C18.2 25.7667 17.2 26.6667 15.8 27.4C14.4667 28.0667 12.6333 28.4 10.3 28.4C7.03332 28.4 4.03332 27.6667 1.29999 26.2C0.833321 25.9334 0.599976 25.5667 0.599976 25.1C0.599976 24.7667 0.733333 24.4667 1 24.2C1.2 23.9334 1.50002 23.8 1.90002 23.8C2.10002 23.8 2.3 23.8667 2.5 24C4.83333 25.3334 7.43332 26 10.3 26C12.5667 26 14.3 25.5334 15.5 24.6C16.7 23.6 17.3 22.4334 17.3 21.1C17.3 19.7 16.7333 18.5334 15.6 17.6C14.4666 16.6667 12.6333 15.9 10.1 15.3C7.76664 14.7 5.93331 14 4.59998 13.2C3.33331 12.4667 2.46667 11.6 2 10.6C1.53333 9.66671 1.29999 8.60005 1.29999 7.40005C1.29999 6.33338 1.60001 5.33338 2.20001 4.40005C2.80001 3.40005 3.70002 2.56671 4.90002 1.90005C6.10002 1.30005 7.56665 1.00005 9.29999 1.00005C11.1667 1.00005 12.6333 1.13338 13.7 1.40005C14.8333 1.66671 16.0333 2.06671 17.3 2.60004C17.8333 2.80004 18.1 3.16671 18.1 3.70004C18.1 4.03338 17.9667 4.33338 17.7 4.60004C17.4333 4.86671 17.1333 5.00005 16.8 5.00005C16.7333 5.00005 16.6333 4.96671 16.5 4.90005C16.3667 4.83338 16.1 4.73338 15.7 4.60004ZM29.7 26V36.3C29.7 36.6334 29.5667 36.9334 29.3 37.2C29.1 37.4 28.8 37.5 28.4 37.5C28.0667 37.5 27.7667 37.4 27.5 37.2C27.3 36.9334 27.2 36.6334 27.2 36.3V9.70004C27.2 9.30004 27.3 9.00005 27.5 8.80005C27.7667 8.53338 28.0667 8.40005 28.4 8.40005C28.8 8.40005 29.1 8.53338 29.3 8.80005C29.5667 9.00005 29.7 9.30004 29.7 9.70004V11.7C30.7667 10.6334 31.8667 9.83338 33 9.30005C34.2 8.70005 35.4667 8.40005 36.8 8.40005C38.3333 8.40005 39.7666 8.76671 41.1 9.50005C42.5 10.2334 43.6 11.3334 44.4 12.8C45.2667 14.2667 45.7 16.0667 45.7 18.2C45.7 20.0667 45.3 21.7667 44.5 23.3C43.7 24.7667 42.5666 25.9334 41.1 26.8C39.7 27.6 38.0667 28 36.2 28C35.0667 28 33.9667 27.8334 32.9 27.5C31.7667 27.1 30.7 26.6 29.7 26ZM36.2 25.5C38.2667 25.5 39.9333 24.8 41.2 23.4C42.5333 22 43.2 20.2667 43.2 18.2C43.2 15.8667 42.5667 14.0667 41.3 12.8C40.0333 11.5334 38.5333 10.9 36.8 10.9C35.4 10.9 34.1 11.3334 32.9 12.2C31.7 13 30.6333 14.0667 29.7 15.4V23C30.6333 23.7334 31.6667 24.3334 32.8 24.8C33.9333 25.2667 35.0667 25.5 36.2 25.5ZM53.6 28C53.2666 28 52.9667 27.9 52.7 27.7C52.4333 27.4334 52.3 27.1334 52.3 26.8V9.70004C52.3 9.30004 52.4333 9.00005 52.7 8.80005C52.9667 8.53338 53.2666 8.40005 53.6 8.40005C53.9333 8.40005 54.2333 8.53338 54.5 8.80005C54.7 9.00005 54.8 9.30004 54.8 9.70004V12.6C56.1333 11.2667 57.5333 10.2334 59 9.50005C60.4667 8.83338 61.8667 8.50005 63.2 8.50005C63.6 8.50005 63.9 8.60005 64.1 8.80005C64.3 9.00005 64.4 9.26671 64.4 9.60004C64.4 10.4 64.0333 10.8334 63.3 10.9C61.3667 11.1667 59.7334 11.8 58.4 12.8C57.0667 13.8 55.8667 15.1 54.8 16.7V26.8C54.8 27.1334 54.7 27.4334 54.5 27.7C54.2333 27.9 53.9333 28 53.6 28ZM82.8 27.6C82.0667 26.8 81.5 25.8334 81.1 24.7C79.9666 25.7667 78.7 26.6 77.3 27.2C75.9667 27.7334 74.5333 28 73 28C71.4667 28 70.2333 27.7334 69.3 27.2C68.4333 26.6 67.8 25.9 67.4 25.1C67.0667 24.2334 66.9 23.4334 66.9 22.7C66.9 21.9 67.0333 21.1334 67.3 20.4C67.5667 19.6667 68 19 68.6 18.4C69.4666 17.6667 70.6 17.0334 72 16.5C73.4 15.9667 75.1 15.7 77.1 15.7C78.1666 15.7 79.3 15.7334 80.5 15.8C80.3667 14.3334 79.8667 13.1667 79 12.3C78.1333 11.3667 76.8333 10.9 75.1 10.9C74.4333 10.9 73.7666 10.9667 73.1 11.1C72.3666 11.2334 71.8333 11.3667 71.5 11.5C71.0333 11.6334 70.7 11.7 70.5 11.7C70.1667 11.7 69.8666 11.6 69.6 11.4C69.3333 11.1334 69.2 10.8334 69.2 10.5C69.2 9.90005 69.5 9.50005 70.1 9.30005C70.6333 9.10005 71.3667 8.90004 72.3 8.70004C73.3 8.50004 74.2333 8.40005 75.1 8.40005C77.8333 8.40005 79.8333 9.16671 81.1 10.7C82.4333 12.1667 83.1 14.1 83.1 16.5V21.1C83.1 22.2334 83.2 23.1667 83.4 23.9C83.6667 24.6334 84.0666 25.3 84.6 25.9C84.8 26.1 84.9 26.3667 84.9 26.7C84.9 27.0334 84.7667 27.3334 84.5 27.6C84.3 27.8667 84.0333 28 83.7 28C83.3667 28 83.0667 27.8667 82.8 27.6ZM73 25.5C74.4 25.5 75.7666 25.2 77.1 24.6C78.3666 23.9334 79.5333 22.9334 80.6 21.6V18.3C79.3333 18.2334 78.1666 18.2 77.1 18.2C73.9666 18.2 71.7334 18.8334 70.4 20.1C70 20.5 69.7333 20.9334 69.6 21.4C69.4666 21.8 69.4 22.2334 69.4 22.7C69.4 23.3667 69.6667 24 70.2 24.6C70.8 25.2 71.7333 25.5 73 25.5ZM90.1 36.7C89.7666 36.7 89.4667 36.5667 89.2 36.3C88.9333 36.1 88.8 35.8334 88.8 35.5C88.8 34.9667 89 34.5667 89.4 34.3C90.8 33.5 92.1667 32.5667 93.5 31.5C94.7667 30.3667 96.0333 28.8 97.3 26.8C96.0333 24.8 94.6667 22.5 93.2 19.9C91.8 17.2334 90.5667 14.5 89.5 11.7C89.2333 10.9 89.0667 10.4 89 10.2C88.9333 9.93338 88.9 9.73338 88.9 9.60004C88.9 9.33338 89 9.06672 89.2 8.80005C89.4667 8.53338 89.7666 8.40005 90.1 8.40005C90.3666 8.40005 90.6 8.46671 90.8 8.60004C91.0667 8.73338 91.2333 8.93338 91.3 9.20004C92.5 12.4667 93.7333 15.3334 95 17.8C96.3333 20.3334 97.5667 22.5334 98.7 24.4C99.5 22.9334 100.267 21.3667 101 19.7C101.8 17.9667 102.533 16.2334 103.2 14.5C103.933 12.7 104.533 10.9667 105 9.30005C105.133 8.70005 105.533 8.40005 106.2 8.40005C106.533 8.40005 106.833 8.53338 107.1 8.80005C107.3 9.06672 107.4 9.36671 107.4 9.70004C107.4 9.76671 107.333 10 107.2 10.4C107.133 10.8 107.033 11.1667 106.9 11.5C106.433 12.9667 105.833 14.6334 105.1 16.5C104.3 18.3667 103.467 20.2667 102.6 22.2C101.733 24.1334 100.833 25.8667 99.9 27.4C98.4334 29.8667 96.9334 31.7667 95.4 33.1C93.8667 34.4334 92.2666 35.5667 90.6 36.5C90.4666 36.6334 90.3 36.7 90.1 36.7ZM114.8 15.8H124.9C125.3 15.8 125.6 15.9 125.8 16.1C126.067 16.3667 126.2 16.6667 126.2 17C126.2 17.3334 126.067 17.6334 125.8 17.9C125.6 18.1667 125.3 18.3 124.9 18.3H114.8C114.467 18.3 114.167 18.1667 113.9 17.9C113.7 17.6334 113.6 17.3334 113.6 17C113.6 16.6667 113.7 16.3667 113.9 16.1C114.167 15.9 114.467 15.8 114.8 15.8ZM136.5 28C136.167 28 135.867 27.9 135.6 27.7C135.4 27.4334 135.3 27.1334 135.3 26.8V2.50005C135.3 2.16671 135.4 1.86671 135.6 1.60004C135.867 1.40004 136.167 1.30005 136.5 1.30005H150.8C151.133 1.30005 151.433 1.40004 151.7 1.60004C151.9 1.86671 152 2.16671 152 2.50005C152 2.83338 151.9 3.13338 151.7 3.40005C151.433 3.66671 151.133 3.80005 150.8 3.80005H137.8V13.4H148.2C148.6 13.4 148.9 13.5334 149.1 13.8C149.367 14 149.5 14.3 149.5 14.7C149.5 15.0334 149.367 15.3334 149.1 15.6C148.9 15.8 148.6 15.9 148.2 15.9H137.8V26.8C137.8 27.1334 137.667 27.4334 137.4 27.7C137.2 27.9 136.9 28 136.5 28ZM189.8 28.1C189.533 28.1 189.267 28 189 27.8C188.8 27.6 188.667 27.3334 188.6 27C188.333 25.1334 188.033 23 187.7 20.6C187.3 18.2 186.9 15.7 186.5 13.1C186.033 10.5667 185.567 8.10004 185.1 5.70004C184.033 7.90004 182.9 10.2334 181.7 12.7C180.567 15.1 179.5 17.4667 178.5 19.8C177.433 22.1334 176.5 24.3 175.7 26.3C175.433 26.9 175.067 27.2 174.6 27.2C174 27.2 173.6 26.9667 173.4 26.5C172.4 24.4334 171.333 22.2 170.2 19.8C169 17.3334 167.833 14.9 166.7 12.5C165.567 10.0334 164.5 7.76671 163.5 5.70004C163.233 7.50004 162.933 9.36672 162.6 11.3C162.333 13.3 162.067 15.2667 161.8 17.2C161.6 19.1334 161.367 20.9334 161.1 22.6C160.9 24.3334 160.733 25.8 160.6 27C160.6 27.3334 160.467 27.6 160.2 27.8C159.933 28 159.633 28.1 159.3 28.1C158.967 28.1 158.7 28 158.5 27.8C158.233 27.5334 158.1 27.2 158.1 26.8C158.1 26.7334 158.167 26.2667 158.3 25.4C158.433 24.2667 158.6 22.7667 158.8 20.9C159.067 18.9667 159.333 16.9 159.6 14.7C159.933 12.4334 160.267 10.1667 160.6 7.90005C160.933 5.70005 161.233 3.70005 161.5 1.90005C161.567 1.56671 161.733 1.30004 162 1.10004C162.267 0.900044 162.533 0.800049 162.8 0.800049C163.2 0.800049 163.5 0.933376 163.7 1.20004C164.033 1.53338 164.3 1.93338 164.5 2.40005C165.433 4.26671 166.467 6.36671 167.6 8.70004C168.733 11.0334 169.9 13.4 171.1 15.8C172.3 18.2667 173.433 20.6 174.5 22.8C175.433 20.6 176.467 18.2667 177.6 15.8C178.733 13.3334 179.867 10.8667 181 8.40005C182.2 5.86671 183.367 3.53338 184.5 1.40005C184.767 1.00005 185.167 0.800049 185.7 0.800049C185.967 0.800049 186.233 0.900044 186.5 1.10004C186.767 1.23338 186.933 1.46672 187 1.80005C187.4 3.73338 187.767 5.83338 188.1 8.10004C188.5 10.3 188.867 12.4 189.2 14.4C189.533 16.4667 189.8 18.2667 190 19.8C190.267 21.2667 190.433 22.3 190.5 22.9C190.767 24.5 190.933 25.5334 191 26C191.067 26.4667 191.1 26.7667 191.1 26.9C191.1 27.2334 190.967 27.5334 190.7 27.8C190.5 28 190.2 28.1 189.8 28.1Z" fill="white"/>
</svg>
