<svg width="269" height="65" viewBox="0 0 269 65" fill="none" xmlns="http://www.w3.org/2000/svg">
<path d="M118.2 18H112.4C112.133 18 111.933 17.9331 111.8 17.7998C111.6 17.5998 111.5 17.4002 111.5 17.2002V1C111.5 0.733333 111.6 0.533236 111.8 0.399902C111.933 0.266569 112.133 0.200195 112.4 0.200195H118.2C119.667 0.200195 121.033 0.566471 122.3 1.2998C123.633 2.03314 124.667 3.06657 125.4 4.3999C126.2 5.73324 126.6 7.3001 126.6 9.1001C126.6 10.7668 126.267 12.2668 125.6 13.6001C124.867 14.9334 123.867 15.9998 122.6 16.7998C121.4 17.5998 119.933 18 118.2 18ZM118.2 1.7998H113.2V16.2998H118.2C119.6 16.2998 120.8 15.9999 121.8 15.3999C122.8 14.7332 123.567 13.8335 124.1 12.7002C124.7 11.6335 125 10.4334 125 9.1001C125 7.7001 124.667 6.43314 124 5.2998C123.4 4.23314 122.6 3.3998 121.6 2.7998C120.533 2.13314 119.4 1.7998 118.2 1.7998ZM140.8 17.7002C140.267 17.1669 139.867 16.5331 139.6 15.7998C138.867 16.4665 138.033 16.9999 137.1 17.3999C136.233 17.7999 135.267 18 134.2 18C133.2 18 132.4 17.7999 131.8 17.3999C131.2 17.0666 130.767 16.6 130.5 16C130.3 15.4667 130.2 14.9667 130.2 14.5C130.2 13.9667 130.267 13.4332 130.4 12.8999C130.6 12.4332 130.9 12.0001 131.3 11.6001C131.9 11.0668 132.667 10.6331 133.6 10.2998C134.533 9.96647 135.667 9.7998 137 9.7998C137.733 9.7998 138.5 9.83324 139.3 9.8999C139.167 8.8999 138.833 8.1 138.3 7.5C137.7 6.9 136.833 6.6001 135.7 6.6001C135.233 6.6001 134.767 6.63353 134.3 6.7002C133.833 6.76686 133.467 6.86667 133.2 7C132.933 7.06667 132.733 7.1001 132.6 7.1001C132.4 7.1001 132.2 7.03324 132 6.8999C131.8 6.6999 131.7 6.4998 131.7 6.2998C131.7 5.8998 131.9 5.63333 132.3 5.5C132.7 5.36667 133.2 5.23343 133.8 5.1001C134.467 4.96676 135.1 4.8999 135.7 4.8999C137.5 4.8999 138.833 5.3999 139.7 6.3999C140.567 7.3999 141 8.6998 141 10.2998V13.3999C141 14.1332 141.067 14.7665 141.2 15.2998C141.4 15.7665 141.667 16.2001 142 16.6001C142.133 16.7334 142.2 16.9001 142.2 17.1001C142.2 17.3668 142.1 17.5669 141.9 17.7002C141.767 17.9002 141.6 18 141.4 18C141.133 18 140.933 17.9002 140.8 17.7002ZM134.2 16.2998C135.2 16.2998 136.133 16.1002 137 15.7002C137.867 15.2335 138.633 14.5669 139.3 13.7002V11.5C138.5 11.4333 137.733 11.3999 137 11.3999C134.867 11.3999 133.367 11.8335 132.5 12.7002C132.233 12.9669 132.067 13.2668 132 13.6001C131.867 13.8668 131.8 14.1667 131.8 14.5C131.8 14.9 132 15.3002 132.4 15.7002C132.8 16.1002 133.4 16.2998 134.2 16.2998ZM156.7 18C156.5 18 156.3 17.9331 156.1 17.7998C155.967 17.5998 155.9 17.4002 155.9 17.2002V10.5C155.9 9.1 155.633 8.1 155.1 7.5C154.567 6.9 153.867 6.6001 153 6.6001C152.067 6.6001 151.167 6.86657 150.3 7.3999C149.5 7.86657 148.733 8.46686 148 9.2002V17.2002C148 17.4002 147.933 17.5998 147.8 17.7998C147.6 17.9331 147.4 18 147.2 18C146.933 18 146.733 17.9331 146.6 17.7998C146.4 17.5998 146.3 17.4002 146.3 17.2002V5.7998C146.3 5.53314 146.4 5.33353 146.6 5.2002C146.733 5.0002 146.933 4.8999 147.2 4.8999C147.4 4.8999 147.6 5.0002 147.8 5.2002C147.933 5.33353 148 5.53314 148 5.7998V7C148.733 6.4 149.533 5.9 150.4 5.5C151.2 5.1 152.067 4.8999 153 4.8999C153.867 4.8999 154.633 5.06657 155.3 5.3999C155.967 5.73324 156.5 6.33353 156.9 7.2002C157.367 8.0002 157.6 9.1 157.6 10.5V17.2002C157.6 17.4002 157.5 17.5998 157.3 17.7998C157.167 17.9331 156.967 18 156.7 18ZM13.9 42.3999C12.8334 41.7999 11.4667 41.5 9.80005 41.5C8.46672 41.5 7.23331 41.8333 6.09998 42.5C4.96664 43.1667 4.06669 44.0669 3.40002 45.2002C2.73336 46.3335 2.40002 47.6669 2.40002 49.2002C2.40002 50.6002 2.70005 51.8667 3.30005 53C3.90005 54.1333 4.76669 55.0335 5.90002 55.7002C7.03336 56.3002 8.4 56.6001 10 56.6001C10.8 56.6001 11.5333 56.5332 12.2 56.3999C12.9333 56.2666 13.5666 56.0335 14.1 55.7002C14.2333 55.6335 14.3667 55.6001 14.5 55.6001C14.7667 55.6001 14.9666 55.6999 15.1 55.8999C15.2333 56.0332 15.3 56.2333 15.3 56.5C15.3 56.8333 15.1667 57.0669 14.9 57.2002C14.2334 57.5335 13.4666 57.8 12.6 58C11.8 58.2 10.9333 58.2998 10 58.2998C8.06667 58.2998 6.4 57.9001 5 57.1001C3.6 56.3001 2.53338 55.1998 1.80005 53.7998C1.06672 52.4665 0.699951 50.9335 0.699951 49.2002C0.699951 47.3335 1.13333 45.6998 2 44.2998C2.8 42.8998 3.90005 41.8 5.30005 41C6.70005 40.2667 8.20005 39.8999 9.80005 39.8999C11.8 39.8999 13.4333 40.2332 14.7 40.8999C15.0333 41.0999 15.2 41.3669 15.2 41.7002C15.2 41.9002 15.1 42.0669 14.9 42.2002C14.7667 42.4002 14.5667 42.5 14.3 42.5C14.1667 42.5 14.0334 42.4666 13.9 42.3999ZM25.8 44.7998C27.1334 44.7998 28.3 45.1002 29.3 45.7002C30.3 46.3002 31.0666 47.1335 31.6 48.2002C32.1333 49.2002 32.4 50.3334 32.4 51.6001C32.4 52.8668 32.1333 53.9666 31.6 54.8999C31.0666 55.8999 30.3 56.6998 29.3 57.2998C28.3 57.8331 27.1334 58.1001 25.8 58.1001C24.4667 58.1001 23.3 57.8331 22.3 57.2998C21.3 56.6998 20.5 55.8999 19.9 54.8999C19.3667 53.8999 19.1 52.8001 19.1 51.6001C19.1 50.3334 19.3667 49.2002 19.9 48.2002C20.4334 47.1335 21.2 46.3002 22.2 45.7002C23.2 45.1002 24.4 44.7998 25.8 44.7998ZM25.8 46.5C24.7334 46.5 23.8333 46.7335 23.1 47.2002C22.3666 47.6669 21.8 48.2667 21.4 49C21 49.8 20.8 50.6668 20.8 51.6001C20.8 52.9334 21.2333 54.1001 22.1 55.1001C23.0333 56.0334 24.2667 56.5 25.8 56.5C27.2667 56.5 28.4667 56.0334 29.4 55.1001C30.2667 54.1668 30.7 53.0001 30.7 51.6001C30.7 50.6668 30.5 49.8 30.1 49C29.7 48.2667 29.1334 47.6669 28.4 47.2002C27.6667 46.7335 26.8 46.5 25.8 46.5ZM55.8 58C55.5334 58 55.3333 57.9331 55.2 57.7998C55 57.5998 54.9 57.4002 54.9 57.2002V50.2002C54.9 48.8669 54.6333 47.9332 54.1 47.3999C53.6333 46.8666 52.9666 46.6001 52.1 46.6001C51.3 46.6001 50.5 46.8331 49.7 47.2998C48.9666 47.7665 48.2666 48.3668 47.6 49.1001V57.2002C47.6 57.4002 47.5334 57.5998 47.4 57.7998C47.2 57.9331 47 58 46.8 58C46.5334 58 46.3333 57.9331 46.2 57.7998C46 57.5998 45.9 57.4002 45.9 57.2002V50.2002C45.9 48.8669 45.6333 47.9332 45.1 47.3999C44.6333 46.8666 43.9666 46.6001 43.1 46.6001C42.3 46.6001 41.5 46.8666 40.7 47.3999C39.9 47.8666 39.1667 48.4669 38.5 49.2002V57.2002C38.5 57.4002 38.4334 57.5998 38.3 57.7998C38.1667 57.9331 37.9666 58 37.7 58C37.5 58 37.3 57.9331 37.1 57.7998C36.9666 57.5998 36.9 57.4002 36.9 57.2002V45.7998C36.9 45.5331 36.9666 45.3335 37.1 45.2002C37.3 45.0002 37.5 44.8999 37.7 44.8999C37.9666 44.8999 38.1667 45.0002 38.3 45.2002C38.4334 45.3335 38.5 45.5331 38.5 45.7998V46.8999C39.2333 46.2999 40 45.8333 40.8 45.5C41.5334 45.1 42.3 44.8999 43.1 44.8999C43.9666 44.8999 44.7667 45.0666 45.5 45.3999C46.2333 45.7332 46.7666 46.3335 47.1 47.2002C47.9 46.5335 48.7 46.0001 49.5 45.6001C50.3667 45.1334 51.2333 44.8999 52.1 44.8999C52.9666 44.8999 53.7334 45.0666 54.4 45.3999C55.0667 45.6666 55.6 46.1666 56 46.8999C56.4 47.6332 56.6 48.7335 56.6 50.2002V57.2002C56.6 57.4002 56.5334 57.5998 56.4 57.7998C56.2 57.9331 56 58 55.8 58ZM80.8 58C80.6 58 80.4 57.9331 80.2 57.7998C80.0666 57.5998 80 57.4002 80 57.2002V50.2002C80 48.8669 79.7333 47.9332 79.2 47.3999C78.6666 46.8666 78 46.6001 77.2 46.6001C76.4 46.6001 75.6 46.8331 74.8 47.2998C74 47.7665 73.3 48.3668 72.7 49.1001V57.2002C72.7 57.4002 72.6 57.5998 72.4 57.7998C72.2667 57.9331 72.0667 58 71.8 58C71.6 58 71.4 57.9331 71.2 57.7998C71.0666 57.5998 71 57.4002 71 57.2002V50.2002C71 48.8669 70.7333 47.9332 70.2 47.3999C69.6666 46.8666 69 46.6001 68.2 46.6001C67.4 46.6001 66.6 46.8666 65.8 47.3999C65 47.8666 64.2666 48.4669 63.6 49.2002V57.2002C63.6 57.4002 63.5334 57.5998 63.4 57.7998C63.2 57.9331 63 58 62.8 58C62.5334 58 62.3333 57.9331 62.2 57.7998C62 57.5998 61.9 57.4002 61.9 57.2002V45.7998C61.9 45.5331 62 45.3335 62.2 45.2002C62.3333 45.0002 62.5334 44.8999 62.8 44.8999C63 44.8999 63.2 45.0002 63.4 45.2002C63.5334 45.3335 63.6 45.5331 63.6 45.7998V46.8999C64.3333 46.2999 65.0667 45.8333 65.8 45.5C66.6 45.1 67.4 44.8999 68.2 44.8999C69.0666 44.8999 69.8666 45.0666 70.6 45.3999C71.2666 45.7332 71.8 46.3335 72.2 47.2002C72.9333 46.5335 73.7333 46.0001 74.6 45.6001C75.4666 45.1334 76.3333 44.8999 77.2 44.8999C78 44.8999 78.7334 45.0666 79.4 45.3999C80.0667 45.6666 80.6 46.1666 81 46.8999C81.4667 47.6332 81.7 48.7335 81.7 50.2002V57.2002C81.7 57.4002 81.6 57.5998 81.4 57.7998C81.2667 57.9331 81.0667 58 80.8 58ZM97.1 58C96.8333 58 96.6333 57.9331 96.5 57.7998C96.3 57.5998 96.2 57.4002 96.2 57.2002V55.7002C95.4666 56.3669 94.6667 56.9332 93.8 57.3999C92.9334 57.7999 92.0666 58 91.2 58C90.4 58 89.6334 57.8333 88.9 57.5C88.2334 57.1667 87.7 56.5998 87.3 55.7998C86.9 54.9998 86.7 53.8666 86.7 52.3999V45.7998C86.7 45.5331 86.7667 45.3335 86.9 45.2002C87.1 45.0002 87.3 44.8999 87.5 44.8999C87.7667 44.8999 87.9666 45.0002 88.1 45.2002C88.2333 45.3335 88.3 45.5331 88.3 45.7998V52.3999C88.3 53.7999 88.5666 54.7999 89.1 55.3999C89.6333 55.9999 90.3333 56.2998 91.2 56.2998C92.1333 56.2998 93.0334 56.0333 93.9 55.5C94.8334 54.9 95.6 54.1665 96.2 53.2998V45.7998C96.2 45.5331 96.3 45.3335 96.5 45.2002C96.6333 45.0002 96.8333 44.8999 97.1 44.8999C97.3 44.8999 97.5 45.0002 97.7 45.2002C97.8333 45.3335 97.9 45.5331 97.9 45.7998V57.2002C97.9 57.4002 97.8333 57.5998 97.7 57.7998C97.5 57.9331 97.3 58 97.1 58ZM114 58C113.733 58 113.533 57.9331 113.4 57.7998C113.2 57.5998 113.1 57.4002 113.1 57.2002V50.5C113.1 49.1 112.833 48.1 112.3 47.5C111.833 46.9 111.133 46.6001 110.2 46.6001C109.267 46.6001 108.4 46.8666 107.6 47.3999C106.733 47.8666 105.933 48.4669 105.2 49.2002V57.2002C105.2 57.4002 105.133 57.5998 105 57.7998C104.867 57.9331 104.667 58 104.4 58C104.2 58 104 57.9331 103.8 57.7998C103.667 57.5998 103.6 57.4002 103.6 57.2002V45.7998C103.6 45.5331 103.667 45.3335 103.8 45.2002C104 45.0002 104.2 44.8999 104.4 44.8999C104.667 44.8999 104.867 45.0002 105 45.2002C105.133 45.3335 105.2 45.5331 105.2 45.7998V47C106 46.4 106.8 45.9 107.6 45.5C108.4 45.1 109.267 44.8999 110.2 44.8999C111.067 44.8999 111.833 45.0666 112.5 45.3999C113.233 45.7332 113.8 46.3335 114.2 47.2002C114.6 48.0002 114.8 49.1 114.8 50.5V57.2002C114.8 57.4002 114.733 57.5998 114.6 57.7998C114.4 57.9331 114.2 58 114 58ZM121.1 38.1001C121.5 38.1001 121.833 38.2668 122.1 38.6001C122.367 38.8668 122.5 39.2665 122.5 39.7998C122.5 40.2665 122.367 40.6332 122.1 40.8999C121.833 41.1666 121.533 41.2998 121.2 41.2998C120.8 41.2998 120.433 41.1666 120.1 40.8999C119.833 40.6332 119.7 40.2665 119.7 39.7998C119.7 39.2665 119.833 38.8668 120.1 38.6001C120.367 38.2668 120.7 38.1001 121.1 38.1001ZM120.3 57.2002V45.7998C120.3 45.5331 120.4 45.3335 120.6 45.2002C120.733 45.0002 120.933 44.8999 121.2 44.8999C121.4 44.8999 121.6 45.0002 121.8 45.2002C121.933 45.3335 122 45.5331 122 45.7998V57.2002C122 57.4002 121.933 57.5998 121.8 57.7998C121.6 57.9331 121.4 58 121.2 58C120.933 58 120.733 57.9331 120.6 57.7998C120.4 57.5998 120.3 57.4002 120.3 57.2002ZM134.3 58C132.3 58 130.867 57.5669 130 56.7002C129.133 55.8335 128.7 54.6998 128.7 53.2998V46.6001H126.6C126.333 46.6001 126.133 46.5332 126 46.3999C125.8 46.1999 125.7 45.9998 125.7 45.7998C125.7 45.5331 125.8 45.3335 126 45.2002C126.133 45.0002 126.333 44.8999 126.6 44.8999H128.7V41.6001C128.7 41.3334 128.767 41.1333 128.9 41C129.1 40.8 129.3 40.7002 129.5 40.7002C129.767 40.7002 129.967 40.8 130.1 41C130.233 41.1333 130.3 41.3334 130.3 41.6001V44.8999H134.8C135 44.8999 135.2 45.0002 135.4 45.2002C135.533 45.3335 135.6 45.5331 135.6 45.7998C135.6 45.9998 135.533 46.1999 135.4 46.3999C135.2 46.5332 135 46.6001 134.8 46.6001H130.3V53.2998C130.3 55.2998 131.633 56.2998 134.3 56.2998C134.567 56.2998 134.767 56.4001 134.9 56.6001C135.1 56.7334 135.2 56.9335 135.2 57.2002C135.2 57.4002 135.1 57.5998 134.9 57.7998C134.767 57.9331 134.567 58 134.3 58ZM139.3 63.7998C139.1 63.7998 138.9 63.7334 138.7 63.6001C138.5 63.4001 138.4 63.2 138.4 63C138.4 62.6667 138.567 62.4002 138.9 62.2002C139.833 61.6669 140.733 61.0331 141.6 60.2998C142.467 59.5665 143.3 58.5335 144.1 57.2002C143.233 55.8669 142.333 54.3334 141.4 52.6001C140.467 50.8001 139.633 48.9668 138.9 47.1001C138.767 46.5668 138.667 46.2334 138.6 46.1001C138.533 45.9001 138.5 45.7669 138.5 45.7002C138.5 45.5002 138.567 45.3335 138.7 45.2002C138.9 45.0002 139.1 44.8999 139.3 44.8999C139.5 44.8999 139.667 44.9668 139.8 45.1001C139.933 45.1668 140.033 45.3 140.1 45.5C140.9 47.6333 141.733 49.5335 142.6 51.2002C143.467 52.8669 144.267 54.3334 145 55.6001C145.533 54.6001 146.067 53.5332 146.6 52.3999C147.133 51.2666 147.633 50.1333 148.1 49C148.567 47.8 148.933 46.6333 149.2 45.5C149.333 45.1 149.6 44.8999 150 44.8999C150.267 44.8999 150.467 45.0002 150.6 45.2002C150.8 45.3335 150.9 45.5331 150.9 45.7998C150.9 45.8665 150.833 46.0331 150.7 46.2998C150.633 46.5665 150.567 46.8 150.5 47C150.233 47.9333 149.833 49.0331 149.3 50.2998C148.767 51.5665 148.2 52.8334 147.6 54.1001C147.067 55.3668 146.5 56.5334 145.9 57.6001C144.9 59.2668 143.9 60.5332 142.9 61.3999C141.833 62.2666 140.767 63.0335 139.7 63.7002C139.567 63.7669 139.433 63.7998 139.3 63.7998ZM174.1 42.3999C173.567 42.1332 172.967 41.9331 172.3 41.7998C171.7 41.6665 170.9 41.6001 169.9 41.6001C168.767 41.6001 167.867 41.9 167.2 42.5C166.533 43.0333 166.2 43.6666 166.2 44.3999C166.2 45.1332 166.5 45.7665 167.1 46.2998C167.7 46.8998 168.9 47.3998 170.7 47.7998C172.3 48.1998 173.533 48.6669 174.4 49.2002C175.333 49.7335 175.967 50.3668 176.3 51.1001C176.633 51.7668 176.8 52.5332 176.8 53.3999C176.8 54.1999 176.6 54.9998 176.2 55.7998C175.8 56.5331 175.133 57.1334 174.2 57.6001C173.267 58.0668 172.033 58.2998 170.5 58.2998C168.367 58.2998 166.367 57.7998 164.5 56.7998C164.233 56.5998 164.1 56.3333 164.1 56C164.1 55.8 164.167 55.6333 164.3 55.5C164.433 55.3 164.633 55.2002 164.9 55.2002C165.033 55.2002 165.167 55.2331 165.3 55.2998C166.9 56.1665 168.633 56.6001 170.5 56.6001C172.033 56.6001 173.2 56.3002 174 55.7002C174.8 55.0335 175.2 54.2666 175.2 53.3999C175.2 52.4666 174.8 51.7001 174 51.1001C173.267 50.4334 172.067 49.9 170.4 49.5C168.8 49.1 167.567 48.6334 166.7 48.1001C165.9 47.6334 165.333 47.0666 165 46.3999C164.667 45.7332 164.5 45.0331 164.5 44.2998C164.5 43.5665 164.7 42.8669 165.1 42.2002C165.5 41.5335 166.1 41.0001 166.9 40.6001C167.7 40.2001 168.7 40 169.9 40C171.1 40 172.067 40.0998 172.8 40.2998C173.533 40.4331 174.333 40.6667 175.2 41C175.533 41.1333 175.7 41.3998 175.7 41.7998C175.7 41.9998 175.6 42.1999 175.4 42.3999C175.267 42.5332 175.1 42.6001 174.9 42.6001C174.833 42.6001 174.767 42.6001 174.7 42.6001C174.567 42.5334 174.367 42.4666 174.1 42.3999ZM191.8 58C191.6 58 191.4 57.9331 191.2 57.7998C191.067 57.5998 191 57.4002 191 57.2002V55.7002C190.267 56.3669 189.467 56.9332 188.6 57.3999C187.733 57.7999 186.867 58 186 58C185.2 58 184.433 57.8333 183.7 57.5C183.033 57.1667 182.467 56.5998 182 55.7998C181.6 54.9998 181.4 53.8666 181.4 52.3999V45.7998C181.4 45.5331 181.5 45.3335 181.7 45.2002C181.833 45.0002 182.033 44.8999 182.3 44.8999C182.5 44.8999 182.7 45.0002 182.9 45.2002C183.033 45.3335 183.1 45.5331 183.1 45.7998V52.3999C183.1 53.7999 183.367 54.7999 183.9 55.3999C184.433 55.9999 185.133 56.2998 186 56.2998C186.933 56.2998 187.833 56.0333 188.7 55.5C189.633 54.9 190.4 54.1665 191 53.2998V45.7998C191 45.5331 191.067 45.3335 191.2 45.2002C191.4 45.0002 191.6 44.8999 191.8 44.8999C192.067 44.8999 192.267 45.0002 192.4 45.2002C192.6 45.3335 192.7 45.5331 192.7 45.7998V57.2002C192.7 57.4002 192.6 57.5998 192.4 57.7998C192.267 57.9331 192.067 58 191.8 58ZM200 56.6001V63.5C200 63.7667 199.933 63.9668 199.8 64.1001C199.6 64.3001 199.4 64.3999 199.2 64.3999C198.933 64.3999 198.733 64.3001 198.6 64.1001C198.4 63.9668 198.3 63.7667 198.3 63.5V45.7998C198.3 45.5331 198.4 45.3335 198.6 45.2002C198.733 45.0002 198.933 44.8999 199.2 44.8999C199.4 44.8999 199.6 45.0002 199.8 45.2002C199.933 45.3335 200 45.5331 200 45.7998V47.1001C200.733 46.4334 201.467 45.9 202.2 45.5C203 45.1 203.833 44.8999 204.7 44.8999C205.767 44.8999 206.733 45.1669 207.6 45.7002C208.533 46.1669 209.267 46.8999 209.8 47.8999C210.4 48.8332 210.7 50.0333 210.7 51.5C210.7 52.7 210.433 53.7998 209.9 54.7998C209.367 55.7998 208.6 56.6002 207.6 57.2002C206.667 57.7335 205.567 58 204.3 58C203.567 58 202.833 57.8668 202.1 57.6001C201.367 57.4001 200.667 57.0668 200 56.6001ZM204.3 56.2998C205.7 56.2998 206.833 55.8332 207.7 54.8999C208.567 53.9666 209 52.8333 209 51.5C209 49.9 208.567 48.6999 207.7 47.8999C206.9 47.0332 205.9 46.6001 204.7 46.6001C203.767 46.6001 202.9 46.8666 202.1 47.3999C201.367 47.9332 200.667 48.6668 200 49.6001V54.6001C200.667 55.1334 201.367 55.5666 202.1 55.8999C202.833 56.1666 203.567 56.2998 204.3 56.2998ZM216.8 56.6001V63.5C216.8 63.7667 216.7 63.9668 216.5 64.1001C216.367 64.3001 216.167 64.3999 215.9 64.3999C215.7 64.3999 215.5 64.3001 215.3 64.1001C215.167 63.9668 215.1 63.7667 215.1 63.5V45.7998C215.1 45.5331 215.167 45.3335 215.3 45.2002C215.5 45.0002 215.7 44.8999 215.9 44.8999C216.167 44.8999 216.367 45.0002 216.5 45.2002C216.7 45.3335 216.8 45.5331 216.8 45.7998V47.1001C217.467 46.4334 218.2 45.9 219 45.5C219.8 45.1 220.633 44.8999 221.5 44.8999C222.567 44.8999 223.533 45.1669 224.4 45.7002C225.333 46.1669 226.067 46.8999 226.6 47.8999C227.133 48.8332 227.4 50.0333 227.4 51.5C227.4 52.7 227.133 53.7998 226.6 54.7998C226.067 55.7998 225.333 56.6002 224.4 57.2002C223.467 57.7335 222.367 58 221.1 58C220.367 58 219.633 57.8668 218.9 57.6001C218.167 57.4001 217.467 57.0668 216.8 56.6001ZM221.1 56.2998C222.5 56.2998 223.633 55.8332 224.5 54.8999C225.367 53.9666 225.8 52.8333 225.8 51.5C225.8 49.9 225.367 48.6999 224.5 47.8999C223.633 47.0332 222.633 46.6001 221.5 46.6001C220.567 46.6001 219.7 46.8666 218.9 47.3999C218.1 47.9332 217.4 48.6668 216.8 49.6001V54.6001C217.4 55.1334 218.067 55.5666 218.8 55.8999C219.6 56.1666 220.367 56.2998 221.1 56.2998ZM237.4 44.7998C238.8 44.7998 239.967 45.1002 240.9 45.7002C241.9 46.3002 242.667 47.1335 243.2 48.2002C243.8 49.2002 244.1 50.3334 244.1 51.6001C244.1 52.8668 243.8 53.9666 243.2 54.8999C242.667 55.8999 241.9 56.6998 240.9 57.2998C239.967 57.8331 238.8 58.1001 237.4 58.1001C236.067 58.1001 234.9 57.8331 233.9 57.2998C232.9 56.6998 232.133 55.8999 231.6 54.8999C231.067 53.8999 230.8 52.8001 230.8 51.6001C230.8 50.3334 231.067 49.2002 231.6 48.2002C232.133 47.1335 232.9 46.3002 233.9 45.7002C234.9 45.1002 236.067 44.7998 237.4 44.7998ZM237.4 46.5C236.4 46.5 235.533 46.7335 234.8 47.2002C234.067 47.6669 233.5 48.2667 233.1 49C232.7 49.8 232.5 50.6668 232.5 51.6001C232.5 52.9334 232.933 54.1001 233.8 55.1001C234.733 56.0334 235.933 56.5 237.4 56.5C238.933 56.5 240.133 56.0334 241 55.1001C241.933 54.1668 242.4 53.0001 242.4 51.6001C242.4 50.6668 242.2 49.8 241.8 49C241.4 48.2667 240.833 47.6669 240.1 47.2002C239.367 46.7335 238.467 46.5 237.4 46.5ZM249.4 58C249.133 58 248.933 57.9331 248.8 57.7998C248.6 57.5998 248.5 57.4002 248.5 57.2002V45.7998C248.5 45.5331 248.6 45.3335 248.8 45.2002C248.933 45.0002 249.133 44.8999 249.4 44.8999C249.6 44.8999 249.8 45.0002 250 45.2002C250.133 45.3335 250.2 45.5331 250.2 45.7998V47.7002C251.067 46.8335 252 46.1669 253 45.7002C253.933 45.2335 254.867 45 255.8 45C256.067 45 256.267 45.0669 256.4 45.2002C256.533 45.3335 256.6 45.5002 256.6 45.7002C256.6 46.2335 256.367 46.5334 255.9 46.6001C254.567 46.7334 253.467 47.1331 252.6 47.7998C251.733 48.4665 250.933 49.3332 250.2 50.3999V57.2002C250.2 57.4002 250.133 57.5998 250 57.7998C249.8 57.9331 249.6 58 249.4 58ZM267.2 58C265.133 58 263.667 57.5669 262.8 56.7002C261.933 55.8335 261.5 54.6998 261.5 53.2998V46.6001H259.4C259.2 46.6001 259 46.5332 258.8 46.3999C258.667 46.1999 258.6 45.9998 258.6 45.7998C258.6 45.5331 258.667 45.3335 258.8 45.2002C259 45.0002 259.2 44.8999 259.4 44.8999H261.5V41.6001C261.5 41.3334 261.6 41.1333 261.8 41C261.933 40.8 262.133 40.7002 262.4 40.7002C262.6 40.7002 262.8 40.8 263 41C263.133 41.1333 263.2 41.3334 263.2 41.6001V44.8999H267.6C267.867 44.8999 268.067 45.0002 268.2 45.2002C268.4 45.3335 268.5 45.5331 268.5 45.7998C268.5 45.9998 268.4 46.1999 268.2 46.3999C268.067 46.5332 267.867 46.6001 267.6 46.6001H263.2V53.2998C263.2 55.2998 264.533 56.2998 267.2 56.2998C267.467 56.2998 267.667 56.4001 267.8 56.6001C267.933 56.7334 268 56.9335 268 57.2002C268 57.4002 267.933 57.5998 267.8 57.7998C267.6 57.9331 267.4 58 267.2 58Z" fill="white"/>
</svg>
