<svg width="247" height="65" viewBox="0 0 247 65" fill="none" xmlns="http://www.w3.org/2000/svg">
<path d="M96.4001 17.2998C96.6667 17.3665 97.0001 17.4333 97.4001 17.5C97.7334 17.5667 98.1334 17.6001 98.6001 17.6001C99.6667 17.6001 100.467 17.2333 101 16.5C101.467 15.7667 101.7 14.7332 101.7 13.3999V2C101.7 1.73333 101.767 1.53324 101.9 1.3999C102.1 1.26657 102.3 1.2002 102.5 1.2002C102.767 1.2002 102.967 1.26657 103.1 1.3999C103.3 1.53324 103.4 1.73333 103.4 2V13.3999C103.4 15.4666 102.967 16.9666 102.1 17.8999C101.3 18.8332 100.133 19.2998 98.6001 19.2998C97.4667 19.2998 96.3667 19.0668 95.3 18.6001C95.1667 18.5334 95.0334 18.4331 94.9001 18.2998C94.8334 18.1665 94.8 17.9998 94.8 17.7998C94.8 17.5998 94.8667 17.4002 95.0001 17.2002C95.2001 17.0669 95.4001 17 95.6001 17C95.7334 17 95.8334 17.0334 95.9001 17.1001C96.0334 17.1001 96.2001 17.1665 96.4001 17.2998ZM114.5 5.7998C115.833 5.7998 117 6.1002 118 6.7002C119 7.3002 119.767 8.13353 120.3 9.2002C120.833 10.2002 121.1 11.3334 121.1 12.6001C121.1 13.8668 120.833 14.9666 120.3 15.8999C119.767 16.8999 119 17.6998 118 18.2998C117 18.8331 115.833 19.1001 114.5 19.1001C113.167 19.1001 112 18.8331 111 18.2998C110 17.6998 109.2 16.8999 108.6 15.8999C108.067 14.8999 107.8 13.8001 107.8 12.6001C107.8 11.3334 108.067 10.2002 108.6 9.2002C109.133 8.13353 109.9 7.3002 110.9 6.7002C111.9 6.1002 113.1 5.7998 114.5 5.7998ZM114.5 7.5C113.433 7.5 112.533 7.73353 111.8 8.2002C111.067 8.66686 110.5 9.26667 110.1 10C109.7 10.8 109.5 11.6668 109.5 12.6001C109.5 13.9334 109.933 15.1001 110.8 16.1001C111.733 17.0334 112.967 17.5 114.5 17.5C115.967 17.5 117.167 17.0334 118.1 16.1001C118.967 15.1668 119.4 14.0001 119.4 12.6001C119.4 11.6668 119.2 10.8 118.8 10C118.4 9.26667 117.833 8.66686 117.1 8.2002C116.367 7.73353 115.5 7.5 114.5 7.5ZM132.9 7.8999C132.7 7.83324 132.3 7.73343 131.7 7.6001C131.167 7.53343 130.6 7.5 130 7.5C128.867 7.5 128 7.7001 127.4 8.1001C126.8 8.43343 126.5 8.9 126.5 9.5C126.5 9.96667 126.767 10.3669 127.3 10.7002C127.767 10.9669 128.6 11.1665 129.8 11.2998L131.1 11.3999C132.233 11.5332 133.133 11.8002 133.8 12.2002C134.4 12.6002 134.833 13.0668 135.1 13.6001C135.367 14.1334 135.5 14.6998 135.5 15.2998C135.5 15.8998 135.367 16.5001 135.1 17.1001C134.767 17.7001 134.2 18.2001 133.4 18.6001C132.667 18.9334 131.6 19.1001 130.2 19.1001C129.333 19.1001 128.467 19.0332 127.6 18.8999C126.733 18.6999 125.933 18.4334 125.2 18.1001C124.867 17.9668 124.7 17.6998 124.7 17.2998C124.7 17.0998 124.767 16.9331 124.9 16.7998C125.1 16.5998 125.3 16.5 125.5 16.5C125.567 16.5 125.667 16.5334 125.8 16.6001C125.867 16.6668 126.067 16.7331 126.4 16.7998C126.8 16.9998 127.333 17.1665 128 17.2998C128.733 17.4331 129.467 17.5 130.2 17.5C131.4 17.5 132.3 17.2999 132.9 16.8999C133.567 16.4332 133.9 15.8998 133.9 15.2998C133.9 14.6998 133.667 14.1998 133.2 13.7998C132.733 13.3998 132 13.1668 131 13.1001L129.6 12.8999C128.333 12.7666 127.333 12.5335 126.6 12.2002C125.933 11.8002 125.467 11.3666 125.2 10.8999C125 10.4332 124.9 9.93324 124.9 9.3999C124.9 8.86657 125.033 8.33314 125.3 7.7998C125.633 7.26647 126.167 6.7999 126.9 6.3999C127.633 5.9999 128.667 5.7998 130 5.7998C130.733 5.7998 131.433 5.86667 132.1 6C132.767 6.06667 133.333 6.1999 133.8 6.3999C134 6.3999 134.167 6.5002 134.3 6.7002C134.367 6.83353 134.4 7.0002 134.4 7.2002C134.4 7.4002 134.333 7.5998 134.2 7.7998C134 7.93314 133.8 8 133.6 8C133.467 8 133.233 7.96657 132.9 7.8999ZM150.6 19C150.4 19 150.2 18.9331 150 18.7998C149.867 18.5998 149.8 18.4002 149.8 18.2002V11.5C149.8 10.1 149.533 9.1 149 8.5C148.467 7.9 147.767 7.6001 146.9 7.6001C145.967 7.6001 145.067 7.86657 144.2 8.3999C143.4 8.86657 142.633 9.46686 141.9 10.2002V18.2002C141.9 18.4002 141.833 18.5998 141.7 18.7998C141.5 18.9331 141.3 19 141.1 19C140.833 19 140.633 18.9331 140.5 18.7998C140.3 18.5998 140.2 18.4002 140.2 18.2002V1.1001C140.2 0.900098 140.3 0.7 140.5 0.5C140.633 0.366667 140.833 0.299805 141.1 0.299805C141.3 0.299805 141.5 0.366667 141.7 0.5C141.833 0.7 141.9 0.900098 141.9 1.1001V8C142.633 7.4 143.433 6.9 144.3 6.5C145.1 6.1 145.967 5.8999 146.9 5.8999C147.767 5.8999 148.533 6.06657 149.2 6.3999C149.867 6.73324 150.4 7.33353 150.8 8.2002C151.267 9.0002 151.5 10.1 151.5 11.5V18.2002C151.5 18.4002 151.4 18.5998 151.2 18.7998C151.067 18.9331 150.867 19 150.6 19ZM14.4001 59C14.2001 59 14 58.9331 13.8 58.7998C13.6667 58.5998 13.6001 58.4002 13.6001 58.2002V50.2998H2.40005V58.2002C2.40005 58.4002 2.33341 58.5998 2.20007 58.7998C2.06674 58.9331 1.86673 59 1.60007 59C1.40007 59 1.20006 58.9331 1.00006 58.7998C0.866728 58.5998 0.800049 58.4002 0.800049 58.2002V42C0.800049 41.7333 0.866728 41.5332 1.00006 41.3999C1.20006 41.2666 1.40007 41.2002 1.60007 41.2002C1.86673 41.2002 2.06674 41.2666 2.20007 41.3999C2.33341 41.5332 2.40005 41.7333 2.40005 42V48.7002H13.6001V42C13.6001 41.7333 13.6667 41.5332 13.8 41.3999C14 41.2666 14.2001 41.2002 14.4001 41.2002C14.6667 41.2002 14.8667 41.2666 15.0001 41.3999C15.2001 41.5332 15.3 41.7333 15.3 42V58.2002C15.3 58.4002 15.2001 58.5998 15.0001 58.7998C14.8667 58.9331 14.6667 59 14.4001 59ZM27.3 59C25.1667 59 23.4334 58.4331 22.1001 57.2998C20.8334 56.2331 20.2001 54.6668 20.2001 52.6001C20.2001 51.2668 20.4667 50.1001 21.0001 49.1001C21.6001 48.1001 22.3667 47.3331 23.3 46.7998C24.3 46.1998 25.4001 45.8999 26.6001 45.8999C27.7334 45.8999 28.7001 46.1334 29.5001 46.6001C30.3001 47.0668 30.9 47.6666 31.3 48.3999C31.7667 49.0666 32.0001 49.7332 32.0001 50.3999C32.0001 51.1999 31.7334 51.9 31.2001 52.5C30.7334 53.0333 29.8001 53.2998 28.4001 53.2998H21.9001C22.0334 54.6331 22.6001 55.6331 23.6001 56.2998C24.6001 56.9665 25.8334 57.2998 27.3 57.2998C27.8334 57.2998 28.3334 57.2669 28.8 57.2002C29.2667 57.1335 29.6 57.0332 29.8 56.8999C30.0667 56.8332 30.2334 56.7998 30.3 56.7998C30.3667 56.7331 30.4334 56.7002 30.5001 56.7002C30.7001 56.7002 30.9001 56.8 31.1001 57C31.2334 57.1333 31.3 57.3334 31.3 57.6001C31.3 57.9334 31.1334 58.1665 30.8 58.2998C30.3334 58.4998 29.8001 58.6665 29.2001 58.7998C28.5334 58.9331 27.9 59 27.3 59ZM26.6001 47.6001C25.4001 47.6001 24.3667 47.9669 23.5001 48.7002C22.6334 49.4335 22.1001 50.4335 21.9001 51.7002H28.4001C29.6667 51.7002 30.3 51.2666 30.3 50.3999C30.3 49.7332 29.9667 49.1 29.3 48.5C28.6334 47.9 27.7334 47.6001 26.6001 47.6001ZM45.8 58.7002C45.3334 58.1669 44.9667 57.5331 44.7001 56.7998C43.9001 57.4665 43.0667 57.9999 42.2001 58.3999C41.2667 58.7999 40.3 59 39.3 59C38.2334 59 37.4 58.7999 36.8 58.3999C36.2 58.0666 35.8001 57.6 35.6001 57C35.3334 56.4667 35.2001 55.9667 35.2001 55.5C35.2001 54.9667 35.3001 54.4332 35.5001 53.8999C35.7001 53.4332 36.0001 53.0001 36.4001 52.6001C36.9334 52.0668 37.6667 51.6331 38.6001 51.2998C39.5334 50.9665 40.6667 50.7998 42.0001 50.7998C42.7334 50.7998 43.5 50.8332 44.3 50.8999C44.2334 49.8999 43.9 49.1 43.3 48.5C42.7 47.9 41.8334 47.6001 40.7001 47.6001C40.2334 47.6001 39.7667 47.6335 39.3 47.7002C38.8334 47.7669 38.5 47.8667 38.3 48C37.9667 48.0667 37.7334 48.1001 37.6001 48.1001C37.4001 48.1001 37.2001 48.0332 37.0001 47.8999C36.8667 47.6999 36.8 47.4998 36.8 47.2998C36.8 46.8998 36.9667 46.6333 37.3 46.5C37.7 46.3667 38.2 46.2334 38.8 46.1001C39.4667 45.9668 40.1001 45.8999 40.7001 45.8999C42.5001 45.8999 43.8334 46.3999 44.7001 47.3999C45.5667 48.3999 46.0001 49.6998 46.0001 51.2998V54.3999C46.0001 55.1332 46.0667 55.7665 46.2001 56.2998C46.4001 56.7665 46.6667 57.2001 47.0001 57.6001C47.1334 57.7334 47.2001 57.9001 47.2001 58.1001C47.2001 58.3668 47.1334 58.5669 47.0001 58.7002C46.8001 58.9002 46.6001 59 46.4001 59C46.2001 59 46 58.9002 45.8 58.7002ZM39.3 57.2998C40.2334 57.2998 41.1334 57.1002 42.0001 56.7002C42.8667 56.2335 43.6334 55.5669 44.3 54.7002V52.5C43.5 52.4333 42.7334 52.3999 42.0001 52.3999C39.9334 52.3999 38.4667 52.8335 37.6001 53.7002C37.3334 53.9669 37.1334 54.2668 37.0001 54.6001C36.9334 54.8668 36.9001 55.1667 36.9001 55.5C36.9001 55.9 37.0667 56.3002 37.4001 56.7002C37.8001 57.1002 38.4334 57.2998 39.3 57.2998ZM61.7001 59C61.5001 59 61.3001 58.9331 61.1001 58.7998C60.9667 58.5998 60.9001 58.4002 60.9001 58.2002V56.7998C60.2334 57.4665 59.5001 57.9999 58.7001 58.3999C57.9001 58.7999 57.0001 59 56.0001 59C54.9334 59 53.9334 58.7335 53.0001 58.2002C52.1334 57.7335 51.4334 57.0334 50.9001 56.1001C50.4334 55.1001 50.2001 53.9669 50.2001 52.7002C50.2001 51.3669 50.4667 50.2002 51.0001 49.2002C51.6001 48.2002 52.3667 47.3998 53.3 46.7998C54.3 46.1998 55.4334 45.8999 56.7001 45.8999C57.5001 45.8999 58.2334 46.0331 58.9001 46.2998C59.5667 46.4998 60.2334 46.7668 60.9001 47.1001V41.1001C60.9001 40.9001 60.9667 40.7 61.1001 40.5C61.3001 40.3667 61.5001 40.2998 61.7001 40.2998C61.9667 40.2998 62.1667 40.3667 62.3 40.5C62.4334 40.7 62.5001 40.9001 62.5001 41.1001V58.2002C62.5001 58.4002 62.4334 58.5998 62.3 58.7998C62.1667 58.9331 61.9667 59 61.7001 59ZM56.0001 57.2998C57.1334 57.2998 58.0667 57.0333 58.8 56.5C59.6 55.9 60.3001 55.1335 60.9001 54.2002V49.1001C60.2334 48.6334 59.5667 48.2667 58.9001 48C58.3001 47.7333 57.5667 47.6001 56.7001 47.6001C55.7667 47.6001 54.9334 47.8331 54.2001 48.2998C53.4667 48.6998 52.9001 49.3001 52.5001 50.1001C52.0334 50.8334 51.8 51.7002 51.8 52.7002C51.8 54.1002 52.2001 55.2334 53.0001 56.1001C53.8001 56.9001 54.8001 57.2998 56.0001 57.2998ZM83.2001 45.7998C84.5334 45.7998 85.7001 46.1002 86.7001 46.7002C87.7001 47.3002 88.4667 48.1335 89.0001 49.2002C89.5334 50.2002 89.8 51.3334 89.8 52.6001C89.8 53.8668 89.5334 54.9666 89.0001 55.8999C88.4667 56.8999 87.7001 57.6998 86.7001 58.2998C85.7001 58.8331 84.5334 59.1001 83.2001 59.1001C81.8667 59.1001 80.7001 58.8331 79.7001 58.2998C78.7001 57.6998 77.9334 56.8999 77.4001 55.8999C76.8667 54.8999 76.6001 53.8001 76.6001 52.6001C76.6001 51.3334 76.8667 50.2002 77.4001 49.2002C77.9334 48.1335 78.7001 47.3002 79.7001 46.7002C80.7001 46.1002 81.8667 45.7998 83.2001 45.7998ZM83.2001 47.5C82.2001 47.5 81.3001 47.7335 80.5001 48.2002C79.7667 48.6669 79.2 49.2667 78.8 50C78.4 50.8 78.2001 51.6668 78.2001 52.6001C78.2001 53.9334 78.6667 55.1001 79.6001 56.1001C80.4667 57.0334 81.6667 57.5 83.2001 57.5C84.7334 57.5 85.9334 57.0334 86.8 56.1001C87.7334 55.1668 88.2001 54.0001 88.2001 52.6001C88.2001 51.6668 88.0001 50.8 87.6001 50C87.2001 49.2667 86.6 48.6669 85.8 48.2002C85.0667 47.7335 84.2001 47.5 83.2001 47.5ZM96.3 59C96.0334 59 95.8334 58.9331 95.7001 58.7998C95.5001 58.5998 95.4001 58.4002 95.4001 58.2002V47.6001H93.3C93.1 47.6001 92.9001 47.5332 92.7001 47.3999C92.5667 47.1999 92.5001 46.9998 92.5001 46.7998C92.5001 46.5331 92.5667 46.3335 92.7001 46.2002C92.9001 46.0002 93.1 45.8999 93.3 45.8999H95.4001V44.2998C95.4001 42.6998 95.9001 41.5002 96.9001 40.7002C97.8334 39.9002 99.1334 39.5 100.8 39.5C101.067 39.5 101.267 39.5669 101.4 39.7002C101.533 39.8335 101.6 40.0331 101.6 40.2998C101.6 40.4998 101.533 40.6999 101.4 40.8999C101.267 41.0332 101.067 41.1001 100.8 41.1001C99.4667 41.1001 98.5001 41.4 97.9001 42C97.3667 42.6 97.1001 43.3665 97.1001 44.2998V45.8999H100.9C101.1 45.8999 101.3 46.0002 101.5 46.2002C101.633 46.3335 101.7 46.5331 101.7 46.7998C101.7 46.9998 101.633 47.1999 101.5 47.3999C101.3 47.5332 101.1 47.6001 100.9 47.6001H97.1001V58.2002C97.1001 58.4002 97.0334 58.5998 96.9001 58.7998C96.7001 58.9331 96.5 59 96.3 59ZM135.8 59.1001C135.6 59.1001 135.433 59.0332 135.3 58.8999C135.1 58.7666 135 58.5665 135 58.2998C134.8 57.0331 134.6 55.6 134.4 54C134.133 52.4 133.867 50.7668 133.6 49.1001C133.267 47.3668 132.967 45.7001 132.7 44.1001C131.967 45.5668 131.2 47.1331 130.4 48.7998C129.667 50.3998 128.933 51.9667 128.2 53.5C127.533 55.0333 126.933 56.4999 126.4 57.8999C126.2 58.2332 125.933 58.3999 125.6 58.3999C125.2 58.3999 124.933 58.2667 124.8 58C124.2 56.6 123.5 55.1 122.7 53.5C121.9 51.9 121.133 50.2668 120.4 48.6001C119.6 47.0001 118.867 45.5001 118.2 44.1001C118.067 45.3001 117.9 46.5666 117.7 47.8999C117.5 49.1666 117.3 50.4665 117.1 51.7998C116.967 53.0665 116.833 54.2666 116.7 55.3999C116.567 56.5332 116.433 57.4998 116.3 58.2998C116.3 58.4998 116.2 58.6999 116 58.8999C115.867 59.0332 115.7 59.1001 115.5 59.1001C115.233 59.1001 115.033 58.9998 114.9 58.7998C114.767 58.6665 114.7 58.4669 114.7 58.2002C114.7 58.1335 114.733 57.8002 114.8 57.2002C114.867 56.4669 114.967 55.4669 115.1 54.2002C115.3 52.9335 115.5 51.5668 115.7 50.1001C115.9 48.5668 116.1 47.0668 116.3 45.6001C116.5 44.1334 116.7 42.8001 116.9 41.6001C116.967 41.4001 117.067 41.2334 117.2 41.1001C117.4 40.9668 117.6 40.8999 117.8 40.8999C118.067 40.8999 118.267 40.9668 118.4 41.1001C118.6 41.3668 118.767 41.6332 118.9 41.8999C119.567 43.1666 120.267 44.5668 121 46.1001C121.733 47.6334 122.5 49.2332 123.3 50.8999C124.1 52.4999 124.867 54.0333 125.6 55.5C126.2 54.0333 126.867 52.4999 127.6 50.8999C128.4 49.2332 129.167 47.5666 129.9 45.8999C130.7 44.2332 131.5 42.6998 132.3 41.2998C132.433 40.9665 132.667 40.7998 133 40.7998C133.2 40.7998 133.4 40.8667 133.6 41C133.8 41.1333 133.9 41.3 133.9 41.5C134.167 42.8333 134.433 44.2335 134.7 45.7002C134.967 47.1669 135.2 48.5666 135.4 49.8999C135.6 51.2999 135.767 52.5 135.9 53.5C136.1 54.5 136.233 55.2001 136.3 55.6001C136.433 56.6668 136.533 57.3669 136.6 57.7002C136.6 57.9669 136.6 58.1335 136.6 58.2002C136.6 58.4669 136.533 58.6665 136.4 58.7998C136.267 58.9998 136.067 59.1001 135.8 59.1001ZM151.4 58.7002C150.933 58.1669 150.567 57.5331 150.3 56.7998C149.567 57.4665 148.733 57.9999 147.8 58.3999C146.933 58.7999 145.967 59 144.9 59C143.9 59 143.1 58.7999 142.5 58.3999C141.9 58.0666 141.467 57.6 141.2 57C140.933 56.4667 140.8 55.9667 140.8 55.5C140.8 54.9667 140.9 54.4332 141.1 53.8999C141.3 53.4332 141.6 53.0001 142 52.6001C142.533 52.0668 143.267 51.6331 144.2 51.2998C145.133 50.9665 146.3 50.7998 147.7 50.7998C148.367 50.7998 149.1 50.8332 149.9 50.8999C149.833 49.8999 149.5 49.1 148.9 48.5C148.367 47.9 147.5 47.6001 146.3 47.6001C145.9 47.6001 145.467 47.6335 145 47.7002C144.533 47.7669 144.167 47.8667 143.9 48C143.633 48.0667 143.433 48.1001 143.3 48.1001C143.033 48.1001 142.833 48.0332 142.7 47.8999C142.5 47.6999 142.4 47.4998 142.4 47.2998C142.4 46.8998 142.6 46.6333 143 46.5C143.333 46.3667 143.833 46.2334 144.5 46.1001C145.1 45.9668 145.7 45.8999 146.3 45.8999C148.167 45.8999 149.5 46.3999 150.3 47.3999C151.167 48.3999 151.6 49.6998 151.6 51.2998V54.3999C151.6 55.1332 151.7 55.7665 151.9 56.2998C152.033 56.7665 152.267 57.2001 152.6 57.6001C152.8 57.7334 152.9 57.9001 152.9 58.1001C152.9 58.3668 152.8 58.5669 152.6 58.7002C152.467 58.9002 152.267 59 152 59C151.8 59 151.6 58.9002 151.4 58.7002ZM144.9 57.2998C145.833 57.2998 146.733 57.1002 147.6 56.7002C148.467 56.2335 149.267 55.5669 150 54.7002V52.5C149.133 52.4333 148.367 52.3999 147.7 52.3999C145.567 52.3999 144.067 52.8335 143.2 53.7002C142.933 53.9669 142.733 54.2668 142.6 54.6001C142.533 54.8668 142.5 55.1667 142.5 55.5C142.5 55.9 142.7 56.3002 143.1 56.7002C143.5 57.1002 144.1 57.2998 144.9 57.2998ZM157.8 59C157.6 59 157.4 58.9331 157.2 58.7998C157.067 58.5998 157 58.4002 157 58.2002V46.7998C157 46.5331 157.067 46.3335 157.2 46.2002C157.4 46.0002 157.6 45.8999 157.8 45.8999C158.067 45.8999 158.267 46.0002 158.4 46.2002C158.6 46.3335 158.7 46.5331 158.7 46.7998V48.7002C159.567 47.8335 160.467 47.1669 161.4 46.7002C162.4 46.2335 163.367 46 164.3 46C164.5 46 164.667 46.0669 164.8 46.2002C165 46.3335 165.1 46.5002 165.1 46.7002C165.1 47.2335 164.833 47.5334 164.3 47.6001C163.033 47.7334 161.967 48.1331 161.1 48.7998C160.167 49.4665 159.367 50.3332 158.7 51.3999V58.2002C158.7 58.4002 158.6 58.5998 158.4 58.7998C158.267 58.9331 158.067 59 157.8 59ZM178.9 59C178.567 59 178.333 58.9002 178.2 58.7002L173.3 51.7998L170.2 54.2998V58.2002C170.2 58.4002 170.133 58.5998 170 58.7998C169.8 58.9331 169.6 59 169.4 59C169.133 59 168.933 58.9331 168.8 58.7998C168.6 58.5998 168.5 58.4002 168.5 58.2002V41.1001C168.5 40.9001 168.6 40.7 168.8 40.5C168.933 40.3667 169.133 40.2998 169.4 40.2998C169.6 40.2998 169.8 40.3667 170 40.5C170.133 40.7 170.2 40.9001 170.2 41.1001V52.2002L177.9 46.1001C178.1 45.9668 178.267 45.8999 178.4 45.8999C178.667 45.8999 178.867 46.0002 179 46.2002C179.2 46.3335 179.3 46.5002 179.3 46.7002C179.3 47.0335 179.167 47.2666 178.9 47.3999L174.6 50.7998L179.5 57.7002C179.633 57.8335 179.7 58.0002 179.7 58.2002C179.7 58.4002 179.6 58.5998 179.4 58.7998C179.267 58.9331 179.1 59 178.9 59ZM189.9 59C187.767 59 186.033 58.4331 184.7 57.2998C183.433 56.2331 182.8 54.6668 182.8 52.6001C182.8 51.2668 183.1 50.1001 183.7 49.1001C184.233 48.1001 185 47.3331 186 46.7998C186.933 46.1998 188 45.8999 189.2 45.8999C190.4 45.8999 191.4 46.1334 192.2 46.6001C193 47.0668 193.6 47.6666 194 48.3999C194.4 49.0666 194.6 49.7332 194.6 50.3999C194.6 51.1999 194.333 51.9 193.8 52.5C193.333 53.0333 192.4 53.2998 191 53.2998H184.5C184.7 54.6331 185.267 55.6331 186.2 56.2998C187.2 56.9665 188.433 57.2998 189.9 57.2998C190.433 57.2998 190.933 57.2669 191.4 57.2002C191.867 57.1335 192.233 57.0332 192.5 56.8999C192.7 56.8332 192.833 56.7998 192.9 56.7998C193.033 56.7331 193.1 56.7002 193.1 56.7002C193.367 56.7002 193.567 56.8 193.7 57C193.9 57.1333 194 57.3334 194 57.6001C194 57.9334 193.8 58.1665 193.4 58.2998C192.933 58.4998 192.4 58.6665 191.8 58.7998C191.2 58.9331 190.567 59 189.9 59ZM189.2 47.6001C188 47.6001 186.967 47.9669 186.1 48.7002C185.233 49.4335 184.7 50.4335 184.5 51.7002H191.1C192.367 51.7002 193 51.2666 193 50.3999C193 49.7332 192.633 49.1 191.9 48.5C191.233 47.9 190.333 47.6001 189.2 47.6001ZM206.1 59C204.1 59 202.667 58.5669 201.8 57.7002C200.933 56.8335 200.5 55.6998 200.5 54.2998V47.6001H198.4C198.133 47.6001 197.933 47.5332 197.8 47.3999C197.6 47.1999 197.5 46.9998 197.5 46.7998C197.5 46.5331 197.6 46.3335 197.8 46.2002C197.933 46.0002 198.133 45.8999 198.4 45.8999H200.5V42.6001C200.5 42.3334 200.567 42.1333 200.7 42C200.9 41.8 201.1 41.7002 201.3 41.7002C201.567 41.7002 201.767 41.8 201.9 42C202.033 42.1333 202.1 42.3334 202.1 42.6001V45.8999H206.6C206.8 45.8999 207 46.0002 207.2 46.2002C207.333 46.3335 207.4 46.5331 207.4 46.7998C207.4 46.9998 207.333 47.1999 207.2 47.3999C207 47.5332 206.8 47.6001 206.6 47.6001H202.1V54.2998C202.1 56.2998 203.433 57.2998 206.1 57.2998C206.367 57.2998 206.567 57.4001 206.7 57.6001C206.9 57.7334 207 57.9335 207 58.2002C207 58.4002 206.9 58.5998 206.7 58.7998C206.567 58.9331 206.367 59 206.1 59ZM212.5 39.1001C212.833 39.1001 213.133 39.2668 213.4 39.6001C213.667 39.8668 213.8 40.2665 213.8 40.7998C213.8 41.2665 213.667 41.6332 213.4 41.8999C213.133 42.1666 212.833 42.2998 212.5 42.2998C212.1 42.2998 211.767 42.1666 211.5 41.8999C211.233 41.6332 211.1 41.2665 211.1 40.7998C211.1 40.2665 211.233 39.8668 211.5 39.6001C211.767 39.2668 212.1 39.1001 212.5 39.1001ZM211.7 58.2002V46.7998C211.7 46.5331 211.767 46.3335 211.9 46.2002C212.1 46.0002 212.3 45.8999 212.5 45.8999C212.767 45.8999 212.967 46.0002 213.1 46.2002C213.233 46.3335 213.3 46.5331 213.3 46.7998V58.2002C213.3 58.4002 213.233 58.5998 213.1 58.7998C212.967 58.9331 212.767 59 212.5 59C212.3 59 212.1 58.9331 211.9 58.7998C211.767 58.5998 211.7 58.4002 211.7 58.2002ZM229.6 59C229.4 59 229.2 58.9331 229 58.7998C228.867 58.5998 228.8 58.4002 228.8 58.2002V51.5C228.8 50.1 228.533 49.1 228 48.5C227.467 47.9 226.767 47.6001 225.9 47.6001C224.967 47.6001 224.067 47.8666 223.2 48.3999C222.333 48.8666 221.567 49.4669 220.9 50.2002V58.2002C220.9 58.4002 220.8 58.5998 220.6 58.7998C220.467 58.9331 220.267 59 220 59C219.8 59 219.6 58.9331 219.4 58.7998C219.267 58.5998 219.2 58.4002 219.2 58.2002V46.7998C219.2 46.5331 219.267 46.3335 219.4 46.2002C219.6 46.0002 219.8 45.8999 220 45.8999C220.267 45.8999 220.467 46.0002 220.6 46.2002C220.8 46.3335 220.9 46.5331 220.9 46.7998V48C221.633 47.4 222.4 46.9 223.2 46.5C224.067 46.1 224.967 45.8999 225.9 45.8999C226.7 45.8999 227.467 46.0666 228.2 46.3999C228.867 46.7332 229.4 47.3335 229.8 48.2002C230.2 49.0002 230.4 50.1 230.4 51.5V58.2002C230.4 58.4002 230.333 58.5998 230.2 58.7998C230.067 58.9331 229.867 59 229.6 59ZM238.3 65C238.1 65 237.9 64.9331 237.7 64.7998C237.567 64.5998 237.5 64.4002 237.5 64.2002C237.5 64.0002 237.567 63.8001 237.7 63.6001C237.9 63.4668 238.1 63.3999 238.3 63.3999C240.7 63.3999 242.433 62.7667 243.5 61.5C244.633 60.3 245.2 58.6668 245.2 56.6001V56.5C244.467 57.1667 243.667 57.7001 242.8 58.1001C241.933 58.4334 241.033 58.6001 240.1 58.6001C239.233 58.6001 238.367 58.4 237.5 58C236.633 57.6 235.933 56.9668 235.4 56.1001C234.867 55.2334 234.6 54.1331 234.6 52.7998C234.6 51.3998 234.9 50.1668 235.5 49.1001C236.167 48.1001 237 47.3331 238 46.7998C239.067 46.1998 240.167 45.8999 241.3 45.8999C242.033 45.8999 242.7 45.9668 243.3 46.1001C243.967 46.2334 244.6 46.4335 245.2 46.7002C245.267 46.4335 245.367 46.2334 245.5 46.1001C245.633 45.9668 245.8 45.8999 246 45.8999C246.267 45.8999 246.467 46.0002 246.6 46.2002C246.8 46.3335 246.9 46.5331 246.9 46.7998V56.6001C246.9 59.1334 246.2 61.1669 244.8 62.7002C243.467 64.2335 241.3 65 238.3 65ZM240.1 56.8999C241.1 56.8999 242.033 56.6669 242.9 56.2002C243.767 55.6669 244.533 54.9333 245.2 54V48.5C244.533 48.2333 243.9 47.9998 243.3 47.7998C242.7 47.6665 242.033 47.6001 241.3 47.6001C240.433 47.6001 239.6 47.8002 238.8 48.2002C238.067 48.6669 237.433 49.2667 236.9 50C236.433 50.8 236.2 51.7331 236.2 52.7998C236.2 53.7331 236.4 54.5001 236.8 55.1001C237.2 55.7668 237.7 56.2333 238.3 56.5C238.9 56.7667 239.5 56.8999 240.1 56.8999Z" fill="white"/>
</svg>
