<svg width="257" height="66" viewBox="0 0 257 66" fill="none" xmlns="http://www.w3.org/2000/svg">
<path d="M92.6 3.3999C91.5333 2.7999 90.1667 2.5 88.5 2.5C87.1667 2.5 85.9333 2.83333 84.8 3.5C83.6667 4.16667 82.7667 5.06662 82.1 6.19995C81.4333 7.33328 81.1 8.66662 81.1 10.2C81.1 11.6 81.4 12.8667 82 14C82.6 15.1333 83.4667 16.0333 84.6 16.7C85.7333 17.3 87.1 17.6001 88.7 17.6001C89.5 17.6001 90.2333 17.5332 90.9 17.3999C91.6333 17.2666 92.2667 17.0333 92.8 16.7C92.9333 16.6333 93.0667 16.6001 93.2 16.6001C93.4667 16.6001 93.6667 16.6999 93.8 16.8999C93.9333 17.0332 94 17.2333 94 17.5C94 17.8333 93.8667 18.0666 93.6 18.2C92.9333 18.5333 92.1667 18.8 91.3 19C90.5 19.2 89.6333 19.3 88.7 19.3C86.7667 19.3 85.1 18.9001 83.7 18.1001C82.3 17.3001 81.2333 16.2 80.5 14.8C79.7667 13.4667 79.4 11.9333 79.4 10.2C79.4 8.33328 79.8333 6.70005 80.7 5.30005C81.5 3.90005 82.6 2.8 84 2C85.4 1.26667 86.9 0.899902 88.5 0.899902C90.5 0.899902 92.1333 1.23324 93.4 1.8999C93.7333 2.0999 93.9 2.36662 93.9 2.69995C93.9 2.89995 93.8 3.06662 93.6 3.19995C93.4667 3.39995 93.2667 3.5 93 3.5C92.8667 3.5 92.7333 3.46657 92.6 3.3999ZM108.5 18.7C108.033 18.1666 107.667 17.5334 107.4 16.8C106.6 17.4667 105.767 17.9999 104.9 18.3999C103.967 18.7999 103 19 102 19C100.933 19 100.1 18.7999 99.5 18.3999C98.9 18.0666 98.5 17.6 98.3 17C98.0333 16.4667 97.9 15.9667 97.9 15.5C97.9 14.9667 98 14.4332 98.2 13.8999C98.4 13.4332 98.7 13.0001 99.1 12.6001C99.6333 12.0668 100.367 11.6334 101.3 11.3C102.233 10.9667 103.367 10.8 104.7 10.8C105.433 10.8 106.2 10.8332 107 10.8999C106.933 9.8999 106.6 9.1 106 8.5C105.4 7.9 104.533 7.6001 103.4 7.6001C102.933 7.6001 102.467 7.63328 102 7.69995C101.533 7.76662 101.2 7.86667 101 8C100.667 8.06667 100.433 8.1001 100.3 8.1001C100.1 8.1001 99.9 8.03324 99.7 7.8999C99.5667 7.6999 99.5 7.50005 99.5 7.30005C99.5 6.90005 99.6667 6.63333 100 6.5C100.4 6.36667 100.9 6.23343 101.5 6.1001C102.167 5.96676 102.8 5.8999 103.4 5.8999C105.2 5.8999 106.533 6.3999 107.4 7.3999C108.267 8.3999 108.7 9.70005 108.7 11.3V14.3999C108.7 15.1332 108.767 15.7667 108.9 16.3C109.1 16.7667 109.367 17.2001 109.7 17.6001C109.833 17.7334 109.9 17.9001 109.9 18.1001C109.9 18.3668 109.833 18.5666 109.7 18.7C109.5 18.9 109.3 19 109.1 19C108.9 19 108.7 18.9 108.5 18.7ZM102 17.3C102.933 17.3 103.833 17.1 104.7 16.7C105.567 16.2333 106.333 15.5666 107 14.7V12.5C106.2 12.4333 105.433 12.3999 104.7 12.3999C102.633 12.3999 101.167 12.8333 100.3 13.7C100.033 13.9666 99.8333 14.2668 99.7 14.6001C99.6333 14.8668 99.6 15.1667 99.6 15.5C99.6 15.9 99.7667 16.3 100.1 16.7C100.5 17.1 101.133 17.3 102 17.3ZM114.3 18.2V1.1001C114.3 0.900098 114.367 0.7 114.5 0.5C114.7 0.366667 114.9 0.300049 115.1 0.300049C115.367 0.300049 115.567 0.366667 115.7 0.5C115.833 0.7 115.9 0.900098 115.9 1.1001V18.2C115.9 18.4 115.833 18.6 115.7 18.8C115.567 18.9334 115.367 19 115.1 19C114.9 19 114.7 18.9334 114.5 18.8C114.367 18.6 114.3 18.4 114.3 18.2ZM122 18.2V1.1001C122 0.900098 122.067 0.7 122.2 0.5C122.4 0.366667 122.6 0.300049 122.8 0.300049C123.067 0.300049 123.267 0.366667 123.4 0.5C123.6 0.7 123.7 0.900098 123.7 1.1001V18.2C123.7 18.4 123.6 18.6 123.4 18.8C123.267 18.9334 123.067 19 122.8 19C122.6 19 122.4 18.9334 122.2 18.8C122.067 18.6 122 18.4 122 18.2ZM139.6 19C139.4 19 139.2 18.9334 139 18.8C138.867 18.6 138.8 18.4 138.8 18.2V16.7C138.067 17.3666 137.267 17.9332 136.4 18.3999C135.533 18.7999 134.667 19 133.8 19C132.933 19 132.167 18.8333 131.5 18.5C130.767 18.1667 130.2 17.6 129.8 16.8C129.4 16 129.2 14.8666 129.2 13.3999V6.80005C129.2 6.53338 129.267 6.33328 129.4 6.19995C129.6 5.99995 129.8 5.8999 130 5.8999C130.267 5.8999 130.467 5.99995 130.6 6.19995C130.8 6.33328 130.9 6.53338 130.9 6.80005V13.3999C130.9 14.7999 131.133 15.7999 131.6 16.3999C132.133 16.9999 132.867 17.3 133.8 17.3C134.667 17.3 135.567 17.0333 136.5 16.5C137.367 15.9 138.133 15.1667 138.8 14.3V6.80005C138.8 6.53338 138.867 6.33328 139 6.19995C139.2 5.99995 139.4 5.8999 139.6 5.8999C139.867 5.8999 140.067 5.99995 140.2 6.19995C140.333 6.33328 140.4 6.53338 140.4 6.80005V18.2C140.4 18.4 140.333 18.6 140.2 18.8C140.067 18.9334 139.867 19 139.6 19ZM165 19C164.8 19 164.6 18.9334 164.4 18.8C164.267 18.6 164.2 18.4 164.2 18.2V11.2C164.2 9.86662 163.933 8.93324 163.4 8.3999C162.867 7.86657 162.2 7.6001 161.4 7.6001C160.533 7.6001 159.733 7.83338 159 8.30005C158.2 8.76672 157.467 9.36676 156.8 10.1001V18.2C156.8 18.4 156.733 18.6 156.6 18.8C156.467 18.9334 156.267 19 156 19C155.8 19 155.6 18.9334 155.4 18.8C155.267 18.6 155.2 18.4 155.2 18.2V11.2C155.2 9.86662 154.933 8.93324 154.4 8.3999C153.867 7.86657 153.2 7.6001 152.4 7.6001C151.533 7.6001 150.7 7.86657 149.9 8.3999C149.1 8.86657 148.4 9.46662 147.8 10.2V18.2C147.8 18.4 147.7 18.6 147.5 18.8C147.367 18.9334 147.167 19 146.9 19C146.7 19 146.5 18.9334 146.3 18.8C146.167 18.6 146.1 18.4 146.1 18.2V6.80005C146.1 6.53338 146.167 6.33328 146.3 6.19995C146.5 5.99995 146.7 5.8999 146.9 5.8999C147.167 5.8999 147.367 5.99995 147.5 6.19995C147.7 6.33328 147.8 6.53338 147.8 6.80005V7.8999C148.467 7.2999 149.2 6.83333 150 6.5C150.8 6.1 151.6 5.8999 152.4 5.8999C153.267 5.8999 154.033 6.06657 154.7 6.3999C155.433 6.73324 156 7.33328 156.4 8.19995C157.133 7.53328 157.933 7.0001 158.8 6.6001C159.667 6.13343 160.533 5.8999 161.4 5.8999C162.2 5.8999 162.933 6.06657 163.6 6.3999C164.267 6.66657 164.8 7.16657 165.2 7.8999C165.6 8.63324 165.8 9.73328 165.8 11.2V18.2C165.8 18.4 165.733 18.6 165.6 18.8C165.467 18.9334 165.267 19 165 19ZM13.7 59C13.5 59 13.3 58.9334 13.1 58.8C12.9667 58.6 12.9 58.4 12.9 58.2V50.3H1.7V58.2C1.7 58.4 1.63333 58.6 1.5 58.8C1.3 58.9334 1.09999 59 0.899994 59C0.633327 59 0.433336 58.9334 0.300003 58.8C0.100003 58.6 0 58.4 0 58.2V42C0 41.7333 0.100003 41.5332 0.300003 41.3999C0.433336 41.2666 0.633327 41.2 0.899994 41.2C1.09999 41.2 1.3 41.2666 1.5 41.3999C1.63333 41.5332 1.7 41.7333 1.7 42V48.7H12.9V42C12.9 41.7333 12.9667 41.5332 13.1 41.3999C13.3 41.2666 13.5 41.2 13.7 41.2C13.9667 41.2 14.1667 41.2666 14.3 41.3999C14.4333 41.5332 14.5 41.7333 14.5 42V58.2C14.5 58.4 14.4333 58.6 14.3 58.8C14.1667 58.9334 13.9667 59 13.7 59ZM26.5 59C24.3667 59 22.6667 58.4334 21.4 57.3C20.0667 56.2334 19.4 54.6668 19.4 52.6001C19.4 51.2668 19.7 50.1001 20.3 49.1001C20.9 48.1001 21.6667 47.3334 22.6 46.8C23.6 46.2 24.6667 45.8999 25.8 45.8999C27 45.8999 28 46.1334 28.8 46.6001C29.6 47.0668 30.2 47.6666 30.6 48.3999C31 49.0666 31.2 49.7332 31.2 50.3999C31.2 51.1999 30.9667 51.9 30.5 52.5C29.9667 53.0333 29.0333 53.3 27.7 53.3H21.1C21.3 54.6334 21.9 55.6334 22.9 56.3C23.9 56.9667 25.1 57.3 26.5 57.3C27.1 57.3 27.6 57.2666 28 57.2C28.4667 57.1333 28.8333 57.0332 29.1 56.8999C29.3667 56.8332 29.5333 56.8 29.6 56.8C29.6667 56.7334 29.7333 56.7 29.8 56.7C30 56.7 30.1667 56.8 30.3 57C30.5 57.1333 30.6 57.3334 30.6 57.6001C30.6 57.9334 30.4333 58.1667 30.1 58.3C29.6333 58.5 29.0667 58.6667 28.4 58.8C27.8 58.9334 27.1667 59 26.5 59ZM25.8 47.6001C24.6667 47.6001 23.6667 47.9666 22.8 48.7C21.9333 49.4333 21.4 50.4333 21.2 51.7H27.7C28.9667 51.7 29.6 51.2666 29.6 50.3999C29.6 49.7332 29.2667 49.1 28.6 48.5C27.8667 47.9 26.9333 47.6001 25.8 47.6001ZM45.1 58.7C44.5667 58.1666 44.1667 57.5334 43.9 56.8C43.1667 57.4667 42.3333 57.9999 41.4 58.3999C40.5333 58.7999 39.5667 59 38.5 59C37.5 59 36.7 58.7999 36.1 58.3999C35.5 58.0666 35.0667 57.6 34.8 57C34.6 56.4667 34.5 55.9667 34.5 55.5C34.5 54.9667 34.5667 54.4332 34.7 53.8999C34.9 53.4332 35.2 53.0001 35.6 52.6001C36.2 52.0668 36.9667 51.6334 37.9 51.3C38.8333 50.9667 39.9667 50.8 41.3 50.8C42.0333 50.8 42.8 50.8332 43.6 50.8999C43.4667 49.8999 43.1333 49.1 42.6 48.5C42 47.9 41.1333 47.6001 40 47.6001C39.5333 47.6001 39.0667 47.6333 38.6 47.7C38.1333 47.7666 37.7667 47.8667 37.5 48C37.2333 48.0667 37.0333 48.1001 36.9 48.1001C36.7 48.1001 36.5 48.0332 36.3 47.8999C36.1 47.6999 36 47.5 36 47.3C36 46.9 36.2 46.6333 36.6 46.5C37 46.3667 37.5 46.2334 38.1 46.1001C38.7667 45.9668 39.4 45.8999 40 45.8999C41.8 45.8999 43.1333 46.3999 44 47.3999C44.8667 48.3999 45.3 49.7 45.3 51.3V54.3999C45.3 55.1332 45.3667 55.7667 45.5 56.3C45.7 56.7667 45.9667 57.2001 46.3 57.6001C46.4333 57.7334 46.5 57.9001 46.5 58.1001C46.5 58.3668 46.4 58.5666 46.2 58.7C46.0667 58.9 45.9 59 45.7 59C45.4333 59 45.2333 58.9 45.1 58.7ZM38.5 57.3C39.5 57.3 40.4333 57.1 41.3 56.7C42.1667 56.2333 42.9333 55.5666 43.6 54.7V52.5C42.8 52.4333 42.0333 52.3999 41.3 52.3999C39.1667 52.3999 37.6667 52.8333 36.8 53.7C36.5333 53.9666 36.3667 54.2668 36.3 54.6001C36.1667 54.8668 36.1 55.1667 36.1 55.5C36.1 55.9 36.3 56.3 36.7 56.7C37.1 57.1 37.7 57.3 38.5 57.3ZM61 59C60.7333 59 60.5333 58.9334 60.4 58.8C60.2 58.6 60.1 58.4 60.1 58.2V56.8C59.5 57.4667 58.7667 57.9999 57.9 58.3999C57.1 58.7999 56.2333 59 55.3 59C54.1667 59 53.1667 58.7333 52.3 58.2C51.4333 57.7333 50.7333 57.0334 50.2 56.1001C49.6667 55.1001 49.4 53.9666 49.4 52.7C49.4 51.3666 49.7 50.2 50.3 49.2C50.8333 48.2 51.6 47.4 52.6 46.8C53.6 46.2 54.7333 45.8999 56 45.8999C56.8 45.8999 57.5333 46.0334 58.2 46.3C58.8667 46.5 59.5 46.7668 60.1 47.1001V41.1001C60.1 40.9001 60.2 40.7 60.4 40.5C60.5333 40.3667 60.7333 40.3 61 40.3C61.2 40.3 61.4 40.3667 61.6 40.5C61.7333 40.7 61.8 40.9001 61.8 41.1001V58.2C61.8 58.4 61.7333 58.6 61.6 58.8C61.4 58.9334 61.2 59 61 59ZM55.3 57.3C56.3667 57.3 57.3 57.0333 58.1 56.5C58.9 55.9 59.5667 55.1333 60.1 54.2V49.1001C59.5 48.6334 58.8667 48.2667 58.2 48C57.5333 47.7333 56.8 47.6001 56 47.6001C55.0667 47.6001 54.2333 47.8334 53.5 48.3C52.7667 48.7 52.1667 49.3001 51.7 50.1001C51.3 50.8334 51.1 51.7 51.1 52.7C51.1 54.1 51.5 55.2334 52.3 56.1001C53.1 56.9001 54.1 57.3 55.3 57.3ZM82.5 45.8C83.8333 45.8 85 46.1 86 46.7C87 47.3 87.7667 48.1333 88.3 49.2C88.8333 50.2 89.1 51.3334 89.1 52.6001C89.1 53.8668 88.8333 54.9666 88.3 55.8999C87.7667 56.8999 87 57.7 86 58.3C85 58.8334 83.8333 59.1001 82.5 59.1001C81.1667 59.1001 80 58.8334 79 58.3C78 57.7 77.2 56.8999 76.6 55.8999C76.0667 54.8999 75.8 53.8001 75.8 52.6001C75.8 51.3334 76.0667 50.2 76.6 49.2C77.1333 48.1333 77.9 47.3 78.9 46.7C79.9 46.1 81.1 45.8 82.5 45.8ZM82.5 47.5C81.4333 47.5 80.5333 47.7333 79.8 48.2C79.0667 48.6666 78.5 49.2667 78.1 50C77.7 50.8 77.5 51.6668 77.5 52.6001C77.5 53.9334 77.9333 55.1001 78.8 56.1001C79.7333 57.0334 80.9667 57.5 82.5 57.5C83.9667 57.5 85.1667 57.0334 86.1 56.1001C86.9667 55.1668 87.4 54.0001 87.4 52.6001C87.4 51.6668 87.2 50.8 86.8 50C86.4 49.2667 85.8333 48.6666 85.1 48.2C84.3667 47.7333 83.5 47.5 82.5 47.5ZM95.5 59C95.3 59 95.1 58.9334 94.9 58.8C94.7667 58.6 94.7 58.4 94.7 58.2V47.6001H92.6C92.4 47.6001 92.2 47.5332 92 47.3999C91.8667 47.1999 91.8 47 91.8 46.8C91.8 46.5334 91.8667 46.3333 92 46.2C92.2 46 92.4 45.8999 92.6 45.8999H94.7V44.3C94.7 42.7 95.1667 41.5 96.1 40.7C97.1 39.9 98.4333 39.5 100.1 39.5C100.367 39.5 100.567 39.5666 100.7 39.7C100.833 39.8333 100.9 40.0334 100.9 40.3C100.9 40.5 100.833 40.6999 100.7 40.8999C100.5 41.0332 100.3 41.1001 100.1 41.1001C98.7667 41.1001 97.8 41.4 97.2 42C96.6667 42.6 96.4 43.3667 96.4 44.3V45.8999H100.1C100.367 45.8999 100.567 46 100.7 46.2C100.9 46.3333 101 46.5334 101 46.8C101 47 100.9 47.1999 100.7 47.3999C100.567 47.5332 100.367 47.6001 100.1 47.6001H96.4V58.2C96.4 58.4 96.3 58.6 96.1 58.8C95.9667 58.9334 95.7667 59 95.5 59ZM122 40.8999C123.6 40.8999 125.033 41.2667 126.3 42C127.633 42.8 128.667 43.9 129.4 45.3C130.2 46.7 130.6 48.3001 130.6 50.1001C130.6 51.8334 130.233 53.4 129.5 54.8C128.833 56.2 127.867 57.3001 126.6 58.1001C125.333 58.9001 123.8 59.3 122 59.3C120.333 59.3 118.833 58.9001 117.5 58.1001C116.167 57.3001 115.133 56.2 114.4 54.8C113.667 53.4 113.3 51.8666 113.3 50.2C113.3 48.3333 113.667 46.7 114.4 45.3C115.133 43.9 116.133 42.8 117.4 42C118.733 41.2667 120.267 40.8999 122 40.8999ZM122 42.5C120.6 42.5 119.367 42.8333 118.3 43.5C117.233 44.1667 116.4 45.0666 115.8 46.2C115.267 47.3333 115 48.6666 115 50.2C115 51.5333 115.267 52.7666 115.8 53.8999C116.4 55.0332 117.233 55.9334 118.3 56.6001C119.367 57.2668 120.6 57.6001 122 57.6001C123.467 57.6001 124.7 57.2668 125.7 56.6001C126.767 55.9334 127.567 55.0332 128.1 53.8999C128.633 52.7666 128.9 51.5001 128.9 50.1001C128.9 48.6334 128.6 47.3333 128 46.2C127.4 45.0666 126.567 44.1667 125.5 43.5C124.433 42.8333 123.267 42.5 122 42.5ZM137.3 57.6001V64.5C137.3 64.7667 137.2 64.9668 137 65.1001C136.867 65.3001 136.667 65.3999 136.4 65.3999C136.2 65.3999 136 65.3001 135.8 65.1001C135.667 64.9668 135.6 64.7667 135.6 64.5V46.8C135.6 46.5334 135.667 46.3333 135.8 46.2C136 46 136.2 45.8999 136.4 45.8999C136.667 45.8999 136.867 46 137 46.2C137.2 46.3333 137.3 46.5334 137.3 46.8V48.1001C137.967 47.4334 138.7 46.9 139.5 46.5C140.3 46.1 141.133 45.8999 142 45.8999C143.067 45.8999 144.033 46.1666 144.9 46.7C145.833 47.1666 146.567 47.8999 147.1 48.8999C147.633 49.8332 147.9 51.0333 147.9 52.5C147.9 53.7 147.633 54.8 147.1 55.8C146.567 56.8 145.833 57.6 144.9 58.2C143.967 58.7333 142.867 59 141.6 59C140.867 59 140.133 58.8668 139.4 58.6001C138.667 58.4001 137.967 58.0668 137.3 57.6001ZM141.6 57.3C143 57.3 144.133 56.8332 145 55.8999C145.867 54.9666 146.3 53.8333 146.3 52.5C146.3 50.9 145.867 49.6999 145 48.8999C144.133 48.0332 143.133 47.6001 142 47.6001C141.067 47.6001 140.2 47.8666 139.4 48.3999C138.6 48.9332 137.9 49.6668 137.3 50.6001V55.6001C137.9 56.1334 138.567 56.5666 139.3 56.8999C140.1 57.1666 140.867 57.3 141.6 57.3ZM158.4 59C156.267 59 154.567 58.4334 153.3 57.3C151.967 56.2334 151.3 54.6668 151.3 52.6001C151.3 51.2668 151.6 50.1001 152.2 49.1001C152.8 48.1001 153.567 47.3334 154.5 46.8C155.5 46.2 156.567 45.8999 157.7 45.8999C158.9 45.8999 159.9 46.1334 160.7 46.6001C161.5 47.0668 162.1 47.6666 162.5 48.3999C162.9 49.0666 163.1 49.7332 163.1 50.3999C163.1 51.1999 162.867 51.9 162.4 52.5C161.867 53.0333 160.933 53.3 159.6 53.3H153C153.2 54.6334 153.8 55.6334 154.8 56.3C155.8 56.9667 157 57.3 158.4 57.3C159 57.3 159.5 57.2666 159.9 57.2C160.367 57.1333 160.733 57.0332 161 56.8999C161.267 56.8332 161.433 56.8 161.5 56.8C161.567 56.7334 161.633 56.7 161.7 56.7C161.9 56.7 162.067 56.8 162.2 57C162.4 57.1333 162.5 57.3334 162.5 57.6001C162.5 57.9334 162.333 58.1667 162 58.3C161.533 58.5 160.967 58.6667 160.3 58.8C159.7 58.9334 159.067 59 158.4 59ZM157.7 47.6001C156.567 47.6001 155.567 47.9666 154.7 48.7C153.833 49.4333 153.3 50.4333 153.1 51.7H159.6C160.867 51.7 161.5 51.2666 161.5 50.3999C161.5 49.7332 161.167 49.1 160.5 48.5C159.767 47.9 158.833 47.6001 157.7 47.6001ZM168.7 59C168.5 59 168.3 58.9334 168.1 58.8C167.967 58.6 167.9 58.4 167.9 58.2V46.8C167.9 46.5334 167.967 46.3333 168.1 46.2C168.3 46 168.5 45.8999 168.7 45.8999C168.967 45.8999 169.167 46 169.3 46.2C169.433 46.3333 169.5 46.5334 169.5 46.8V48.7C170.367 47.8333 171.3 47.1666 172.3 46.7C173.3 46.2333 174.233 46 175.1 46C175.367 46 175.567 46.0666 175.7 46.2C175.833 46.3333 175.9 46.5 175.9 46.7C175.9 47.2333 175.667 47.5334 175.2 47.6001C173.933 47.7334 172.833 48.1334 171.9 48.8C171.033 49.4667 170.233 50.3332 169.5 51.3999V58.2C169.5 58.4 169.433 58.6 169.3 58.8C169.167 58.9334 168.967 59 168.7 59ZM188.2 58.7C187.667 58.1666 187.267 57.5334 187 56.8C186.267 57.4667 185.433 57.9999 184.5 58.3999C183.633 58.7999 182.667 59 181.6 59C180.6 59 179.8 58.7999 179.2 58.3999C178.6 58.0666 178.167 57.6 177.9 57C177.7 56.4667 177.6 55.9667 177.6 55.5C177.6 54.9667 177.667 54.4332 177.8 53.8999C178 53.4332 178.3 53.0001 178.7 52.6001C179.3 52.0668 180.067 51.6334 181 51.3C181.933 50.9667 183.067 50.8 184.4 50.8C185.133 50.8 185.9 50.8332 186.7 50.8999C186.567 49.8999 186.233 49.1 185.7 48.5C185.1 47.9 184.233 47.6001 183.1 47.6001C182.633 47.6001 182.167 47.6333 181.7 47.7C181.233 47.7666 180.867 47.8667 180.6 48C180.333 48.0667 180.133 48.1001 180 48.1001C179.8 48.1001 179.6 48.0332 179.4 47.8999C179.2 47.6999 179.1 47.5 179.1 47.3C179.1 46.9 179.3 46.6333 179.7 46.5C180.1 46.3667 180.6 46.2334 181.2 46.1001C181.867 45.9668 182.5 45.8999 183.1 45.8999C184.9 45.8999 186.233 46.3999 187.1 47.3999C187.967 48.3999 188.4 49.7 188.4 51.3V54.3999C188.4 55.1332 188.467 55.7667 188.6 56.3C188.8 56.7667 189.067 57.2001 189.4 57.6001C189.533 57.7334 189.6 57.9001 189.6 58.1001C189.6 58.3668 189.5 58.5666 189.3 58.7C189.167 58.9 189 59 188.8 59C188.533 59 188.333 58.9 188.2 58.7ZM181.6 57.3C182.6 57.3 183.533 57.1 184.4 56.7C185.267 56.2333 186.033 55.5666 186.7 54.7V52.5C185.9 52.4333 185.133 52.3999 184.4 52.3999C182.267 52.3999 180.767 52.8333 179.9 53.7C179.633 53.9666 179.467 54.2668 179.4 54.6001C179.267 54.8668 179.2 55.1667 179.2 55.5C179.2 55.9 179.4 56.3 179.8 56.7C180.2 57.1 180.8 57.3 181.6 57.3ZM200.2 59C198.133 59 196.667 58.5666 195.8 57.7C194.933 56.8333 194.5 55.7 194.5 54.3V47.6001H192.4C192.2 47.6001 192 47.5332 191.8 47.3999C191.667 47.1999 191.6 47 191.6 46.8C191.6 46.5334 191.667 46.3333 191.8 46.2C192 46 192.2 45.8999 192.4 45.8999H194.5V42.6001C194.5 42.3334 194.6 42.1333 194.8 42C194.933 41.8 195.133 41.7 195.4 41.7C195.6 41.7 195.8 41.8 196 42C196.133 42.1333 196.2 42.3334 196.2 42.6001V45.8999H200.6C200.867 45.8999 201.067 46 201.2 46.2C201.4 46.3333 201.5 46.5334 201.5 46.8C201.5 47 201.4 47.1999 201.2 47.3999C201.067 47.5332 200.867 47.6001 200.6 47.6001H196.2V54.3C196.2 56.3 197.533 57.3 200.2 57.3C200.467 57.3 200.667 57.4001 200.8 57.6001C200.933 57.7334 201 57.9333 201 58.2C201 58.4 200.933 58.6 200.8 58.8C200.6 58.9334 200.4 59 200.2 59ZM206.5 39.1001C206.9 39.1001 207.233 39.2668 207.5 39.6001C207.767 39.8668 207.9 40.2667 207.9 40.8C207.9 41.2667 207.767 41.6332 207.5 41.8999C207.233 42.1666 206.933 42.3 206.6 42.3C206.2 42.3 205.833 42.1666 205.5 41.8999C205.233 41.6332 205.1 41.2667 205.1 40.8C205.1 40.2667 205.233 39.8668 205.5 39.6001C205.767 39.2668 206.1 39.1001 206.5 39.1001ZM205.7 58.2V46.8C205.7 46.5334 205.8 46.3333 206 46.2C206.133 46 206.333 45.8999 206.6 45.8999C206.8 45.8999 207 46 207.2 46.2C207.333 46.3333 207.4 46.5334 207.4 46.8V58.2C207.4 58.4 207.333 58.6 207.2 58.8C207 58.9334 206.8 59 206.6 59C206.333 59 206.133 58.9334 206 58.8C205.8 58.6 205.7 58.4 205.7 58.2ZM218.7 45.8C220.033 45.8 221.2 46.1 222.2 46.7C223.2 47.3 223.967 48.1333 224.5 49.2C225.033 50.2 225.3 51.3334 225.3 52.6001C225.3 53.8668 225.033 54.9666 224.5 55.8999C223.967 56.8999 223.2 57.7 222.2 58.3C221.2 58.8334 220.033 59.1001 218.7 59.1001C217.367 59.1001 216.2 58.8334 215.2 58.3C214.2 57.7 213.4 56.8999 212.8 55.8999C212.267 54.8999 212 53.8001 212 52.6001C212 51.3334 212.267 50.2 212.8 49.2C213.333 48.1333 214.1 47.3 215.1 46.7C216.1 46.1 217.3 45.8 218.7 45.8ZM218.7 47.5C217.633 47.5 216.733 47.7333 216 48.2C215.267 48.6666 214.7 49.2667 214.3 50C213.9 50.8 213.7 51.6668 213.7 52.6001C213.7 53.9334 214.133 55.1001 215 56.1001C215.933 57.0334 217.167 57.5 218.7 57.5C220.167 57.5 221.367 57.0334 222.3 56.1001C223.167 55.1668 223.6 54.0001 223.6 52.6001C223.6 51.6668 223.4 50.8 223 50C222.6 49.2667 222.033 48.6666 221.3 48.2C220.567 47.7333 219.7 47.5 218.7 47.5ZM240.2 59C239.933 59 239.733 58.9334 239.6 58.8C239.4 58.6 239.3 58.4 239.3 58.2V51.5C239.3 50.1 239.033 49.1 238.5 48.5C238.033 47.9 237.333 47.6001 236.4 47.6001C235.467 47.6001 234.6 47.8666 233.8 48.3999C232.933 48.8666 232.133 49.4666 231.4 50.2V58.2C231.4 58.4 231.333 58.6 231.2 58.8C231.067 58.9334 230.867 59 230.6 59C230.4 59 230.2 58.9334 230 58.8C229.867 58.6 229.8 58.4 229.8 58.2V46.8C229.8 46.5334 229.867 46.3333 230 46.2C230.2 46 230.4 45.8999 230.6 45.8999C230.867 45.8999 231.067 46 231.2 46.2C231.333 46.3333 231.4 46.5334 231.4 46.8V48C232.2 47.4 233 46.9 233.8 46.5C234.6 46.1 235.467 45.8999 236.4 45.8999C237.267 45.8999 238.033 46.0666 238.7 46.3999C239.433 46.7332 240 47.3333 240.4 48.2C240.8 49 241 50.1 241 51.5V58.2C241 58.4 240.933 58.6 240.8 58.8C240.6 58.9334 240.4 59 240.2 59ZM254 47.8999C253.8 47.8332 253.4 47.7334 252.8 47.6001C252.267 47.5334 251.7 47.5 251.1 47.5C249.967 47.5 249.1 47.7001 248.5 48.1001C247.9 48.4334 247.6 48.9 247.6 49.5C247.6 49.9667 247.867 50.3666 248.4 50.7C248.867 50.9666 249.7 51.1667 250.9 51.3L252.2 51.3999C253.333 51.5332 254.233 51.8 254.9 52.2C255.5 52.6 255.933 53.0668 256.2 53.6001C256.467 54.1334 256.6 54.7 256.6 55.3C256.6 55.9 256.467 56.5001 256.2 57.1001C255.867 57.7001 255.3 58.2001 254.5 58.6001C253.767 58.9334 252.7 59.1001 251.3 59.1001C250.433 59.1001 249.567 59.0332 248.7 58.8999C247.833 58.6999 247.033 58.4334 246.3 58.1001C245.967 57.9668 245.8 57.7 245.8 57.3C245.8 57.1 245.867 56.9334 246 56.8C246.2 56.6 246.4 56.5 246.6 56.5C246.667 56.5 246.767 56.5334 246.9 56.6001C246.967 56.6668 247.167 56.7334 247.5 56.8C247.9 57 248.433 57.1667 249.1 57.3C249.833 57.4334 250.567 57.5 251.3 57.5C252.5 57.5 253.4 57.2999 254 56.8999C254.667 56.4332 255 55.9 255 55.3C255 54.7 254.767 54.2 254.3 53.8C253.833 53.4 253.1 53.1668 252.1 53.1001L250.7 52.8999C249.433 52.7666 248.433 52.5333 247.7 52.2C247.033 51.8 246.567 51.3666 246.3 50.8999C246.1 50.4332 246 49.9332 246 49.3999C246 48.8666 246.133 48.3334 246.4 47.8C246.733 47.2667 247.267 46.7999 248 46.3999C248.733 45.9999 249.767 45.8 251.1 45.8C251.833 45.8 252.533 45.8667 253.2 46C253.867 46.0667 254.433 46.1999 254.9 46.3999C255.1 46.3999 255.267 46.5 255.4 46.7C255.467 46.8333 255.5 47 255.5 47.2C255.5 47.4 255.433 47.6 255.3 47.8C255.1 47.9334 254.9 48 254.7 48C254.567 48 254.333 47.9666 254 47.8999Z" fill="white"/>
</svg>
