<svg width="1422" height="124" viewBox="0 0 1422 124" fill="none" xmlns="http://www.w3.org/2000/svg">
<path d="M44.2 0.800049H1378C1401.7 0.800049 1421 20 1421 43.8V79.8C1421 103.6 1401.7 122.8 1378 122.8H44.2C20.4 122.8 1.19995 103.6 1.19995 79.8V43.8C1.19995 20 20.4 0.800049 44.2 0.800049ZM44.2 0.800049H1378C1401.7 0.800049 1421 20 1421 43.8V79.8C1421 103.6 1401.7 122.8 1378 122.8H44.2C20.4 122.8 1.19995 103.6 1.19995 79.8V43.8C1.19995 20 20.4 0.800049 44.2 0.800049Z" fill="#010000"/>
<path d="M44.2 0.800049H1378C1401.7 0.800049 1421 20 1421 43.8V79.8C1421 103.6 1401.7 122.8 1378 122.8H44.2C20.4 122.8 1.19995 103.6 1.19995 79.8V43.8C1.19995 20 20.4 0.800049 44.2 0.800049Z" stroke="black" stroke-miterlimit="100"/>
</svg>
