<svg width="566" height="30" viewBox="0 0 566 30" fill="none" xmlns="http://www.w3.org/2000/svg">
<path d="M18 23.0001C17.6 23.0001 17.3 22.8001 17.1 22.4001C16.9 21.7335 16.6 21.0001 16.2 20.2001C15.8667 19.3335 15.5 18.4668 15.1 17.6001H4.5C4.16667 18.4668 3.83333 19.3335 3.5 20.2001C3.23333 21.0001 2.96668 21.7335 2.70001 22.4001C2.63335 22.6001 2.49999 22.7668 2.29999 22.9001C2.16665 22.9668 1.99999 23.0001 1.79999 23.0001C1.53332 23.0001 1.29998 22.9001 1.09998 22.7001C0.966642 22.5001 0.900024 22.2668 0.900024 22.0001C0.900024 21.9335 0.900024 21.8335 0.900024 21.7001C0.966691 21.5668 1.06668 21.3001 1.20001 20.9001C1.66668 19.7668 2.16668 18.4668 2.70001 17.0001C3.30001 15.5335 3.96668 14.0335 4.70001 12.5001C5.36668 10.9001 6.03335 9.30013 6.70001 7.70013C7.43335 6.10013 8.10001 4.60013 8.70001 3.20013C8.90001 2.80013 9.19998 2.6001 9.59998 2.6001H9.79999C10.2667 2.6001 10.5667 2.76676 10.7 3.1001C11.3667 4.56676 12.0667 6.13344 12.8 7.80011C13.6 9.46678 14.3666 11.1334 15.1 12.8001C15.8333 14.4001 16.5 15.9335 17.1 17.4001C17.7 18.8001 18.1667 19.9668 18.5 20.9001C18.7 21.3001 18.8334 21.6001 18.9 21.8001C18.9 21.9334 18.9 22.0334 18.9 22.1001C18.9 22.3001 18.8 22.5001 18.6 22.7001C18.4666 22.9001 18.2667 23.0001 18 23.0001ZM5.29999 15.7001H14.3C13.5667 14.0335 12.8 12.3334 12 10.6001C11.2 8.8001 10.4333 7.13343 9.70001 5.6001C9.03335 7.2001 8.3 8.86676 7.5 10.6001C6.76667 12.3334 6.03332 14.0335 5.29999 15.7001ZM24.9 23.0001C24.7 23.0001 24.5 22.9001 24.3 22.7001C24.1 22.5001 24 22.3001 24 22.1001V9.20013C24 8.93347 24.1 8.73343 24.3 8.6001C24.5 8.4001 24.7 8.30011 24.9 8.30011C25.2334 8.30011 25.4666 8.4001 25.6 8.6001C25.8 8.73343 25.9 8.93347 25.9 9.20013V11.5001C26.8334 10.4335 27.8667 9.63343 29 9.1001C30.0667 8.56676 31.1333 8.30011 32.2 8.30011C32.4667 8.30011 32.6667 8.4001 32.8 8.6001C33 8.73343 33.1 8.93347 33.1 9.20013C33.1 9.80013 32.8333 10.1335 32.3 10.2001C30.8333 10.3335 29.6 10.8001 28.6 11.6001C27.6 12.3334 26.7 13.3001 25.9 14.5001V22.1001C25.9 22.3001 25.8 22.5001 25.6 22.7001C25.4666 22.9001 25.2334 23.0001 24.9 23.0001ZM45 23.0001C42.7333 23.0001 41.1 22.5334 40.1 21.6001C39.1 20.6001 38.6 19.3001 38.6 17.7001V10.2001H36.3C36.0333 10.2001 35.8 10.1001 35.6 9.90015C35.4 9.70015 35.3 9.4668 35.3 9.20013C35.3 8.93347 35.4 8.73343 35.6 8.6001C35.8 8.4001 36.0333 8.30011 36.3 8.30011H38.6V4.50012C38.6 4.23346 38.7 4.00011 38.9 3.80011C39.1 3.66678 39.3333 3.6001 39.6 3.6001C39.8666 3.6001 40.0667 3.66678 40.2 3.80011C40.4 4.00011 40.5 4.23346 40.5 4.50012V8.30011H45.5C45.7667 8.30011 46 8.4001 46.2 8.6001C46.3333 8.73343 46.4 8.93347 46.4 9.20013C46.4 9.4668 46.3333 9.70015 46.2 9.90015C46 10.1001 45.7667 10.2001 45.5 10.2001H40.5V17.7001C40.5 19.9668 42 21.1001 45 21.1001C45.2667 21.1001 45.5 21.2001 45.7 21.4001C45.8333 21.6001 45.9 21.8334 45.9 22.1001C45.9 22.3001 45.8 22.5001 45.6 22.7001C45.4666 22.9001 45.2667 23.0001 45 23.0001ZM75.2 13.8001H82.7C82.9667 13.8001 83.2 13.9001 83.4 14.1001C83.6 14.2334 83.7 14.4668 83.7 14.8001C83.7 15.0001 83.6 15.2001 83.4 15.4001C83.2 15.6001 82.9667 15.7001 82.7 15.7001H75.2C74.9333 15.7001 74.7 15.6001 74.5 15.4001C74.3 15.2001 74.2 15.0001 74.2 14.8001C74.2 14.4668 74.3 14.2334 74.5 14.1001C74.7 13.9001 74.9333 13.8001 75.2 13.8001ZM124.5 23.0001C124.233 23.0001 124 22.9001 123.8 22.7001L117.6 15.5001H112.6V22.1001C112.6 22.3001 112.533 22.5001 112.4 22.7001C112.2 22.9001 111.967 23.0001 111.7 23.0001C111.433 23.0001 111.2 22.9001 111 22.7001C110.8 22.5001 110.7 22.3001 110.7 22.1001V3.90015C110.7 3.63348 110.8 3.40013 111 3.20013C111.2 3.00013 111.433 2.90015 111.7 2.90015H117.2C118.667 2.90015 119.933 3.20011 121 3.80011C122.067 4.33344 122.9 5.06679 123.5 6.00012C124.1 6.93346 124.4 8.00013 124.4 9.20013C124.4 10.6001 124 11.8335 123.2 12.9001C122.467 14.0335 121.333 14.8001 119.8 15.2001L125.2 21.5001C125.333 21.6335 125.4 21.8334 125.4 22.1001C125.4 22.3001 125.3 22.5001 125.1 22.7001C124.967 22.9001 124.767 23.0001 124.5 23.0001ZM117.2 4.80011H112.6V13.7001H117.2C118.933 13.7001 120.233 13.2668 121.1 12.4001C122.033 11.5335 122.5 10.4668 122.5 9.20013C122.5 7.93347 122 6.9001 121 6.1001C120 5.23343 118.733 4.80011 117.2 4.80011ZM137.4 23.0001C135 23.0001 133.067 22.3668 131.6 21.1001C130.133 19.9001 129.4 18.1334 129.4 15.8001C129.4 14.3334 129.733 13.0335 130.4 11.9001C131 10.7668 131.833 9.8668 132.9 9.20013C134.033 8.60013 135.267 8.30011 136.6 8.30011C137.933 8.30011 139.033 8.56676 139.9 9.1001C140.833 9.63343 141.5 10.2668 141.9 11.0001C142.433 11.8001 142.7 12.5668 142.7 13.3001C142.7 14.2334 142.4 15.0335 141.8 15.7001C141.267 16.3001 140.2 16.6001 138.6 16.6001H131.3C131.5 18.1334 132.133 19.2668 133.2 20.0001C134.333 20.7335 135.733 21.1001 137.4 21.1001C138 21.1001 138.567 21.0668 139.1 21.0001C139.567 20.8668 139.967 20.7668 140.3 20.7001C140.567 20.5668 140.733 20.5001 140.8 20.5001C140.867 20.5001 140.933 20.5001 141 20.5001C141.267 20.5001 141.467 20.6001 141.6 20.8001C141.8 20.9334 141.9 21.1335 141.9 21.4001C141.9 21.8001 141.7 22.1001 141.3 22.3001C140.833 22.5001 140.233 22.6668 139.5 22.8001C138.833 22.9334 138.133 23.0001 137.4 23.0001ZM136.6 10.2001C135.267 10.2001 134.1 10.6335 133.1 11.5001C132.167 12.3001 131.567 13.4001 131.3 14.8001H138.7C140.1 14.8001 140.8 14.3001 140.8 13.3001C140.8 12.5668 140.433 11.8668 139.7 11.2001C138.9 10.5335 137.867 10.2001 136.6 10.2001ZM163.4 23.1001H163.3C162.967 23.1001 162.7 22.9668 162.5 22.7001C161.767 21.3001 160.967 19.7001 160.1 17.9001C159.3 16.1001 158.5 14.1668 157.7 12.1001C157.3 13.3001 156.8 14.5334 156.2 15.8001C155.6 17.1334 155.033 18.3668 154.5 19.5001C153.9 20.6335 153.4 21.6668 153 22.6001C152.8 22.9334 152.5 23.1001 152.1 23.1001C151.7 23.1001 151.4 22.9334 151.2 22.6001C150.4 21.0001 149.7 19.3668 149.1 17.7001C148.5 16.0335 147.867 14.2334 147.2 12.3001C146.933 11.3668 146.733 10.6334 146.6 10.1001C146.467 9.63343 146.4 9.36678 146.4 9.30011C146.4 9.03344 146.5 8.8001 146.7 8.6001C146.833 8.4001 147.033 8.30011 147.3 8.30011C147.833 8.30011 148.133 8.53346 148.2 9.00012C148.8 11.0668 149.433 13.0335 150.1 14.9001C150.833 16.8335 151.5 18.5668 152.1 20.1001C152.633 19.0334 153.2 17.9001 153.8 16.7001C154.333 15.4335 154.867 14.2001 155.4 13.0001C155.933 11.7335 156.367 10.5335 156.7 9.40015C156.767 9.20015 156.867 9.03348 157 8.90015C157.2 8.76681 157.4 8.70013 157.6 8.70013H157.8C158 8.70013 158.2 8.76681 158.4 8.90015C158.533 9.03348 158.633 9.20015 158.7 9.40015C159.433 11.4001 160.2 13.3335 161 15.2001C161.8 17.0001 162.567 18.6334 163.3 20.1001C163.967 18.5668 164.667 16.8001 165.4 14.8001C166.133 12.8001 166.733 10.9001 167.2 9.1001C167.333 8.63343 167.633 8.40015 168.1 8.40015C168.367 8.40015 168.6 8.50013 168.8 8.70013C169 8.83347 169.1 9.03344 169.1 9.30011C169.1 9.36678 169.067 9.50013 169 9.70013C168.933 9.90013 168.867 10.1001 168.8 10.3001C168.2 12.5001 167.467 14.7001 166.6 16.9001C165.733 19.1001 164.967 21.0001 164.3 22.6001C164.1 22.9334 163.8 23.1001 163.4 23.1001ZM183.9 22.7001C183.3 22.1001 182.867 21.3668 182.6 20.5001C181.733 21.3001 180.8 21.9335 179.8 22.4001C178.8 22.8001 177.7 23.0001 176.5 23.0001C175.367 23.0001 174.467 22.8001 173.8 22.4001C173.133 21.9335 172.667 21.4001 172.4 20.8001C172.067 20.2001 171.9 19.6001 171.9 19.0001C171.9 18.4001 172 17.8334 172.2 17.3001C172.467 16.7001 172.833 16.2001 173.3 15.8001C173.9 15.2001 174.733 14.7001 175.8 14.3001C176.8 13.9001 178.067 13.7001 179.6 13.7001C180.4 13.7001 181.267 13.7668 182.2 13.9001C182.067 12.7668 181.7 11.8668 181.1 11.2001C180.433 10.5335 179.433 10.2001 178.1 10.2001C177.633 10.2001 177.133 10.2334 176.6 10.3001C176.067 10.3668 175.667 10.4668 175.4 10.6001C175.067 10.7334 174.833 10.8001 174.7 10.8001C174.433 10.8001 174.2 10.7001 174 10.5001C173.8 10.3001 173.7 10.1001 173.7 9.90015C173.7 9.43348 173.9 9.10015 174.3 8.90015C174.767 8.83348 175.333 8.70012 176 8.50012C176.733 8.36679 177.433 8.30011 178.1 8.30011C180.167 8.30011 181.667 8.86679 182.6 10.0001C183.6 11.1335 184.1 12.6001 184.1 14.4001V17.8001C184.1 18.6668 184.2 19.3668 184.4 19.9001C184.6 20.5001 184.867 21.0001 185.2 21.4001C185.4 21.6001 185.5 21.8001 185.5 22.0001C185.5 22.2668 185.4 22.5001 185.2 22.7001C185 22.9001 184.767 23.0001 184.5 23.0001C184.3 23.0001 184.1 22.9001 183.9 22.7001ZM176.5 21.1001C177.567 21.1001 178.6 20.8668 179.6 20.4001C180.6 19.9335 181.467 19.2001 182.2 18.2001V15.7001C181.267 15.6335 180.4 15.6001 179.6 15.6001C177.267 15.6001 175.6 16.1001 174.6 17.1001C174.333 17.3668 174.133 17.6668 174 18.0001C173.867 18.3335 173.8 18.6668 173.8 19.0001C173.8 19.5335 174.033 20.0335 174.5 20.5001C174.9 20.9001 175.567 21.1001 176.5 21.1001ZM191.1 23.0001C190.833 23.0001 190.6 22.9001 190.4 22.7001C190.2 22.5001 190.1 22.3001 190.1 22.1001V9.20013C190.1 8.93347 190.2 8.73343 190.4 8.6001C190.6 8.4001 190.833 8.30011 191.1 8.30011C191.367 8.30011 191.567 8.4001 191.7 8.6001C191.9 8.73343 192 8.93347 192 9.20013V11.5001C193 10.4335 194.033 9.63343 195.1 9.1001C196.233 8.56676 197.3 8.30011 198.3 8.30011C198.567 8.30011 198.767 8.4001 198.9 8.6001C199.1 8.73343 199.2 8.93347 199.2 9.20013C199.2 9.80013 198.933 10.1335 198.4 10.2001C196.933 10.3335 195.7 10.8001 194.7 11.6001C193.7 12.3334 192.8 13.3001 192 14.5001V22.1001C192 22.3001 191.9 22.5001 191.7 22.7001C191.567 22.9001 191.367 23.0001 191.1 23.0001ZM214.2 23.0001C213.933 23.0001 213.7 22.9001 213.5 22.7001C213.3 22.5001 213.2 22.3001 213.2 22.1001V20.5001C212.467 21.3001 211.667 21.9001 210.8 22.3001C209.867 22.7668 208.867 23.0001 207.8 23.0001C206.533 23.0001 205.4 22.7001 204.4 22.1001C203.467 21.5668 202.7 20.7668 202.1 19.7001C201.5 18.6335 201.2 17.4001 201.2 16.0001C201.2 14.4668 201.5 13.1335 202.1 12.0001C202.767 10.8668 203.667 9.96678 204.8 9.30011C205.867 8.63344 207.1 8.30011 208.5 8.30011C209.433 8.30011 210.267 8.43347 211 8.70013C211.8 8.90013 212.533 9.23347 213.2 9.70013V2.90015C213.2 2.63348 213.3 2.40013 213.5 2.20013C213.7 2.0668 213.933 2.00012 214.2 2.00012C214.467 2.00012 214.667 2.0668 214.8 2.20013C215 2.40013 215.1 2.63348 215.1 2.90015V22.1001C215.1 22.3001 215 22.5001 214.8 22.7001C214.667 22.9001 214.467 23.0001 214.2 23.0001ZM207.8 21.1001C209 21.1001 210.033 20.8001 210.9 20.2001C211.833 19.5335 212.6 18.6668 213.2 17.6001V11.9001C212.533 11.3668 211.833 10.9334 211.1 10.6001C210.367 10.3334 209.5 10.2001 208.5 10.2001C207.5 10.2001 206.567 10.4335 205.7 10.9001C204.9 11.4335 204.267 12.1335 203.8 13.0001C203.333 13.8668 203.1 14.8668 203.1 16.0001C203.1 17.4668 203.533 18.7001 204.4 19.7001C205.267 20.6335 206.4 21.1001 207.8 21.1001ZM230.1 10.5001C229.833 10.4335 229.4 10.3335 228.8 10.2001C228.2 10.1335 227.533 10.1001 226.8 10.1001C225.6 10.1001 224.667 10.3001 224 10.7001C223.267 11.1001 222.9 11.6334 222.9 12.3001C222.9 12.8334 223.2 13.2668 223.8 13.6001C224.333 13.9334 225.267 14.1668 226.6 14.3001L228.1 14.5001C229.367 14.5668 230.367 14.8334 231.1 15.3001C231.833 15.7668 232.333 16.3001 232.6 16.9001C232.933 17.5001 233.1 18.1334 233.1 18.8001C233.1 19.5334 232.9 20.2335 232.5 20.9001C232.167 21.5001 231.567 22.0335 230.7 22.5001C229.833 22.9001 228.6 23.1001 227 23.1001C226.067 23.1001 225.133 23.0335 224.2 22.9001C223.2 22.7001 222.267 22.4001 221.4 22.0001C221 21.8668 220.8 21.5668 220.8 21.1001C220.8 20.9001 220.9 20.7001 221.1 20.5001C221.3 20.3001 221.533 20.2001 221.8 20.2001C221.867 20.2001 221.967 20.2334 222.1 20.3001C222.233 20.3668 222.467 20.4668 222.8 20.6001C223.267 20.7334 223.867 20.9001 224.6 21.1001C225.4 21.2334 226.2 21.3001 227 21.3001C228.4 21.3001 229.433 21.0668 230.1 20.6001C230.833 20.1334 231.2 19.5334 231.2 18.8001C231.2 18.2001 230.933 17.6668 230.4 17.2001C229.933 16.7335 229.1 16.4334 227.9 16.3001L226.4 16.2001C224.933 16.0668 223.833 15.8001 223.1 15.4001C222.3 14.9335 221.767 14.4335 221.5 13.9001C221.233 13.3668 221.1 12.8001 221.1 12.2001C221.1 11.6001 221.267 11.0001 221.6 10.4001C221.933 9.80015 222.5 9.26678 223.3 8.80011C224.167 8.40011 225.333 8.20013 226.8 8.20013C227.667 8.20013 228.467 8.26681 229.2 8.40015C229.933 8.46681 230.6 8.60011 231.2 8.80011C231.4 8.80011 231.533 8.9001 231.6 9.1001C231.733 9.3001 231.8 9.50013 231.8 9.70013C231.8 9.9668 231.7 10.2001 231.5 10.4001C231.367 10.5335 231.167 10.6001 230.9 10.6001C230.767 10.6001 230.5 10.5668 230.1 10.5001ZM266 13.8001H273.5C273.767 13.8001 274 13.9001 274.2 14.1001C274.4 14.2334 274.5 14.4668 274.5 14.8001C274.5 15.0001 274.4 15.2001 274.2 15.4001C274 15.6001 273.767 15.7001 273.5 15.7001H266C265.733 15.7001 265.5 15.6001 265.3 15.4001C265.1 15.2001 265 15.0001 265 14.8001C265 14.4668 265.1 14.2334 265.3 14.1001C265.5 13.9001 265.733 13.8001 266 13.8001ZM315 5.50012C313.8 4.83346 312.267 4.50012 310.4 4.50012C308.867 4.50012 307.467 4.86676 306.2 5.6001C305 6.33343 304 7.33343 303.2 8.6001C302.4 9.86676 302 11.3668 302 13.1001C302 14.7001 302.333 16.1335 303 17.4001C303.733 18.6668 304.733 19.6668 306 20.4001C307.267 21.1335 308.8 21.5001 310.6 21.5001C311.533 21.5001 312.367 21.4001 313.1 21.2001C313.9 21.0001 314.633 20.7668 315.3 20.5001C315.433 20.3668 315.567 20.3001 315.7 20.3001C315.967 20.3001 316.2 20.4001 316.4 20.6001C316.533 20.8001 316.6 21.0334 316.6 21.3001C316.6 21.7001 316.433 21.9668 316.1 22.1001C315.367 22.5001 314.533 22.8001 313.6 23.0001C312.667 23.2001 311.667 23.3001 310.6 23.3001C308.4 23.3001 306.533 22.8668 305 22.0001C303.4 21.0668 302.2 19.8334 301.4 18.3001C300.6 16.7668 300.2 15.0334 300.2 13.1001C300.2 11.0334 300.667 9.2001 301.6 7.6001C302.533 6.0001 303.767 4.76681 305.3 3.90015C306.9 3.03348 308.6 2.6001 310.4 2.6001C312.667 2.6001 314.5 3.00011 315.9 3.80011C316.233 4.00011 316.4 4.26676 316.4 4.6001C316.4 4.86676 316.333 5.10011 316.2 5.30011C316 5.50011 315.767 5.6001 315.5 5.6001C315.367 5.6001 315.2 5.56679 315 5.50012ZM328.4 8.20013C329.867 8.20013 331.167 8.53347 332.3 9.20013C333.433 9.8668 334.3 10.8001 334.9 12.0001C335.5 13.1335 335.8 14.4001 335.8 15.8001C335.8 17.2001 335.5 18.4668 334.9 19.6001C334.3 20.6668 333.433 21.5335 332.3 22.2001C331.167 22.8001 329.867 23.1001 328.4 23.1001C326.867 23.1001 325.533 22.8001 324.4 22.2001C323.267 21.5335 322.4 20.6335 321.8 19.5001C321.2 18.3668 320.9 17.1334 320.9 15.8001C320.9 14.4001 321.2 13.1001 321.8 11.9001C322.4 10.7668 323.267 9.8668 324.4 9.20013C325.533 8.53347 326.867 8.20013 328.4 8.20013ZM328.4 10.0001C327.2 10.0001 326.2 10.2668 325.4 10.8001C324.533 11.3334 323.867 12.0335 323.4 12.9001C323 13.7668 322.8 14.7334 322.8 15.8001C322.8 17.3334 323.3 18.6335 324.3 19.7001C325.3 20.7668 326.667 21.3001 328.4 21.3001C330.067 21.3001 331.4 20.7668 332.4 19.7001C333.4 18.6335 333.9 17.3334 333.9 15.8001C333.9 14.7334 333.7 13.7668 333.3 12.9001C332.833 12.0335 332.167 11.3334 331.3 10.8001C330.5 10.2668 329.533 10.0001 328.4 10.0001ZM352.5 23.0001C352.3 23.0001 352.1 22.9001 351.9 22.7001C351.7 22.5001 351.6 22.3001 351.6 22.1001V14.6001C351.6 13.0001 351.3 11.8668 350.7 11.2001C350.1 10.5335 349.3 10.2001 348.3 10.2001C347.3 10.2001 346.3 10.4668 345.3 11.0001C344.367 11.6001 343.5 12.3001 342.7 13.1001V22.1001C342.7 22.3001 342.633 22.5001 342.5 22.7001C342.3 22.9001 342.067 23.0001 341.8 23.0001C341.533 23.0001 341.3 22.9001 341.1 22.7001C340.9 22.5001 340.8 22.3001 340.8 22.1001V9.20013C340.8 8.93347 340.9 8.73343 341.1 8.6001C341.3 8.4001 341.533 8.30011 341.8 8.30011C342.067 8.30011 342.3 8.4001 342.5 8.6001C342.633 8.73343 342.7 8.93347 342.7 9.20013V10.6001C343.567 9.93343 344.467 9.36681 345.4 8.90015C346.333 8.50015 347.3 8.30011 348.3 8.30011C349.3 8.30011 350.167 8.50015 350.9 8.90015C351.7 9.23348 352.333 9.86678 352.8 10.8001C353.267 11.7334 353.5 13.0001 353.5 14.6001V22.1001C353.5 22.3001 353.4 22.5001 353.2 22.7001C353.067 22.9001 352.833 23.0001 352.5 23.0001ZM366.8 23.0001C364.467 23.0001 362.8 22.5334 361.8 21.6001C360.867 20.6001 360.4 19.3001 360.4 17.7001V10.2001H358C357.733 10.2001 357.5 10.1001 357.3 9.90015C357.167 9.70015 357.1 9.4668 357.1 9.20013C357.1 8.93347 357.167 8.73343 357.3 8.6001C357.5 8.4001 357.733 8.30011 358 8.30011H360.4V4.50012C360.4 4.23346 360.467 4.00011 360.6 3.80011C360.8 3.66678 361.033 3.6001 361.3 3.6001C361.567 3.6001 361.8 3.66678 362 3.80011C362.2 4.00011 362.3 4.23346 362.3 4.50012V8.30011H367.2C367.533 8.30011 367.767 8.4001 367.9 8.6001C368.1 8.73343 368.2 8.93347 368.2 9.20013C368.2 9.4668 368.1 9.70015 367.9 9.90015C367.767 10.1001 367.533 10.2001 367.2 10.2001H362.3V17.7001C362.3 19.9668 363.8 21.1001 366.8 21.1001C367.067 21.1001 367.267 21.2001 367.4 21.4001C367.6 21.6001 367.7 21.8334 367.7 22.1001C367.7 22.3001 367.6 22.5001 367.4 22.7001C367.2 22.9001 367 23.0001 366.8 23.0001ZM379 23.0001C376.6 23.0001 374.667 22.3668 373.2 21.1001C371.733 19.9001 371 18.1334 371 15.8001C371 14.3334 371.333 13.0335 372 11.9001C372.667 10.7668 373.533 9.8668 374.6 9.20013C375.667 8.60013 376.867 8.30011 378.2 8.30011C379.533 8.30011 380.667 8.56676 381.6 9.1001C382.467 9.63343 383.133 10.2668 383.6 11.0001C384.067 11.8001 384.3 12.5668 384.3 13.3001C384.3 14.2334 384 15.0335 383.4 15.7001C382.867 16.3001 381.833 16.6001 380.3 16.6001H372.9C373.1 18.1334 373.767 19.2668 374.9 20.0001C376.033 20.7335 377.4 21.1001 379 21.1001C379.667 21.1001 380.233 21.0668 380.7 21.0001C381.233 20.8668 381.633 20.7668 381.9 20.7001C382.167 20.5668 382.333 20.5001 382.4 20.5001C382.533 20.5001 382.633 20.5001 382.7 20.5001C382.9 20.5001 383.1 20.6001 383.3 20.8001C383.5 20.9334 383.6 21.1335 383.6 21.4001C383.6 21.8001 383.4 22.1001 383 22.3001C382.467 22.5001 381.867 22.6668 381.2 22.8001C380.467 22.9334 379.733 23.0001 379 23.0001ZM378.2 10.2001C376.867 10.2001 375.733 10.6335 374.8 11.5001C373.8 12.3001 373.2 13.4001 373 14.8001H380.3C381.767 14.8001 382.5 14.3001 382.5 13.3001C382.5 12.5668 382.1 11.8668 381.3 11.2001C380.5 10.5335 379.467 10.2001 378.2 10.2001ZM401.3 23.0001C401.1 23.0001 400.9 22.9001 400.7 22.7001C400.5 22.5001 400.4 22.3001 400.4 22.1001V14.6001C400.4 13.0001 400.1 11.8668 399.5 11.2001C398.9 10.5335 398.1 10.2001 397.1 10.2001C396.1 10.2001 395.1 10.4668 394.1 11.0001C393.167 11.6001 392.3 12.3001 391.5 13.1001V22.1001C391.5 22.3001 391.4 22.5001 391.2 22.7001C391.067 22.9001 390.867 23.0001 390.6 23.0001C390.333 23.0001 390.1 22.9001 389.9 22.7001C389.7 22.5001 389.6 22.3001 389.6 22.1001V9.20013C389.6 8.93347 389.7 8.73343 389.9 8.6001C390.1 8.4001 390.333 8.30011 390.6 8.30011C390.867 8.30011 391.067 8.4001 391.2 8.6001C391.4 8.73343 391.5 8.93347 391.5 9.20013V10.6001C392.367 9.93343 393.267 9.36681 394.2 8.90015C395.133 8.50015 396.1 8.30011 397.1 8.30011C398.1 8.30011 398.967 8.50015 399.7 8.90015C400.5 9.23348 401.133 9.86678 401.6 10.8001C402.067 11.7334 402.3 13.0001 402.3 14.6001V22.1001C402.3 22.3001 402.2 22.5001 402 22.7001C401.8 22.9001 401.567 23.0001 401.3 23.0001ZM415.5 23.0001C413.233 23.0001 411.6 22.5334 410.6 21.6001C409.667 20.6001 409.2 19.3001 409.2 17.7001V10.2001H406.8C406.533 10.2001 406.3 10.1001 406.1 9.90015C405.967 9.70015 405.9 9.4668 405.9 9.20013C405.9 8.93347 405.967 8.73343 406.1 8.6001C406.3 8.4001 406.533 8.30011 406.8 8.30011H409.2V4.50012C409.2 4.23346 409.267 4.00011 409.4 3.80011C409.6 3.66678 409.833 3.6001 410.1 3.6001C410.367 3.6001 410.6 3.66678 410.8 3.80011C410.933 4.00011 411 4.23346 411 4.50012V8.30011H416C416.267 8.30011 416.5 8.4001 416.7 8.6001C416.9 8.73343 417 8.93347 417 9.20013C417 9.4668 416.9 9.70015 416.7 9.90015C416.5 10.1001 416.267 10.2001 416 10.2001H411V17.7001C411 19.9668 412.5 21.1001 415.5 21.1001C415.833 21.1001 416.067 21.2001 416.2 21.4001C416.4 21.6001 416.5 21.8334 416.5 22.1001C416.5 22.3001 416.4 22.5001 416.2 22.7001C416 22.9001 415.767 23.0001 415.5 23.0001ZM435.2 13.8001H442.7C442.967 13.8001 443.2 13.9001 443.4 14.1001C443.6 14.2334 443.7 14.4668 443.7 14.8001C443.7 15.0001 443.6 15.2001 443.4 15.4001C443.2 15.6001 442.967 15.7001 442.7 15.7001H435.2C434.933 15.7001 434.7 15.6001 434.5 15.4001C434.3 15.2001 434.2 15.0001 434.2 14.8001C434.2 14.4668 434.3 14.2334 434.5 14.1001C434.7 13.9001 434.933 13.8001 435.2 13.8001ZM474.8 5.50012C473.6 4.83346 472.033 4.50012 470.1 4.50012C468.633 4.50012 467.267 4.86676 466 5.6001C464.733 6.33343 463.7 7.33343 462.9 8.6001C462.167 9.86676 461.8 11.3668 461.8 13.1001C461.8 14.7001 462.133 16.1335 462.8 17.4001C463.467 18.6668 464.433 19.6668 465.7 20.4001C467.033 21.1335 468.6 21.5001 470.4 21.5001C471.267 21.5001 472.1 21.4001 472.9 21.2001C473.7 21.0001 474.4 20.7668 475 20.5001C475.133 20.3668 475.267 20.3001 475.4 20.3001C475.667 20.3001 475.9 20.4001 476.1 20.6001C476.3 20.8001 476.4 21.0334 476.4 21.3001C476.4 21.7001 476.2 21.9668 475.8 22.1001C475.067 22.5001 474.233 22.8001 473.3 23.0001C472.367 23.2001 471.4 23.3001 470.4 23.3001C468.2 23.3001 466.3 22.8668 464.7 22.0001C463.167 21.0668 461.967 19.8334 461.1 18.3001C460.3 16.7668 459.9 15.0334 459.9 13.1001C459.9 11.0334 460.367 9.2001 461.3 7.6001C462.3 6.0001 463.567 4.76681 465.1 3.90015C466.633 3.03348 468.3 2.6001 470.1 2.6001C472.367 2.6001 474.233 3.00011 475.7 3.80011C476.033 4.00011 476.2 4.26676 476.2 4.6001C476.2 4.86676 476.1 5.10011 475.9 5.30011C475.767 5.50011 475.533 5.6001 475.2 5.6001C475.067 5.6001 474.933 5.56679 474.8 5.50012ZM493.7 23.0001C493.5 23.0001 493.3 22.9001 493.1 22.7001C492.9 22.5001 492.8 22.3001 492.8 22.1001V14.6001C492.8 13.0001 492.5 11.8668 491.9 11.2001C491.3 10.5335 490.5 10.2001 489.5 10.2001C488.5 10.2001 487.5 10.4668 486.5 11.0001C485.567 11.6001 484.7 12.3001 483.9 13.1001V22.1001C483.9 22.3001 483.8 22.5001 483.6 22.7001C483.467 22.9001 483.267 23.0001 483 23.0001C482.733 23.0001 482.5 22.9001 482.3 22.7001C482.1 22.5001 482 22.3001 482 22.1001V2.90015C482 2.63348 482.1 2.40013 482.3 2.20013C482.5 2.0668 482.733 2.00012 483 2.00012C483.267 2.00012 483.467 2.0668 483.6 2.20013C483.8 2.40013 483.9 2.63348 483.9 2.90015V10.6001C484.767 9.93343 485.667 9.40012 486.6 9.00012C487.533 8.53346 488.5 8.30011 489.5 8.30011C490.5 8.30011 491.367 8.50015 492.1 8.90015C492.9 9.23348 493.533 9.86678 494 10.8001C494.467 11.7334 494.7 13.0001 494.7 14.6001V22.1001C494.7 22.3001 494.6 22.5001 494.4 22.7001C494.2 22.9001 493.967 23.0001 493.7 23.0001ZM511.3 22.7001C510.767 22.1001 510.333 21.3668 510 20.5001C509.133 21.3001 508.2 21.9335 507.2 22.4001C506.2 22.8001 505.1 23.0001 503.9 23.0001C502.767 23.0001 501.867 22.8001 501.2 22.4001C500.533 21.9335 500.067 21.4001 499.8 20.8001C499.533 20.2001 499.4 19.6001 499.4 19.0001C499.4 18.4001 499.5 17.8334 499.7 17.3001C499.9 16.7001 500.233 16.2001 500.7 15.8001C501.3 15.2001 502.133 14.7001 503.2 14.3001C504.267 13.9001 505.533 13.7001 507 13.7001C507.8 13.7001 508.667 13.7668 509.6 13.9001C509.467 12.7668 509.1 11.8668 508.5 11.2001C507.833 10.5335 506.833 10.2001 505.5 10.2001C505.033 10.2001 504.533 10.2334 504 10.3001C503.467 10.3668 503.067 10.4668 502.8 10.6001C502.467 10.7334 502.233 10.8001 502.1 10.8001C501.833 10.8001 501.6 10.7001 501.4 10.5001C501.2 10.3001 501.1 10.1001 501.1 9.90015C501.1 9.43348 501.333 9.10015 501.8 8.90015C502.2 8.83348 502.733 8.70012 503.4 8.50012C504.133 8.36679 504.833 8.30011 505.5 8.30011C507.567 8.30011 509.067 8.86679 510 10.0001C511 11.1335 511.5 12.6001 511.5 14.4001V17.8001C511.5 18.6668 511.6 19.3668 511.8 19.9001C512 20.5001 512.267 21.0001 512.6 21.4001C512.8 21.6001 512.9 21.8001 512.9 22.0001C512.9 22.2668 512.8 22.5001 512.6 22.7001C512.4 22.9001 512.2 23.0001 512 23.0001C511.733 23.0001 511.5 22.9001 511.3 22.7001ZM503.9 21.1001C504.967 21.1001 506 20.8668 507 20.4001C508 19.9335 508.867 19.2001 509.6 18.2001V15.7001C508.667 15.6335 507.8 15.6001 507 15.6001C504.667 15.6001 503 16.1001 502 17.1001C501.733 17.3668 501.533 17.6668 501.4 18.0001C501.267 18.3335 501.2 18.6668 501.2 19.0001C501.2 19.5335 501.433 20.0335 501.9 20.5001C502.3 20.9001 502.967 21.1001 503.9 21.1001ZM518.5 23.0001C518.233 23.0001 518 22.9001 517.8 22.7001C517.6 22.5001 517.5 22.3001 517.5 22.1001V9.20013C517.5 8.93347 517.6 8.73343 517.8 8.6001C518 8.4001 518.233 8.30011 518.5 8.30011C518.767 8.30011 519 8.4001 519.2 8.6001C519.333 8.73343 519.4 8.93347 519.4 9.20013V11.5001C520.4 10.4335 521.433 9.63343 522.5 9.1001C523.633 8.56676 524.7 8.30011 525.7 8.30011C525.967 8.30011 526.2 8.4001 526.4 8.6001C526.533 8.73343 526.6 8.93347 526.6 9.20013C526.6 9.80013 526.333 10.1335 525.8 10.2001C524.333 10.3335 523.1 10.8001 522.1 11.6001C521.1 12.3334 520.2 13.3001 519.4 14.5001V22.1001C519.4 22.3001 519.333 22.5001 519.2 22.7001C519 22.9001 518.767 23.0001 518.5 23.0001ZM531.6 0.600098C532.067 0.600098 532.433 0.766764 532.7 1.1001C533.033 1.43343 533.2 1.90012 533.2 2.50012C533.2 3.10012 533.033 3.53344 532.7 3.80011C532.433 4.13344 532.1 4.30011 531.7 4.30011C531.233 4.30011 530.833 4.13344 530.5 3.80011C530.233 3.46678 530.1 3.03346 530.1 2.50012C530.1 1.90012 530.233 1.43343 530.5 1.1001C530.833 0.766764 531.2 0.600098 531.6 0.600098ZM530.7 22.1001V9.20013C530.7 8.93347 530.8 8.73343 531 8.6001C531.2 8.4001 531.433 8.30011 531.7 8.30011C531.967 8.30011 532.2 8.4001 532.4 8.6001C532.533 8.73343 532.6 8.93347 532.6 9.20013V22.1001C532.6 22.3001 532.533 22.5001 532.4 22.7001C532.2 22.9001 531.967 23.0001 531.7 23.0001C531.433 23.0001 531.2 22.9001 531 22.7001C530.8 22.5001 530.7 22.3001 530.7 22.1001ZM546.5 23.0001C544.167 23.0001 542.533 22.5334 541.6 21.6001C540.6 20.6001 540.1 19.3001 540.1 17.7001V10.2001H537.8C537.533 10.2001 537.3 10.1001 537.1 9.90015C536.9 9.70015 536.8 9.4668 536.8 9.20013C536.8 8.93347 536.9 8.73343 537.1 8.6001C537.3 8.4001 537.533 8.30011 537.8 8.30011H540.1V4.50012C540.1 4.23346 540.2 4.00011 540.4 3.80011C540.6 3.66678 540.833 3.6001 541.1 3.6001C541.367 3.6001 541.567 3.66678 541.7 3.80011C541.9 4.00011 542 4.23346 542 4.50012V8.30011H547C547.267 8.30011 547.5 8.4001 547.7 8.6001C547.833 8.73343 547.9 8.93347 547.9 9.20013C547.9 9.4668 547.833 9.70015 547.7 9.90015C547.5 10.1001 547.267 10.2001 547 10.2001H542V17.7001C542 19.9668 543.5 21.1001 546.5 21.1001C546.767 21.1001 547 21.2001 547.2 21.4001C547.333 21.6001 547.4 21.8334 547.4 22.1001C547.4 22.3001 547.3 22.5001 547.1 22.7001C546.967 22.9001 546.767 23.0001 546.5 23.0001ZM552.1 29.5001C551.833 29.5001 551.6 29.4334 551.4 29.3001C551.2 29.1001 551.1 28.8668 551.1 28.6001C551.1 28.2668 551.267 28.0001 551.6 27.8001C552.667 27.2001 553.667 26.4668 554.6 25.6001C555.6 24.7334 556.567 23.5668 557.5 22.1001C556.567 20.6334 555.533 18.9001 554.4 16.9001C553.4 14.9001 552.5 12.8335 551.7 10.7001C551.5 10.1668 551.367 9.8001 551.3 9.6001C551.233 9.4001 551.2 9.2668 551.2 9.20013C551.2 9.00013 551.267 8.8001 551.4 8.6001C551.6 8.4001 551.833 8.30011 552.1 8.30011C552.3 8.30011 552.467 8.36679 552.6 8.50012C552.8 8.56679 552.933 8.70015 553 8.90015C553.867 11.3001 554.8 13.4668 555.8 15.4001C556.8 17.2668 557.7 18.9001 558.5 20.3001C559.1 19.2334 559.7 18.0335 560.3 16.7001C560.9 15.4335 561.433 14.1334 561.9 12.8001C562.433 11.4668 562.9 10.2001 563.3 9.00012C563.367 8.53346 563.667 8.30011 564.2 8.30011C564.467 8.30011 564.667 8.4001 564.8 8.6001C565 8.8001 565.1 9.00013 565.1 9.20013C565.1 9.33347 565.033 9.53344 564.9 9.80011C564.833 10.1334 564.767 10.4001 564.7 10.6001C564.367 11.6668 563.9 12.9335 563.3 14.4001C562.767 15.8001 562.167 17.2335 561.5 18.7001C560.833 20.1001 560.167 21.3668 559.5 22.5001C558.367 24.3668 557.233 25.8001 556.1 26.8001C554.967 27.8001 553.767 28.6668 552.5 29.4001C552.367 29.4668 552.233 29.5001 552.1 29.5001Z" fill="white"/>
</svg>
