<svg width="1661" height="145" viewBox="0 0 1661 145" fill="none" xmlns="http://www.w3.org/2000/svg">
<path d="M44.2 1.30005H1616.8C1640.5 1.30005 1659.8 20.6 1659.8 44.3V100.8C1659.8 124.6 1640.5 143.8 1616.8 143.8H44.2C20.5 143.8 1.19995 124.6 1.19995 100.8V44.3C1.19995 20.6 20.5 1.30005 44.2 1.30005ZM44.2 1.30005H1616.8C1640.5 1.30005 1659.8 20.6 1659.8 44.3V100.8C1659.8 124.6 1640.5 143.8 1616.8 143.8H44.2C20.5 143.8 1.19995 124.6 1.19995 100.8V44.3C1.19995 20.6 20.5 1.30005 44.2 1.30005ZM44.2 1.30005H1616.8C1640.5 1.30005 1659.8 20.6 1659.8 44.3V100.8C1659.8 124.6 1640.5 143.8 1616.8 143.8H44.2C20.5 143.8 1.19995 124.6 1.19995 100.8V44.3C1.19995 20.6 20.5 1.30005 44.2 1.30005ZM44.2 1.30005H1616.8C1640.5 1.30005 1659.8 20.6 1659.8 44.3V100.8C1659.8 124.6 1640.5 143.8 1616.8 143.8H44.2C20.5 143.8 1.19995 124.6 1.19995 100.8V44.3C1.19995 20.6 20.5 1.30005 44.2 1.30005ZM44.2 1.30005H1616.8C1640.5 1.30005 1659.8 20.6 1659.8 44.3V100.8C1659.8 124.6 1640.5 143.8 1616.8 143.8H44.2C20.5 143.8 1.19995 124.6 1.19995 100.8V44.3C1.19995 20.6 20.5 1.30005 44.2 1.30005ZM44.2 1.30005H1616.8C1640.5 1.30005 1659.8 20.6 1659.8 44.3V100.8C1659.8 124.6 1640.5 143.8 1616.8 143.8H44.2C20.5 143.8 1.19995 124.6 1.19995 100.8V44.3C1.19995 20.6 20.5 1.30005 44.2 1.30005Z" fill="black"/>
<path d="M44.2 1.30005H1616.8C1640.5 1.30005 1659.8 20.6 1659.8 44.3V100.8C1659.8 124.6 1640.5 143.8 1616.8 143.8H44.2C20.5 143.8 1.19995 124.6 1.19995 100.8V44.3C1.19995 20.6 20.5 1.30005 44.2 1.30005Z" stroke="black" stroke-miterlimit="100"/>
</svg>
