<svg width="286" height="67" viewBox="0 0 286 67" fill="none" xmlns="http://www.w3.org/2000/svg">
<path d="M89.8 20.1001C89.6 20.1001 89.4 20.0332 89.2 19.8999C89.0666 19.7666 88.9667 19.5667 88.9 19.3C88.7667 18.0334 88.5667 16.6 88.3 15C88.1 13.4 87.8333 11.7668 87.5 10.1001C87.2333 8.36676 86.9333 6.7001 86.6 5.1001C85.8666 6.56676 85.1334 8.13338 84.4 9.80005C83.6 11.4 82.8666 12.9667 82.2 14.5C81.5333 16.0333 80.9 17.4999 80.3 18.8999C80.1667 19.2332 79.9333 19.3999 79.6 19.3999C79.2 19.3999 78.9334 19.2667 78.8 19C78.1334 17.6 77.4333 16.1 76.7 14.5C75.9 12.9 75.1 11.2668 74.3 9.6001C73.5667 8.0001 72.8666 6.5001 72.2 5.1001C72 6.3001 71.8 7.56657 71.6 8.8999C71.4666 10.1666 71.3 11.4667 71.1 12.8C70.9666 14.0667 70.8 15.2666 70.6 16.3999C70.4666 17.5332 70.3667 18.5 70.3 19.3C70.3 19.5 70.2 19.6999 70 19.8999C69.8667 20.0332 69.6667 20.1001 69.4 20.1001C69.2 20.1001 69.0334 20 68.9 19.8C68.7 19.6667 68.6 19.4666 68.6 19.2C68.6 19.1333 68.6333 18.8 68.7 18.2C68.8333 17.4666 68.9666 16.4666 69.1 15.2C69.2333 13.9333 69.4 12.5668 69.6 11.1001C69.8 9.56676 70.0334 8.06676 70.3 6.6001C70.5 5.13343 70.7 3.8001 70.9 2.6001C70.9667 2.4001 71.0666 2.23343 71.2 2.1001C71.4 1.96676 71.6 1.8999 71.8 1.8999C72.0667 1.8999 72.2667 1.96676 72.4 2.1001C72.6 2.36676 72.7667 2.63324 72.9 2.8999C73.5 4.16657 74.1667 5.56676 74.9 7.1001C75.7 8.63343 76.5 10.2332 77.3 11.8999C78.1 13.4999 78.8333 15.0333 79.5 16.5C80.1667 15.0333 80.8666 13.4999 81.6 11.8999C82.3333 10.2332 83.1 8.56657 83.9 6.8999C84.7 5.23324 85.4666 3.70005 86.2 2.30005C86.4 1.96672 86.6667 1.80005 87 1.80005C87.2 1.80005 87.4 1.86667 87.6 2C87.7333 2.13333 87.8334 2.3 87.9 2.5C88.1667 3.83333 88.4 5.23328 88.6 6.69995C88.8666 8.16662 89.1334 9.56657 89.4 10.8999C89.6 12.2999 89.7667 13.5 89.9 14.5C90.0334 15.5 90.1333 16.2001 90.2 16.6001C90.4 17.6668 90.5 18.3666 90.5 18.7C90.5667 18.9666 90.6 19.1333 90.6 19.2C90.6 19.4666 90.5334 19.6667 90.4 19.8C90.2 20 90 20.1001 89.8 20.1001ZM101.4 6.80005C102.733 6.80005 103.9 7.09995 104.9 7.69995C105.9 8.29995 106.667 9.13328 107.2 10.2C107.733 11.2 108 12.3334 108 13.6001C108 14.8668 107.733 15.9666 107.2 16.8999C106.667 17.8999 105.9 18.7 104.9 19.3C103.9 19.8334 102.733 20.1001 101.4 20.1001C100.067 20.1001 98.9 19.8334 97.9 19.3C96.9 18.7 96.1 17.8999 95.5 16.8999C94.9667 15.8999 94.7 14.8001 94.7 13.6001C94.7 12.3334 94.9667 11.2 95.5 10.2C96.0333 9.13328 96.8 8.29995 97.8 7.69995C98.8 7.09995 100 6.80005 101.4 6.80005ZM101.4 8.5C100.333 8.5 99.4333 8.73328 98.7 9.19995C97.9666 9.66662 97.4 10.2667 97 11C96.6 11.8 96.4 12.6668 96.4 13.6001C96.4 14.9334 96.8333 16.1001 97.7 17.1001C98.6333 18.0334 99.8667 18.5 101.4 18.5C102.867 18.5 104.067 18.0334 105 17.1001C105.867 16.1668 106.3 15.0001 106.3 13.6001C106.3 12.6668 106.1 11.8 105.7 11C105.3 10.2667 104.733 9.66662 104 9.19995C103.267 8.73328 102.4 8.5 101.4 8.5ZM113.3 20C113.1 20 112.9 19.9334 112.7 19.8C112.567 19.6 112.5 19.4 112.5 19.2V7.80005C112.5 7.53338 112.567 7.33328 112.7 7.19995C112.9 6.99995 113.1 6.8999 113.3 6.8999C113.567 6.8999 113.767 6.99995 113.9 7.19995C114.033 7.33328 114.1 7.53338 114.1 7.80005V9.69995C114.967 8.83328 115.9 8.16662 116.9 7.69995C117.9 7.23328 118.833 7 119.7 7C119.967 7 120.167 7.06662 120.3 7.19995C120.433 7.33328 120.5 7.49995 120.5 7.69995C120.5 8.23328 120.267 8.53343 119.8 8.6001C118.533 8.73343 117.433 9.13338 116.5 9.80005C115.633 10.4667 114.833 11.3332 114.1 12.3999V19.2C114.1 19.4 114.033 19.6 113.9 19.8C113.767 19.9334 113.567 20 113.3 20ZM125 0.100098C125.4 0.100098 125.733 0.266764 126 0.600098C126.267 0.866764 126.4 1.26672 126.4 1.80005C126.4 2.26672 126.267 2.63324 126 2.8999C125.733 3.16657 125.4 3.30005 125 3.30005C124.6 3.30005 124.267 3.16657 124 2.8999C123.733 2.63324 123.6 2.26672 123.6 1.80005C123.6 1.26672 123.733 0.866764 124 0.600098C124.267 0.266764 124.6 0.100098 125 0.100098ZM124.2 19.2V7.80005C124.2 7.53338 124.267 7.33328 124.4 7.19995C124.6 6.99995 124.8 6.8999 125 6.8999C125.267 6.8999 125.467 6.99995 125.6 7.19995C125.8 7.33328 125.9 7.53338 125.9 7.80005V19.2C125.9 19.4 125.8 19.6 125.6 19.8C125.467 19.9334 125.267 20 125 20C124.8 20 124.6 19.9334 124.4 19.8C124.267 19.6 124.2 19.4 124.2 19.2ZM137.1 6.80005C138.5 6.80005 139.667 7.09995 140.6 7.69995C141.6 8.29995 142.367 9.13328 142.9 10.2C143.5 11.2 143.8 12.3334 143.8 13.6001C143.8 14.8668 143.5 15.9666 142.9 16.8999C142.367 17.8999 141.6 18.7 140.6 19.3C139.667 19.8334 138.5 20.1001 137.1 20.1001C135.767 20.1001 134.6 19.8334 133.6 19.3C132.6 18.7 131.833 17.8999 131.3 16.8999C130.767 15.8999 130.5 14.8001 130.5 13.6001C130.5 12.3334 130.767 11.2 131.3 10.2C131.833 9.13328 132.6 8.29995 133.6 7.69995C134.6 7.09995 135.767 6.80005 137.1 6.80005ZM137.1 8.5C136.1 8.5 135.233 8.73328 134.5 9.19995C133.767 9.66662 133.2 10.2667 132.8 11C132.4 11.8 132.2 12.6668 132.2 13.6001C132.2 14.9334 132.633 16.1001 133.5 17.1001C134.433 18.0334 135.633 18.5 137.1 18.5C138.633 18.5 139.833 18.0334 140.7 17.1001C141.633 16.1668 142.1 15.0001 142.1 13.6001C142.1 12.6668 141.9 11.8 141.5 11C141.1 10.2667 140.533 9.66662 139.8 9.19995C139.067 8.73328 138.167 8.5 137.1 8.5ZM167.3 4.3999C166.767 4.13324 166.2 3.93338 165.6 3.80005C164.933 3.66672 164.1 3.6001 163.1 3.6001C161.967 3.6001 161.067 3.9 160.4 4.5C159.733 5.03333 159.4 5.66657 159.4 6.3999C159.4 7.13324 159.7 7.76672 160.3 8.30005C160.967 8.90005 162.2 9.40005 164 9.80005C165.6 10.2 166.833 10.6666 167.7 11.2C168.567 11.7333 169.167 12.3668 169.5 13.1001C169.9 13.7668 170.1 14.5332 170.1 15.3999C170.1 16.1999 169.867 17 169.4 17.8C169 18.5334 168.333 19.1334 167.4 19.6001C166.533 20.0668 165.333 20.3 163.8 20.3C161.6 20.3 159.567 19.8 157.7 18.8C157.433 18.6 157.3 18.3333 157.3 18C157.3 17.8 157.367 17.6333 157.5 17.5C157.7 17.3 157.9 17.2 158.1 17.2C158.233 17.2 158.367 17.2334 158.5 17.3C160.1 18.1667 161.867 18.6001 163.8 18.6001C165.267 18.6001 166.4 18.3 167.2 17.7C168 17.0333 168.4 16.2666 168.4 15.3999C168.4 14.4666 168.033 13.7001 167.3 13.1001C166.567 12.4334 165.333 11.9 163.6 11.5C162.067 11.1 160.867 10.6334 160 10.1001C159.133 9.63343 158.533 9.06657 158.2 8.3999C157.867 7.73324 157.7 7.03338 157.7 6.30005C157.7 5.56672 157.9 4.86662 158.3 4.19995C158.767 3.53328 159.4 3.0001 160.2 2.6001C161 2.2001 161.967 2 163.1 2C164.3 2 165.267 2.10005 166 2.30005C166.8 2.43338 167.6 2.66667 168.4 3C168.733 3.13333 168.9 3.40005 168.9 3.80005C168.9 4.00005 168.833 4.1999 168.7 4.3999C168.5 4.53324 168.3 4.6001 168.1 4.6001C168.033 4.6001 167.967 4.6001 167.9 4.6001C167.833 4.53343 167.633 4.46657 167.3 4.3999ZM180.9 20C178.767 20 177.033 19.4334 175.7 18.3C174.433 17.2334 173.8 15.6668 173.8 13.6001C173.8 12.2668 174.1 11.1001 174.7 10.1001C175.233 9.1001 176 8.33338 177 7.80005C177.933 7.20005 179 6.8999 180.2 6.8999C181.4 6.8999 182.4 7.13343 183.2 7.6001C184 8.06676 184.6 8.66657 185 9.3999C185.4 10.0666 185.6 10.7332 185.6 11.3999C185.6 12.1999 185.333 12.9 184.8 13.5C184.333 14.0333 183.4 14.3 182 14.3H175.5C175.7 15.6334 176.267 16.6334 177.2 17.3C178.2 17.9667 179.433 18.3 180.9 18.3C181.433 18.3 181.933 18.2666 182.4 18.2C182.867 18.1333 183.233 18.0332 183.5 17.8999C183.7 17.8332 183.833 17.8 183.9 17.8C184.033 17.7334 184.1 17.7 184.1 17.7C184.367 17.7 184.567 17.8 184.7 18C184.9 18.1333 185 18.3334 185 18.6001C185 18.9334 184.8 19.1667 184.4 19.3C183.933 19.5 183.4 19.6667 182.8 19.8C182.2 19.9334 181.567 20 180.9 20ZM180.2 8.6001C179 8.6001 177.967 8.96662 177.1 9.69995C176.233 10.4333 175.7 11.4333 175.5 12.7H182.1C183.367 12.7 184 12.2666 184 11.3999C184 10.7332 183.633 10.1 182.9 9.5C182.233 8.9 181.333 8.6001 180.2 8.6001ZM191.3 0.100098C191.7 0.100098 192.033 0.266764 192.3 0.600098C192.567 0.866764 192.7 1.26672 192.7 1.80005C192.7 2.26672 192.567 2.63324 192.3 2.8999C192.033 3.16657 191.733 3.30005 191.4 3.30005C191 3.30005 190.633 3.16657 190.3 2.8999C190.033 2.63324 189.9 2.26672 189.9 1.80005C189.9 1.26672 190.033 0.866764 190.3 0.600098C190.567 0.266764 190.9 0.100098 191.3 0.100098ZM190.5 19.2V7.80005C190.5 7.53338 190.6 7.33328 190.8 7.19995C190.933 6.99995 191.133 6.8999 191.4 6.8999C191.6 6.8999 191.8 6.99995 192 7.19995C192.133 7.33328 192.2 7.53338 192.2 7.80005V19.2C192.2 19.4 192.133 19.6 192 19.8C191.8 19.9334 191.6 20 191.4 20C191.133 20 190.933 19.9334 190.8 19.8C190.6 19.6 190.5 19.4 190.5 19.2ZM208.4 20C208.067 20 207.833 19.9 207.7 19.7L202.9 12.8L199.7 15.3V19.2C199.7 19.4 199.633 19.6 199.5 19.8C199.367 19.9334 199.167 20 198.9 20C198.7 20 198.5 19.9334 198.3 19.8C198.167 19.6 198.1 19.4 198.1 19.2V2.1001C198.1 1.9001 198.167 1.7 198.3 1.5C198.5 1.36667 198.7 1.30005 198.9 1.30005C199.167 1.30005 199.367 1.36667 199.5 1.5C199.633 1.7 199.7 1.9001 199.7 2.1001V13.2L207.5 7.1001C207.633 6.96676 207.767 6.8999 207.9 6.8999C208.167 6.8999 208.367 6.99995 208.5 7.19995C208.7 7.33328 208.8 7.49995 208.8 7.69995C208.8 8.03328 208.7 8.26657 208.5 8.3999L204.2 11.8L209.1 18.7C209.167 18.8333 209.2 19 209.2 19.2C209.2 19.4 209.133 19.6 209 19.8C208.8 19.9334 208.6 20 208.4 20ZM214.7 0.100098C215.1 0.100098 215.433 0.266764 215.7 0.600098C215.967 0.866764 216.1 1.26672 216.1 1.80005C216.1 2.26672 215.967 2.63324 215.7 2.8999C215.433 3.16657 215.1 3.30005 214.7 3.30005C214.3 3.30005 213.967 3.16657 213.7 2.8999C213.433 2.63324 213.3 2.26672 213.3 1.80005C213.3 1.26672 213.433 0.866764 213.7 0.600098C213.967 0.266764 214.3 0.100098 214.7 0.100098ZM213.9 19.2V7.80005C213.9 7.53338 213.967 7.33328 214.1 7.19995C214.3 6.99995 214.5 6.8999 214.7 6.8999C214.967 6.8999 215.167 6.99995 215.3 7.19995C215.5 7.33328 215.6 7.53338 215.6 7.80005V19.2C215.6 19.4 215.5 19.6 215.3 19.8C215.167 19.9334 214.967 20 214.7 20C214.5 20 214.3 19.9334 214.1 19.8C213.967 19.6 213.9 19.4 213.9 19.2ZM14.3 60C14.1 60 13.9 59.9334 13.7 59.8C13.5666 59.6 13.5 59.4 13.5 59.2V51.3H2.30005V59.2C2.30005 59.4 2.23331 59.6 2.09998 59.8C1.89998 59.9334 1.7 60 1.5 60C1.23333 60 1.03336 59.9334 0.900024 59.8C0.700024 59.6 0.599976 59.4 0.599976 59.2V43C0.599976 42.7333 0.700024 42.5332 0.900024 42.3999C1.03336 42.2666 1.23333 42.2 1.5 42.2C1.7 42.2 1.89998 42.2666 2.09998 42.3999C2.23331 42.5332 2.30005 42.7333 2.30005 43V49.7H13.5V43C13.5 42.7333 13.5666 42.5332 13.7 42.3999C13.9 42.2666 14.1 42.2 14.3 42.2C14.5667 42.2 14.7667 42.2666 14.9 42.3999C15.0334 42.5332 15.1 42.7333 15.1 43V59.2C15.1 59.4 15.0334 59.6 14.9 59.8C14.7667 59.9334 14.5667 60 14.3 60ZM27.1 60C24.9666 60 23.2667 59.4334 22 58.3C20.6667 57.2334 20 55.6668 20 53.6001C20 52.2668 20.3 51.1001 20.9 50.1001C21.5 49.1001 22.2666 48.3334 23.2 47.8C24.2 47.2 25.2667 46.8999 26.4 46.8999C27.6 46.8999 28.6 47.1334 29.4 47.6001C30.2 48.0668 30.8 48.6666 31.2 49.3999C31.6 50.0666 31.8 50.7332 31.8 51.3999C31.8 52.1999 31.5666 52.9 31.1 53.5C30.5666 54.0333 29.6334 54.3 28.3 54.3H21.7C21.9 55.6334 22.5 56.6334 23.5 57.3C24.5 57.9667 25.7 58.3 27.1 58.3C27.7 58.3 28.2 58.2666 28.6 58.2C29.0666 58.1333 29.4333 58.0332 29.7 57.8999C29.9666 57.8332 30.1333 57.8 30.2 57.8C30.2666 57.7334 30.3334 57.7 30.4 57.7C30.6 57.7 30.7667 57.8 30.9 58C31.1 58.1333 31.2 58.3334 31.2 58.6001C31.2 58.9334 31.0333 59.1667 30.7 59.3C30.2333 59.5 29.6667 59.6667 29 59.8C28.4 59.9334 27.7666 60 27.1 60ZM26.4 48.6001C25.2667 48.6001 24.2667 48.9666 23.4 49.7C22.5334 50.4333 22 51.4333 21.8 52.7H28.3C29.5667 52.7 30.2 52.2666 30.2 51.3999C30.2 50.7332 29.8666 50.1 29.2 49.5C28.4666 48.9 27.5334 48.6001 26.4 48.6001ZM45.7 59.7C45.1666 59.1666 44.7667 58.5334 44.5 57.8C43.7667 58.4667 42.9333 58.9999 42 59.3999C41.1333 59.7999 40.1666 60 39.1 60C38.1 60 37.3 59.7999 36.7 59.3999C36.1 59.0666 35.6667 58.6 35.4 58C35.2 57.4667 35.1 56.9667 35.1 56.5C35.1 55.9667 35.1667 55.4332 35.3 54.8999C35.5 54.4332 35.8 54.0001 36.2 53.6001C36.8 53.0668 37.5667 52.6334 38.5 52.3C39.4333 51.9667 40.5667 51.8 41.9 51.8C42.6334 51.8 43.4 51.8332 44.2 51.8999C44.0666 50.8999 43.7333 50.1 43.2 49.5C42.6 48.9 41.7333 48.6001 40.6 48.6001C40.1333 48.6001 39.6666 48.6333 39.2 48.7C38.7333 48.7666 38.3666 48.8667 38.1 49C37.8333 49.0667 37.6333 49.1001 37.5 49.1001C37.3 49.1001 37.1 49.0332 36.9 48.8999C36.7 48.6999 36.6 48.5 36.6 48.3C36.6 47.9 36.8 47.6333 37.2 47.5C37.6 47.3667 38.1 47.2334 38.7 47.1001C39.3666 46.9668 40 46.8999 40.6 46.8999C42.4 46.8999 43.7333 47.3999 44.6 48.3999C45.4666 49.3999 45.9 50.7 45.9 52.3V55.3999C45.9 56.1332 45.9666 56.7667 46.1 57.3C46.3 57.7667 46.5667 58.2001 46.9 58.6001C47.0334 58.7334 47.1 58.9001 47.1 59.1001C47.1 59.3668 47 59.5666 46.8 59.7C46.6667 59.9 46.5 60 46.3 60C46.0334 60 45.8333 59.9 45.7 59.7ZM39.1 58.3C40.1 58.3 41.0334 58.1 41.9 57.7C42.7667 57.2333 43.5333 56.5666 44.2 55.7V53.5C43.4 53.4333 42.6334 53.3999 41.9 53.3999C39.7667 53.3999 38.2667 53.8333 37.4 54.7C37.1334 54.9666 36.9667 55.2668 36.9 55.6001C36.7667 55.8668 36.7 56.1667 36.7 56.5C36.7 56.9 36.9 57.3 37.3 57.7C37.7 58.1 38.3 58.3 39.1 58.3ZM61.6 60C61.3333 60 61.1333 59.9334 61 59.8C60.8 59.6 60.7 59.4 60.7 59.2V57.8C60.1 58.4667 59.3667 58.9999 58.5 59.3999C57.7 59.7999 56.8334 60 55.9 60C54.7667 60 53.7667 59.7333 52.9 59.2C52.0334 58.7333 51.3334 58.0334 50.8 57.1001C50.2667 56.1001 50 54.9666 50 53.7C50 52.3666 50.3 51.2 50.9 50.2C51.4334 49.2 52.2 48.4 53.2 47.8C54.2 47.2 55.3333 46.8999 56.6 46.8999C57.4 46.8999 58.1334 47.0334 58.8 47.3C59.4667 47.5 60.1 47.7668 60.7 48.1001V42.1001C60.7 41.9001 60.8 41.7 61 41.5C61.1333 41.3667 61.3333 41.3 61.6 41.3C61.8 41.3 62 41.3667 62.2 41.5C62.3333 41.7 62.4 41.9001 62.4 42.1001V59.2C62.4 59.4 62.3333 59.6 62.2 59.8C62 59.9334 61.8 60 61.6 60ZM55.9 58.3C56.9667 58.3 57.9 58.0333 58.7 57.5C59.5 56.9 60.1666 56.1333 60.7 55.2V50.1001C60.1 49.6334 59.4667 49.2667 58.8 49C58.1334 48.7333 57.4 48.6001 56.6 48.6001C55.6666 48.6001 54.8333 48.8334 54.1 49.3C53.3666 49.7 52.7667 50.3001 52.3 51.1001C51.9 51.8334 51.7 52.7 51.7 53.7C51.7 55.1 52.1 56.2334 52.9 57.1001C53.7 57.9001 54.7 58.3 55.9 58.3ZM83.1 46.8C84.4333 46.8 85.6 47.1 86.6 47.7C87.6 48.3 88.3667 49.1333 88.9 50.2C89.4334 51.2 89.7 52.3334 89.7 53.6001C89.7 54.8668 89.4334 55.9666 88.9 56.8999C88.3667 57.8999 87.6 58.7 86.6 59.3C85.6 59.8334 84.4333 60.1001 83.1 60.1001C81.7666 60.1001 80.6 59.8334 79.6 59.3C78.6 58.7 77.8 57.8999 77.2 56.8999C76.6666 55.8999 76.4 54.8001 76.4 53.6001C76.4 52.3334 76.6666 51.2 77.2 50.2C77.7333 49.1333 78.5 48.3 79.5 47.7C80.5 47.1 81.7 46.8 83.1 46.8ZM83.1 48.5C82.0333 48.5 81.1334 48.7333 80.4 49.2C79.6667 49.6666 79.1 50.2667 78.7 51C78.3 51.8 78.1 52.6668 78.1 53.6001C78.1 54.9334 78.5334 56.1001 79.4 57.1001C80.3334 58.0334 81.5666 58.5 83.1 58.5C84.5666 58.5 85.7666 58.0334 86.7 57.1001C87.5666 56.1668 88 55.0001 88 53.6001C88 52.6668 87.8 51.8 87.4 51C87 50.2667 86.4333 49.6666 85.7 49.2C84.9666 48.7333 84.1 48.5 83.1 48.5ZM96.1 60C95.9 60 95.7 59.9334 95.5 59.8C95.3667 59.6 95.3 59.4 95.3 59.2V48.6001H93.2C93 48.6001 92.8 48.5332 92.6 48.3999C92.4666 48.1999 92.4 48 92.4 47.8C92.4 47.5334 92.4666 47.3333 92.6 47.2C92.8 47 93 46.8999 93.2 46.8999H95.3V45.3C95.3 43.7 95.7666 42.5 96.7 41.7C97.7 40.9 99.0333 40.5 100.7 40.5C100.967 40.5 101.167 40.5666 101.3 40.7C101.433 40.8333 101.5 41.0334 101.5 41.3C101.5 41.5 101.433 41.6999 101.3 41.8999C101.1 42.0332 100.9 42.1001 100.7 42.1001C99.3666 42.1001 98.4 42.4 97.8 43C97.2667 43.6 97 44.3667 97 45.3V46.8999H100.7C100.967 46.8999 101.167 47 101.3 47.2C101.5 47.3333 101.6 47.5334 101.6 47.8C101.6 48 101.5 48.1999 101.3 48.3999C101.167 48.5332 100.967 48.6001 100.7 48.6001H97V59.2C97 59.4 96.9 59.6 96.7 59.8C96.5666 59.9334 96.3666 60 96.1 60ZM121.8 60H116C115.733 60 115.533 59.9334 115.4 59.8C115.2 59.6 115.1 59.4 115.1 59.2V43C115.1 42.7333 115.2 42.5332 115.4 42.3999C115.533 42.2666 115.733 42.2 116 42.2H121.8C123.267 42.2 124.633 42.5667 125.9 43.3C127.233 44.0334 128.267 45.0666 129 46.3999C129.8 47.7332 130.2 49.3001 130.2 51.1001C130.2 52.7668 129.867 54.2668 129.2 55.6001C128.467 56.9334 127.467 58 126.2 58.8C125 59.6 123.533 60 121.8 60ZM121.8 43.8H116.8V58.3H121.8C123.2 58.3 124.4 57.9999 125.4 57.3999C126.4 56.7332 127.167 55.8333 127.7 54.7C128.3 53.6333 128.6 52.4334 128.6 51.1001C128.6 49.7001 128.267 48.4334 127.6 47.3C127 46.2334 126.2 45.4 125.2 44.8C124.133 44.1334 123 43.8 121.8 43.8ZM141 60C138.867 60 137.133 59.4334 135.8 58.3C134.533 57.2334 133.9 55.6668 133.9 53.6001C133.9 52.2668 134.2 51.1001 134.8 50.1001C135.333 49.1001 136.1 48.3334 137.1 47.8C138.033 47.2 139.1 46.8999 140.3 46.8999C141.5 46.8999 142.5 47.1334 143.3 47.6001C144.1 48.0668 144.7 48.6666 145.1 49.3999C145.5 50.0666 145.7 50.7332 145.7 51.3999C145.7 52.1999 145.433 52.9 144.9 53.5C144.433 54.0333 143.5 54.3 142.1 54.3H135.6C135.8 55.6334 136.367 56.6334 137.3 57.3C138.3 57.9667 139.533 58.3 141 58.3C141.533 58.3 142.033 58.2666 142.5 58.2C142.967 58.1333 143.333 58.0332 143.6 57.8999C143.8 57.8332 143.933 57.8 144 57.8C144.133 57.7334 144.2 57.7 144.2 57.7C144.467 57.7 144.667 57.8 144.8 58C145 58.1333 145.1 58.3334 145.1 58.6001C145.1 58.9334 144.9 59.1667 144.5 59.3C144.033 59.5 143.5 59.6667 142.9 59.8C142.3 59.9334 141.667 60 141 60ZM140.3 48.6001C139.1 48.6001 138.067 48.9666 137.2 49.7C136.333 50.4333 135.8 51.4333 135.6 52.7H142.2C143.467 52.7 144.1 52.2666 144.1 51.3999C144.1 50.7332 143.733 50.1 143 49.5C142.333 48.9 141.433 48.6001 140.3 48.6001ZM155.2 60.1001H155.1C154.767 60.1001 154.533 59.9666 154.4 59.7C153.467 58.3 152.6 56.7668 151.8 55.1001C151 53.3668 150.233 51.7001 149.5 50.1001C149.233 49.3668 149.033 48.7999 148.9 48.3999C148.767 47.9999 148.7 47.8 148.7 47.8C148.7 47.5334 148.767 47.3333 148.9 47.2C149.1 47 149.3 46.8999 149.5 46.8999C149.9 46.8999 150.167 47.1 150.3 47.5C151.167 49.7 152 51.6334 152.8 53.3C153.6 54.9667 154.367 56.4333 155.1 57.7C155.633 56.7666 156.167 55.7 156.7 54.5C157.233 53.3 157.767 52.0999 158.3 50.8999C158.833 49.6999 159.267 48.5667 159.6 47.5C159.733 47.1 160 46.8999 160.4 46.8999C160.6 46.8999 160.8 47 161 47.2C161.133 47.3333 161.2 47.5334 161.2 47.8C161.2 48 160.967 48.6667 160.5 49.8C160.167 50.6667 159.767 51.6999 159.3 52.8999C158.767 54.0332 158.2 55.2333 157.6 56.5C157.067 57.7 156.5 58.7666 155.9 59.7C155.7 59.9666 155.467 60.1001 155.2 60.1001ZM170.9 60C168.767 60 167.033 59.4334 165.7 58.3C164.433 57.2334 163.8 55.6668 163.8 53.6001C163.8 52.2668 164.067 51.1001 164.6 50.1001C165.2 49.1001 165.967 48.3334 166.9 47.8C167.9 47.2 169 46.8999 170.2 46.8999C171.333 46.8999 172.3 47.1334 173.1 47.6001C173.9 48.0668 174.5 48.6666 174.9 49.3999C175.367 50.0666 175.6 50.7332 175.6 51.3999C175.6 52.1999 175.333 52.9 174.8 53.5C174.333 54.0333 173.4 54.3 172 54.3H165.5C165.633 55.6334 166.2 56.6334 167.2 57.3C168.2 57.9667 169.433 58.3 170.9 58.3C171.433 58.3 171.933 58.2666 172.4 58.2C172.867 58.1333 173.2 58.0332 173.4 57.8999C173.667 57.8332 173.833 57.8 173.9 57.8C173.967 57.7334 174.033 57.7 174.1 57.7C174.3 57.7 174.5 57.8 174.7 58C174.833 58.1333 174.9 58.3334 174.9 58.6001C174.9 58.9334 174.733 59.1667 174.4 59.3C173.933 59.5 173.4 59.6667 172.8 59.8C172.133 59.9334 171.5 60 170.9 60ZM170.2 48.6001C169 48.6001 167.967 48.9666 167.1 49.7C166.233 50.4333 165.7 51.4333 165.5 52.7H172C173.267 52.7 173.9 52.2666 173.9 51.3999C173.9 50.7332 173.567 50.1 172.9 49.5C172.233 48.9 171.333 48.6001 170.2 48.6001ZM180.5 59.2V42.1001C180.5 41.9001 180.567 41.7 180.7 41.5C180.9 41.3667 181.1 41.3 181.3 41.3C181.567 41.3 181.767 41.3667 181.9 41.5C182.1 41.7 182.2 41.9001 182.2 42.1001V59.2C182.2 59.4 182.1 59.6 181.9 59.8C181.767 59.9334 181.567 60 181.3 60C181.1 60 180.9 59.9334 180.7 59.8C180.567 59.6 180.5 59.4 180.5 59.2ZM193.4 46.8C194.8 46.8 195.967 47.1 196.9 47.7C197.9 48.3 198.667 49.1333 199.2 50.2C199.8 51.2 200.1 52.3334 200.1 53.6001C200.1 54.8668 199.8 55.9666 199.2 56.8999C198.667 57.8999 197.9 58.7 196.9 59.3C195.967 59.8334 194.8 60.1001 193.4 60.1001C192.067 60.1001 190.9 59.8334 189.9 59.3C188.9 58.7 188.133 57.8999 187.6 56.8999C187.067 55.8999 186.8 54.8001 186.8 53.6001C186.8 52.3334 187.067 51.2 187.6 50.2C188.133 49.1333 188.9 48.3 189.9 47.7C190.9 47.1 192.067 46.8 193.4 46.8ZM193.4 48.5C192.4 48.5 191.533 48.7333 190.8 49.2C190.067 49.6666 189.5 50.2667 189.1 51C188.7 51.8 188.5 52.6668 188.5 53.6001C188.5 54.9334 188.933 56.1001 189.8 57.1001C190.733 58.0334 191.933 58.5 193.4 58.5C194.933 58.5 196.133 58.0334 197 57.1001C197.933 56.1668 198.4 55.0001 198.4 53.6001C198.4 52.6668 198.2 51.8 197.8 51C197.4 50.2667 196.833 49.6666 196.1 49.2C195.367 48.7333 194.467 48.5 193.4 48.5ZM206.2 58.6001V65.5C206.2 65.7667 206.133 65.9668 206 66.1001C205.8 66.3001 205.6 66.3999 205.4 66.3999C205.133 66.3999 204.933 66.3001 204.8 66.1001C204.6 65.9668 204.5 65.7667 204.5 65.5V47.8C204.5 47.5334 204.6 47.3333 204.8 47.2C204.933 47 205.133 46.8999 205.4 46.8999C205.6 46.8999 205.8 47 206 47.2C206.133 47.3333 206.2 47.5334 206.2 47.8V49.1001C206.933 48.4334 207.667 47.9 208.4 47.5C209.2 47.1 210.033 46.8999 210.9 46.8999C211.967 46.8999 212.933 47.1666 213.8 47.7C214.733 48.1666 215.467 48.8999 216 49.8999C216.6 50.8332 216.9 52.0333 216.9 53.5C216.9 54.7 216.633 55.8 216.1 56.8C215.567 57.8 214.8 58.6 213.8 59.2C212.867 59.7333 211.767 60 210.5 60C209.767 60 209.033 59.8668 208.3 59.6001C207.567 59.4001 206.867 59.0668 206.2 58.6001ZM210.5 58.3C211.9 58.3 213.033 57.8332 213.9 56.8999C214.767 55.9666 215.2 54.8333 215.2 53.5C215.2 51.9 214.767 50.6999 213.9 49.8999C213.1 49.0332 212.1 48.6001 210.9 48.6001C209.967 48.6001 209.1 48.8666 208.3 49.3999C207.567 49.9332 206.867 50.6668 206.2 51.6001V56.6001C206.867 57.1334 207.567 57.5666 208.3 57.8999C209.033 58.1666 209.767 58.3 210.5 58.3ZM240.2 60C240 60 239.8 59.9334 239.6 59.8C239.467 59.6 239.4 59.4 239.4 59.2V52.2C239.4 50.8666 239.133 49.9332 238.6 49.3999C238.067 48.8666 237.4 48.6001 236.6 48.6001C235.733 48.6001 234.933 48.8334 234.2 49.3C233.4 49.7667 232.667 50.3668 232 51.1001V59.2C232 59.4 231.933 59.6 231.8 59.8C231.667 59.9334 231.467 60 231.2 60C231 60 230.8 59.9334 230.6 59.8C230.467 59.6 230.4 59.4 230.4 59.2V52.2C230.4 50.8666 230.133 49.9332 229.6 49.3999C229.067 48.8666 228.4 48.6001 227.6 48.6001C226.733 48.6001 225.9 48.8666 225.1 49.3999C224.3 49.8666 223.6 50.4666 223 51.2V59.2C223 59.4 222.9 59.6 222.7 59.8C222.567 59.9334 222.367 60 222.1 60C221.9 60 221.7 59.9334 221.5 59.8C221.367 59.6 221.3 59.4 221.3 59.2V47.8C221.3 47.5334 221.367 47.3333 221.5 47.2C221.7 47 221.9 46.8999 222.1 46.8999C222.367 46.8999 222.567 47 222.7 47.2C222.9 47.3333 223 47.5334 223 47.8V48.8999C223.667 48.2999 224.4 47.8333 225.2 47.5C226 47.1 226.8 46.8999 227.6 46.8999C228.467 46.8999 229.233 47.0666 229.9 47.3999C230.633 47.7332 231.2 48.3333 231.6 49.2C232.333 48.5333 233.133 48.0001 234 47.6001C234.867 47.1334 235.733 46.8999 236.6 46.8999C237.4 46.8999 238.133 47.0666 238.8 47.3999C239.467 47.6666 240 48.1666 240.4 48.8999C240.8 49.6332 241 50.7333 241 52.2V59.2C241 59.4 240.933 59.6 240.8 59.8C240.667 59.9334 240.467 60 240.2 60ZM252.3 60C250.167 60 248.433 59.4334 247.1 58.3C245.833 57.2334 245.2 55.6668 245.2 53.6001C245.2 52.2668 245.467 51.1001 246 50.1001C246.6 49.1001 247.367 48.3334 248.3 47.8C249.3 47.2 250.4 46.8999 251.6 46.8999C252.733 46.8999 253.7 47.1334 254.5 47.6001C255.3 48.0668 255.9 48.6666 256.3 49.3999C256.767 50.0666 257 50.7332 257 51.3999C257 52.1999 256.733 52.9 256.2 53.5C255.733 54.0333 254.8 54.3 253.4 54.3H246.9C247.033 55.6334 247.6 56.6334 248.6 57.3C249.6 57.9667 250.833 58.3 252.3 58.3C252.833 58.3 253.333 58.2666 253.8 58.2C254.267 58.1333 254.6 58.0332 254.8 57.8999C255.067 57.8332 255.233 57.8 255.3 57.8C255.367 57.7334 255.433 57.7 255.5 57.7C255.7 57.7 255.9 57.8 256.1 58C256.233 58.1333 256.3 58.3334 256.3 58.6001C256.3 58.9334 256.133 59.1667 255.8 59.3C255.333 59.5 254.8 59.6667 254.2 59.8C253.533 59.9334 252.9 60 252.3 60ZM251.6 48.6001C250.4 48.6001 249.367 48.9666 248.5 49.7C247.633 50.4333 247.1 51.4333 246.9 52.7H253.4C254.667 52.7 255.3 52.2666 255.3 51.3999C255.3 50.7332 254.967 50.1 254.3 49.5C253.633 48.9 252.733 48.6001 251.6 48.6001ZM272.1 60C271.9 60 271.7 59.9334 271.5 59.8C271.367 59.6 271.3 59.4 271.3 59.2V52.5C271.3 51.1 271.033 50.1 270.5 49.5C269.967 48.9 269.267 48.6001 268.4 48.6001C267.467 48.6001 266.567 48.8666 265.7 49.3999C264.833 49.8666 264.067 50.4666 263.4 51.2V59.2C263.4 59.4 263.3 59.6 263.1 59.8C262.967 59.9334 262.767 60 262.5 60C262.3 60 262.1 59.9334 261.9 59.8C261.767 59.6 261.7 59.4 261.7 59.2V47.8C261.7 47.5334 261.767 47.3333 261.9 47.2C262.1 47 262.3 46.8999 262.5 46.8999C262.767 46.8999 262.967 47 263.1 47.2C263.3 47.3333 263.4 47.5334 263.4 47.8V49C264.133 48.4 264.9 47.9 265.7 47.5C266.567 47.1 267.467 46.8999 268.4 46.8999C269.2 46.8999 269.967 47.0666 270.7 47.3999C271.367 47.7332 271.9 48.3333 272.3 49.2C272.7 50 272.9 51.1 272.9 52.5V59.2C272.9 59.4 272.833 59.6 272.7 59.8C272.567 59.9334 272.367 60 272.1 60ZM284.7 60C282.7 60 281.267 59.5666 280.4 58.7C279.533 57.8333 279.1 56.7 279.1 55.3V48.6001H277C276.733 48.6001 276.533 48.5332 276.4 48.3999C276.2 48.1999 276.1 48 276.1 47.8C276.1 47.5334 276.2 47.3333 276.4 47.2C276.533 47 276.733 46.8999 277 46.8999H279.1V43.6001C279.1 43.3334 279.167 43.1333 279.3 43C279.5 42.8 279.7 42.7 279.9 42.7C280.167 42.7 280.367 42.8 280.5 43C280.633 43.1333 280.7 43.3334 280.7 43.6001V46.8999H285.2C285.4 46.8999 285.6 47 285.8 47.2C285.933 47.3333 286 47.5334 286 47.8C286 48 285.933 48.1999 285.8 48.3999C285.6 48.5332 285.4 48.6001 285.2 48.6001H280.7V55.3C280.7 57.3 282.033 58.3 284.7 58.3C284.967 58.3 285.167 58.4001 285.3 58.6001C285.5 58.7334 285.6 58.9333 285.6 59.2C285.6 59.4 285.5 59.6 285.3 59.8C285.167 59.9334 284.967 60 284.7 60Z" fill="white"/>
</svg>
