<svg width="1401" height="123" viewBox="0 0 1401 123" fill="none" xmlns="http://www.w3.org/2000/svg">
<path d="M44.2 1.30005H1357C1380.7 1.30005 1400 20.5999 1400 44.3999V78.6001C1400 102.3 1380.7 121.6 1357 121.6H44.2C20.4 121.6 1.19995 102.3 1.19995 78.6001V44.3999C1.19995 20.5999 20.4 1.30005 44.2 1.30005ZM44.2 1.30005H1357C1380.7 1.30005 1400 20.5999 1400 44.3999V78.6001C1400 102.3 1380.7 121.6 1357 121.6H44.2C20.4 121.6 1.19995 102.3 1.19995 78.6001V44.3999C1.19995 20.5999 20.4 1.30005 44.2 1.30005Z" fill="#010101"/>
<path d="M44.2 1.30005H1357C1380.7 1.30005 1400 20.5999 1400 44.3999V78.6001C1400 102.3 1380.7 121.6 1357 121.6H44.2C20.4 121.6 1.19995 102.3 1.19995 78.6001V44.3999C1.19995 20.5999 20.4 1.30005 44.2 1.30005Z" stroke="black" stroke-miterlimit="100"/>
</svg>
