<svg width="279" height="65" viewBox="0 0 279 65" fill="none" xmlns="http://www.w3.org/2000/svg">
<path d="M129.8 19C129.4 19 129.133 18.8333 129 18.5C128.8 17.9 128.533 17.2333 128.2 16.5C127.867 15.7667 127.533 15.0002 127.2 14.2002H117.8C117.467 15.0002 117.167 15.7667 116.9 16.5C116.633 17.1667 116.4 17.7999 116.2 18.3999C116.133 18.5999 116 18.7666 115.8 18.8999C115.667 18.9666 115.5 19 115.3 19C115.1 19 114.933 18.9331 114.8 18.7998C114.6 18.5998 114.5 18.3668 114.5 18.1001C114.5 18.0334 114.533 17.9666 114.6 17.8999C114.6 17.7666 114.7 17.5001 114.9 17.1001C115.233 16.1001 115.667 14.9669 116.2 13.7002C116.733 12.3669 117.3 11.0001 117.9 9.6001C118.5 8.2001 119.1 6.7999 119.7 5.3999C120.367 3.9999 120.967 2.66657 121.5 1.3999C121.7 1.06657 121.967 0.899902 122.3 0.899902H122.5C122.9 0.899902 123.167 1.03314 123.3 1.2998C123.9 2.63314 124.533 4.03333 125.2 5.5C125.867 6.96667 126.533 8.43324 127.2 9.8999C127.8 11.3666 128.367 12.7333 128.9 14C129.433 15.2667 129.867 16.3001 130.2 17.1001C130.4 17.5001 130.5 17.7666 130.5 17.8999C130.567 18.0332 130.6 18.1335 130.6 18.2002C130.6 18.4002 130.5 18.5998 130.3 18.7998C130.167 18.9331 130 19 129.8 19ZM118.5 12.5H126.5C125.833 11.0333 125.167 9.4999 124.5 7.8999C123.767 6.36657 123.067 4.9 122.4 3.5C121.8 4.9 121.133 6.4 120.4 8C119.733 9.53333 119.1 11.0333 118.5 12.5ZM145.6 19C145.4 19 145.2 18.9331 145 18.7998C144.867 18.5998 144.8 18.4002 144.8 18.2002V16.7998C144.133 17.4665 143.4 17.9999 142.6 18.3999C141.8 18.7999 140.9 19 139.9 19C138.833 19 137.833 18.7335 136.9 18.2002C136.033 17.7335 135.333 17.0334 134.8 16.1001C134.333 15.1001 134.1 13.9669 134.1 12.7002C134.1 11.3669 134.367 10.2002 134.9 9.2002C135.5 8.2002 136.267 7.3998 137.2 6.7998C138.2 6.1998 139.333 5.8999 140.6 5.8999C141.4 5.8999 142.133 6.03314 142.8 6.2998C143.467 6.4998 144.133 6.76676 144.8 7.1001V1.1001C144.8 0.900098 144.867 0.7 145 0.5C145.2 0.366667 145.4 0.299805 145.6 0.299805C145.867 0.299805 146.067 0.366667 146.2 0.5C146.333 0.7 146.4 0.900098 146.4 1.1001V18.2002C146.4 18.4002 146.333 18.5998 146.2 18.7998C146.067 18.9331 145.867 19 145.6 19ZM139.9 17.2998C141.033 17.2998 141.967 17.0333 142.7 16.5C143.5 15.9 144.2 15.1335 144.8 14.2002V9.1001C144.133 8.63343 143.467 8.26667 142.8 8C142.2 7.73333 141.467 7.6001 140.6 7.6001C139.667 7.6001 138.833 7.83314 138.1 8.2998C137.367 8.6998 136.8 9.3001 136.4 10.1001C135.933 10.8334 135.7 11.7002 135.7 12.7002C135.7 14.1002 136.1 15.2334 136.9 16.1001C137.7 16.9001 138.7 17.2998 139.9 17.2998ZM161.7 19H151.6C151.4 19 151.2 18.9331 151 18.7998C150.867 18.5998 150.8 18.4002 150.8 18.2002C150.8 17.9335 150.933 17.6666 151.2 17.3999L159.5 7.6001H152.1C151.9 7.6001 151.7 7.53324 151.5 7.3999C151.367 7.1999 151.3 6.9998 151.3 6.7998C151.3 6.53314 151.367 6.33353 151.5 6.2002C151.7 6.0002 151.9 5.8999 152.1 5.8999H161.3C161.5 5.8999 161.7 6.0002 161.9 6.2002C162.033 6.33353 162.1 6.53314 162.1 6.7998C162.1 6.9998 162.033 7.16647 161.9 7.2998L153.4 17.2998H161.7C161.9 17.2998 162.1 17.4001 162.3 17.6001C162.433 17.7334 162.5 17.9335 162.5 18.2002C162.5 18.4002 162.433 18.5998 162.3 18.7998C162.1 18.9331 161.9 19 161.7 19ZM13.5 43.3999C12.4333 42.7999 11.0667 42.5 9.40002 42.5C8.06669 42.5 6.83335 42.8333 5.70001 43.5C4.56668 44.1667 3.66667 45.0669 3 46.2002C2.33333 47.3335 2 48.6669 2 50.2002C2 51.6002 2.30002 52.8667 2.90002 54C3.50002 55.1333 4.36667 56.0335 5.5 56.7002C6.63333 57.3002 7.99998 57.6001 9.59998 57.6001C10.4 57.6001 11.1333 57.5332 11.8 57.3999C12.5333 57.2666 13.1667 57.0335 13.7 56.7002C13.8333 56.6335 13.9666 56.6001 14.1 56.6001C14.3666 56.6001 14.5667 56.6999 14.7 56.8999C14.8333 57.0332 14.9 57.2333 14.9 57.5C14.9 57.8333 14.7667 58.0669 14.5 58.2002C13.8333 58.5335 13.0667 58.8 12.2 59C11.4 59.2 10.5333 59.2998 9.59998 59.2998C7.66664 59.2998 5.99998 58.9001 4.59998 58.1001C3.19998 57.3001 2.13336 56.1998 1.40002 54.7998C0.666691 53.4665 0.299988 51.9335 0.299988 50.2002C0.299988 48.3335 0.733309 46.6998 1.59998 45.2998C2.39998 43.8998 3.50002 42.8 4.90002 42C6.30002 41.2667 7.80002 40.8999 9.40002 40.8999C11.4 40.8999 13.0333 41.2332 14.3 41.8999C14.6333 42.0999 14.8 42.3669 14.8 42.7002C14.8 42.9002 14.7 43.0669 14.5 43.2002C14.3667 43.4002 14.1667 43.5 13.9 43.5C13.7667 43.5 13.6333 43.4666 13.5 43.3999ZM25.4 45.7998C26.7334 45.7998 27.9 46.1002 28.9 46.7002C29.9 47.3002 30.6667 48.1335 31.2 49.2002C31.7333 50.2002 32 51.3334 32 52.6001C32 53.8668 31.7333 54.9666 31.2 55.8999C30.6667 56.8999 29.9 57.6998 28.9 58.2998C27.9 58.8331 26.7334 59.1001 25.4 59.1001C24.0667 59.1001 22.9 58.8331 21.9 58.2998C20.9 57.6998 20.1 56.8999 19.5 55.8999C18.9667 54.8999 18.7 53.8001 18.7 52.6001C18.7 51.3334 18.9667 50.2002 19.5 49.2002C20.0333 48.1335 20.8 47.3002 21.8 46.7002C22.8 46.1002 24 45.7998 25.4 45.7998ZM25.4 47.5C24.3334 47.5 23.4333 47.7335 22.7 48.2002C21.9667 48.6669 21.4 49.2667 21 50C20.6 50.8 20.4 51.6668 20.4 52.6001C20.4 53.9334 20.8333 55.1001 21.7 56.1001C22.6333 57.0334 23.8667 57.5 25.4 57.5C26.8667 57.5 28.0667 57.0334 29 56.1001C29.8667 55.1668 30.3 54.0001 30.3 52.6001C30.3 51.6668 30.1 50.8 29.7 50C29.3 49.2667 28.7333 48.6669 28 48.2002C27.2667 47.7335 26.4 47.5 25.4 47.5ZM55.4 59C55.1334 59 54.9333 58.9331 54.8 58.7998C54.6 58.5998 54.5 58.4002 54.5 58.2002V51.2002C54.5 49.8669 54.2333 48.9332 53.7 48.3999C53.2333 47.8666 52.5667 47.6001 51.7 47.6001C50.9 47.6001 50.1 47.8331 49.3 48.2998C48.5667 48.7665 47.8667 49.3668 47.2 50.1001V58.2002C47.2 58.4002 47.1333 58.5998 47 58.7998C46.8 58.9331 46.6 59 46.4 59C46.1334 59 45.9333 58.9331 45.8 58.7998C45.6 58.5998 45.5 58.4002 45.5 58.2002V51.2002C45.5 49.8669 45.2333 48.9332 44.7 48.3999C44.2333 47.8666 43.5667 47.6001 42.7 47.6001C41.9 47.6001 41.1 47.8666 40.3 48.3999C39.5 48.8666 38.7666 49.4669 38.1 50.2002V58.2002C38.1 58.4002 38.0334 58.5998 37.9 58.7998C37.7667 58.9331 37.5667 59 37.3 59C37.1 59 36.9 58.9331 36.7 58.7998C36.5667 58.5998 36.5 58.4002 36.5 58.2002V46.7998C36.5 46.5331 36.5667 46.3335 36.7 46.2002C36.9 46.0002 37.1 45.8999 37.3 45.8999C37.5667 45.8999 37.7667 46.0002 37.9 46.2002C38.0334 46.3335 38.1 46.5331 38.1 46.7998V47.8999C38.8333 47.2999 39.6 46.8333 40.4 46.5C41.1334 46.1 41.9 45.8999 42.7 45.8999C43.5667 45.8999 44.3666 46.0666 45.1 46.3999C45.8333 46.7332 46.3667 47.3335 46.7 48.2002C47.5 47.5335 48.3 47.0001 49.1 46.6001C49.9666 46.1334 50.8333 45.8999 51.7 45.8999C52.5667 45.8999 53.3333 46.0666 54 46.3999C54.6667 46.6666 55.2 47.1666 55.6 47.8999C56 48.6332 56.2 49.7335 56.2 51.2002V58.2002C56.2 58.4002 56.1333 58.5998 56 58.7998C55.8 58.9331 55.6 59 55.4 59ZM80.4 59C80.2 59 80 58.9331 79.8 58.7998C79.6667 58.5998 79.6 58.4002 79.6 58.2002V51.2002C79.6 49.8669 79.3333 48.9332 78.8 48.3999C78.2667 47.8666 77.6 47.6001 76.8 47.6001C76 47.6001 75.2 47.8331 74.4 48.2998C73.6 48.7665 72.9 49.3668 72.3 50.1001V58.2002C72.3 58.4002 72.2 58.5998 72 58.7998C71.8667 58.9331 71.6667 59 71.4 59C71.2 59 71 58.9331 70.8 58.7998C70.6667 58.5998 70.6 58.4002 70.6 58.2002V51.2002C70.6 49.8669 70.3333 48.9332 69.8 48.3999C69.2667 47.8666 68.6 47.6001 67.8 47.6001C67 47.6001 66.2 47.8666 65.4 48.3999C64.6 48.8666 63.8667 49.4669 63.2 50.2002V58.2002C63.2 58.4002 63.1333 58.5998 63 58.7998C62.8 58.9331 62.6 59 62.4 59C62.1334 59 61.9333 58.9331 61.8 58.7998C61.6 58.5998 61.5 58.4002 61.5 58.2002V46.7998C61.5 46.5331 61.6 46.3335 61.8 46.2002C61.9333 46.0002 62.1334 45.8999 62.4 45.8999C62.6 45.8999 62.8 46.0002 63 46.2002C63.1333 46.3335 63.2 46.5331 63.2 46.7998V47.8999C63.9333 47.2999 64.6667 46.8333 65.4 46.5C66.2 46.1 67 45.8999 67.8 45.8999C68.6667 45.8999 69.4667 46.0666 70.2 46.3999C70.8667 46.7332 71.4 47.3335 71.8 48.2002C72.5333 47.5335 73.3333 47.0001 74.2 46.6001C75.0667 46.1334 75.9333 45.8999 76.8 45.8999C77.6 45.8999 78.3333 46.0666 79 46.3999C79.6667 46.6666 80.2 47.1666 80.6 47.8999C81.0666 48.6332 81.3 49.7335 81.3 51.2002V58.2002C81.3 58.4002 81.2 58.5998 81 58.7998C80.8667 58.9331 80.6667 59 80.4 59ZM96.7 59C96.4333 59 96.2333 58.9331 96.1 58.7998C95.9 58.5998 95.8 58.4002 95.8 58.2002V56.7002C95.0667 57.3669 94.2667 57.9332 93.4 58.3999C92.5334 58.7999 91.6667 59 90.8 59C90 59 89.2333 58.8333 88.5 58.5C87.8333 58.1667 87.3 57.5998 86.9 56.7998C86.5 55.9998 86.3 54.8666 86.3 53.3999V46.7998C86.3 46.5331 86.3667 46.3335 86.5 46.2002C86.7 46.0002 86.9 45.8999 87.1 45.8999C87.3666 45.8999 87.5667 46.0002 87.7 46.2002C87.8333 46.3335 87.9 46.5331 87.9 46.7998V53.3999C87.9 54.7999 88.1667 55.7999 88.7 56.3999C89.2333 56.9999 89.9333 57.2998 90.8 57.2998C91.7333 57.2998 92.6333 57.0333 93.5 56.5C94.4333 55.9 95.2 55.1665 95.8 54.2998V46.7998C95.8 46.5331 95.9 46.3335 96.1 46.2002C96.2333 46.0002 96.4333 45.8999 96.7 45.8999C96.9 45.8999 97.1 46.0002 97.3 46.2002C97.4333 46.3335 97.5 46.5331 97.5 46.7998V58.2002C97.5 58.4002 97.4333 58.5998 97.3 58.7998C97.1 58.9331 96.9 59 96.7 59ZM113.6 59C113.333 59 113.133 58.9331 113 58.7998C112.8 58.5998 112.7 58.4002 112.7 58.2002V51.5C112.7 50.1 112.433 49.1 111.9 48.5C111.433 47.9 110.733 47.6001 109.8 47.6001C108.867 47.6001 108 47.8666 107.2 48.3999C106.333 48.8666 105.533 49.4669 104.8 50.2002V58.2002C104.8 58.4002 104.733 58.5998 104.6 58.7998C104.467 58.9331 104.267 59 104 59C103.8 59 103.6 58.9331 103.4 58.7998C103.267 58.5998 103.2 58.4002 103.2 58.2002V46.7998C103.2 46.5331 103.267 46.3335 103.4 46.2002C103.6 46.0002 103.8 45.8999 104 45.8999C104.267 45.8999 104.467 46.0002 104.6 46.2002C104.733 46.3335 104.8 46.5331 104.8 46.7998V48C105.6 47.4 106.4 46.9 107.2 46.5C108 46.1 108.867 45.8999 109.8 45.8999C110.667 45.8999 111.433 46.0666 112.1 46.3999C112.833 46.7332 113.4 47.3335 113.8 48.2002C114.2 49.0002 114.4 50.1 114.4 51.5V58.2002C114.4 58.4002 114.333 58.5998 114.2 58.7998C114 58.9331 113.8 59 113.6 59ZM120.7 39.1001C121.1 39.1001 121.433 39.2668 121.7 39.6001C121.967 39.8668 122.1 40.2665 122.1 40.7998C122.1 41.2665 121.967 41.6332 121.7 41.8999C121.433 42.1666 121.133 42.2998 120.8 42.2998C120.4 42.2998 120.033 42.1666 119.7 41.8999C119.433 41.6332 119.3 41.2665 119.3 40.7998C119.3 40.2665 119.433 39.8668 119.7 39.6001C119.967 39.2668 120.3 39.1001 120.7 39.1001ZM119.9 58.2002V46.7998C119.9 46.5331 120 46.3335 120.2 46.2002C120.333 46.0002 120.533 45.8999 120.8 45.8999C121 45.8999 121.2 46.0002 121.4 46.2002C121.533 46.3335 121.6 46.5331 121.6 46.7998V58.2002C121.6 58.4002 121.533 58.5998 121.4 58.7998C121.2 58.9331 121 59 120.8 59C120.533 59 120.333 58.9331 120.2 58.7998C120 58.5998 119.9 58.4002 119.9 58.2002ZM133.9 59C131.9 59 130.467 58.5669 129.6 57.7002C128.733 56.8335 128.3 55.6998 128.3 54.2998V47.6001H126.2C125.933 47.6001 125.733 47.5332 125.6 47.3999C125.4 47.1999 125.3 46.9998 125.3 46.7998C125.3 46.5331 125.4 46.3335 125.6 46.2002C125.733 46.0002 125.933 45.8999 126.2 45.8999H128.3V42.6001C128.3 42.3334 128.367 42.1333 128.5 42C128.7 41.8 128.9 41.7002 129.1 41.7002C129.367 41.7002 129.567 41.8 129.7 42C129.833 42.1333 129.9 42.3334 129.9 42.6001V45.8999H134.4C134.6 45.8999 134.8 46.0002 135 46.2002C135.133 46.3335 135.2 46.5331 135.2 46.7998C135.2 46.9998 135.133 47.1999 135 47.3999C134.8 47.5332 134.6 47.6001 134.4 47.6001H129.9V54.2998C129.9 56.2998 131.233 57.2998 133.9 57.2998C134.167 57.2998 134.367 57.4001 134.5 57.6001C134.7 57.7334 134.8 57.9335 134.8 58.2002C134.8 58.4002 134.7 58.5998 134.5 58.7998C134.367 58.9331 134.167 59 133.9 59ZM138.9 64.7998C138.7 64.7998 138.5 64.7334 138.3 64.6001C138.1 64.4001 138 64.2 138 64C138 63.6667 138.167 63.4002 138.5 63.2002C139.433 62.6669 140.333 62.0331 141.2 61.2998C142.067 60.5665 142.9 59.5335 143.7 58.2002C142.833 56.8669 141.933 55.3334 141 53.6001C140.067 51.8001 139.233 49.9668 138.5 48.1001C138.367 47.5668 138.267 47.2334 138.2 47.1001C138.133 46.9001 138.1 46.7669 138.1 46.7002C138.1 46.5002 138.167 46.3335 138.3 46.2002C138.5 46.0002 138.7 45.8999 138.9 45.8999C139.1 45.8999 139.267 45.9668 139.4 46.1001C139.533 46.1668 139.633 46.3 139.7 46.5C140.5 48.6333 141.333 50.5335 142.2 52.2002C143.067 53.8669 143.867 55.3334 144.6 56.6001C145.133 55.6001 145.667 54.5332 146.2 53.3999C146.733 52.2666 147.233 51.1333 147.7 50C148.167 48.8 148.533 47.6333 148.8 46.5C148.933 46.1 149.2 45.8999 149.6 45.8999C149.867 45.8999 150.067 46.0002 150.2 46.2002C150.4 46.3335 150.5 46.5331 150.5 46.7998C150.5 46.8665 150.433 47.0331 150.3 47.2998C150.233 47.5665 150.167 47.8 150.1 48C149.833 48.9333 149.433 50.0331 148.9 51.2998C148.367 52.5665 147.8 53.8334 147.2 55.1001C146.667 56.3668 146.1 57.5334 145.5 58.6001C144.5 60.2668 143.5 61.5332 142.5 62.3999C141.433 63.2666 140.367 64.0335 139.3 64.7002C139.167 64.7669 139.033 64.7998 138.9 64.7998ZM185.2 59.1001C185 59.1001 184.8 59.0332 184.6 58.8999C184.467 58.7666 184.367 58.5665 184.3 58.2998C184.167 57.0331 183.967 55.6 183.7 54C183.5 52.4 183.233 50.7668 182.9 49.1001C182.633 47.3668 182.333 45.7001 182 44.1001C181.267 45.5668 180.533 47.1331 179.8 48.7998C179 50.3998 178.267 51.9667 177.6 53.5C176.933 55.0333 176.3 56.4999 175.7 57.8999C175.567 58.2332 175.333 58.3999 175 58.3999C174.6 58.3999 174.333 58.2667 174.2 58C173.533 56.6 172.833 55.1 172.1 53.5C171.3 51.9 170.5 50.2668 169.7 48.6001C168.967 47.0001 168.267 45.5001 167.6 44.1001C167.4 45.3001 167.2 46.5666 167 47.8999C166.867 49.1666 166.7 50.4665 166.5 51.7998C166.367 53.0665 166.2 54.2666 166 55.3999C165.867 56.5332 165.767 57.4998 165.7 58.2998C165.7 58.4998 165.6 58.6999 165.4 58.8999C165.267 59.0332 165.067 59.1001 164.8 59.1001C164.6 59.1001 164.433 58.9998 164.3 58.7998C164.1 58.6665 164 58.4669 164 58.2002C164 58.1335 164.033 57.8002 164.1 57.2002C164.233 56.4669 164.367 55.4669 164.5 54.2002C164.633 52.9335 164.8 51.5668 165 50.1001C165.2 48.5668 165.433 47.0668 165.7 45.6001C165.9 44.1334 166.1 42.8001 166.3 41.6001C166.367 41.4001 166.467 41.2334 166.6 41.1001C166.8 40.9668 167 40.8999 167.2 40.8999C167.467 40.8999 167.667 40.9668 167.8 41.1001C168 41.3668 168.167 41.6332 168.3 41.8999C168.9 43.1666 169.567 44.5668 170.3 46.1001C171.1 47.6334 171.9 49.2332 172.7 50.8999C173.5 52.4999 174.233 54.0333 174.9 55.5C175.567 54.0333 176.267 52.4999 177 50.8999C177.733 49.2332 178.5 47.5666 179.3 45.8999C180.1 44.2332 180.867 42.6998 181.6 41.2998C181.8 40.9665 182.067 40.7998 182.4 40.7998C182.6 40.7998 182.8 40.8667 183 41C183.133 41.1333 183.233 41.3 183.3 41.5C183.567 42.8333 183.8 44.2335 184 45.7002C184.267 47.1669 184.533 48.5666 184.8 49.8999C185 51.2999 185.167 52.5 185.3 53.5C185.433 54.5 185.533 55.2001 185.6 55.6001C185.8 56.6668 185.9 57.3669 185.9 57.7002C185.967 57.9669 186 58.1335 186 58.2002C186 58.4669 185.933 58.6665 185.8 58.7998C185.6 58.9998 185.4 59.1001 185.2 59.1001ZM200.8 58.7002C200.333 58.1669 199.967 57.5331 199.7 56.7998C198.9 57.4665 198.067 57.9999 197.2 58.3999C196.267 58.7999 195.3 59 194.3 59C193.233 59 192.4 58.7999 191.8 58.3999C191.2 58.0666 190.8 57.6 190.6 57C190.333 56.4667 190.2 55.9667 190.2 55.5C190.2 54.9667 190.3 54.4332 190.5 53.8999C190.7 53.4332 191 53.0001 191.4 52.6001C191.933 52.0668 192.667 51.6331 193.6 51.2998C194.533 50.9665 195.667 50.7998 197 50.7998C197.733 50.7998 198.5 50.8332 199.3 50.8999C199.233 49.8999 198.9 49.1 198.3 48.5C197.7 47.9 196.833 47.6001 195.7 47.6001C195.233 47.6001 194.767 47.6335 194.3 47.7002C193.833 47.7669 193.5 47.8667 193.3 48C192.967 48.0667 192.733 48.1001 192.6 48.1001C192.4 48.1001 192.2 48.0332 192 47.8999C191.867 47.6999 191.8 47.4998 191.8 47.2998C191.8 46.8998 191.967 46.6333 192.3 46.5C192.7 46.3667 193.2 46.2334 193.8 46.1001C194.467 45.9668 195.1 45.8999 195.7 45.8999C197.5 45.8999 198.833 46.3999 199.7 47.3999C200.567 48.3999 201 49.6998 201 51.2998V54.3999C201 55.1332 201.067 55.7665 201.2 56.2998C201.4 56.7665 201.667 57.2001 202 57.6001C202.133 57.7334 202.2 57.9001 202.2 58.1001C202.2 58.3668 202.133 58.5669 202 58.7002C201.8 58.9002 201.6 59 201.4 59C201.2 59 201 58.9002 200.8 58.7002ZM194.3 57.2998C195.233 57.2998 196.133 57.1002 197 56.7002C197.867 56.2335 198.633 55.5669 199.3 54.7002V52.5C198.5 52.4333 197.733 52.3999 197 52.3999C194.933 52.3999 193.467 52.8335 192.6 53.7002C192.333 53.9669 192.133 54.2668 192 54.6001C191.933 54.8668 191.9 55.1667 191.9 55.5C191.9 55.9 192.067 56.3002 192.4 56.7002C192.8 57.1002 193.433 57.2998 194.3 57.2998ZM216.8 59C216.533 59 216.333 58.9331 216.2 58.7998C216 58.5998 215.9 58.4002 215.9 58.2002V51.5C215.9 50.1 215.633 49.1 215.1 48.5C214.633 47.9 213.933 47.6001 213 47.6001C212.067 47.6001 211.2 47.8666 210.4 48.3999C209.533 48.8666 208.733 49.4669 208 50.2002V58.2002C208 58.4002 207.933 58.5998 207.8 58.7998C207.667 58.9331 207.467 59 207.2 59C207 59 206.8 58.9331 206.6 58.7998C206.467 58.5998 206.4 58.4002 206.4 58.2002V46.7998C206.4 46.5331 206.467 46.3335 206.6 46.2002C206.8 46.0002 207 45.8999 207.2 45.8999C207.467 45.8999 207.667 46.0002 207.8 46.2002C207.933 46.3335 208 46.5331 208 46.7998V48C208.8 47.4 209.6 46.9 210.4 46.5C211.2 46.1 212.067 45.8999 213 45.8999C213.867 45.8999 214.633 46.0666 215.3 46.3999C216.033 46.7332 216.6 47.3335 217 48.2002C217.4 49.0002 217.6 50.1 217.6 51.5V58.2002C217.6 58.4002 217.533 58.5998 217.4 58.7998C217.2 58.9331 217 59 216.8 59ZM232.4 58.7002C231.867 58.1669 231.467 57.5331 231.2 56.7998C230.467 57.4665 229.633 57.9999 228.7 58.3999C227.833 58.7999 226.867 59 225.8 59C224.8 59 224 58.7999 223.4 58.3999C222.8 58.0666 222.367 57.6 222.1 57C221.9 56.4667 221.8 55.9667 221.8 55.5C221.8 54.9667 221.867 54.4332 222 53.8999C222.2 53.4332 222.5 53.0001 222.9 52.6001C223.5 52.0668 224.267 51.6331 225.2 51.2998C226.133 50.9665 227.267 50.7998 228.6 50.7998C229.333 50.7998 230.1 50.8332 230.9 50.8999C230.767 49.8999 230.433 49.1 229.9 48.5C229.3 47.9 228.433 47.6001 227.3 47.6001C226.833 47.6001 226.367 47.6335 225.9 47.7002C225.433 47.7669 225.067 47.8667 224.8 48C224.533 48.0667 224.333 48.1001 224.2 48.1001C224 48.1001 223.8 48.0332 223.6 47.8999C223.4 47.6999 223.3 47.4998 223.3 47.2998C223.3 46.8998 223.5 46.6333 223.9 46.5C224.3 46.3667 224.8 46.2334 225.4 46.1001C226.067 45.9668 226.7 45.8999 227.3 45.8999C229.1 45.8999 230.433 46.3999 231.3 47.3999C232.167 48.3999 232.6 49.6998 232.6 51.2998V54.3999C232.6 55.1332 232.667 55.7665 232.8 56.2998C233 56.7665 233.267 57.2001 233.6 57.6001C233.733 57.7334 233.8 57.9001 233.8 58.1001C233.8 58.3668 233.7 58.5669 233.5 58.7002C233.367 58.9002 233.2 59 233 59C232.733 59 232.533 58.9002 232.4 58.7002ZM225.8 57.2998C226.8 57.2998 227.733 57.1002 228.6 56.7002C229.467 56.2335 230.233 55.5669 230.9 54.7002V52.5C230.1 52.4333 229.333 52.3999 228.6 52.3999C226.467 52.3999 224.967 52.8335 224.1 53.7002C223.833 53.9669 223.667 54.2668 223.6 54.6001C223.467 54.8668 223.4 55.1667 223.4 55.5C223.4 55.9 223.6 56.3002 224 56.7002C224.4 57.1002 225 57.2998 225.8 57.2998ZM240.5 65C240.3 65 240.1 64.9331 239.9 64.7998C239.767 64.5998 239.7 64.4002 239.7 64.2002C239.7 64.0002 239.767 63.8001 239.9 63.6001C240.1 63.4668 240.3 63.3999 240.5 63.3999C242.9 63.3999 244.633 62.7667 245.7 61.5C246.833 60.3 247.4 58.6668 247.4 56.6001V56.5C246.667 57.1667 245.867 57.7001 245 58.1001C244.133 58.4334 243.233 58.6001 242.3 58.6001C241.367 58.6001 240.467 58.4 239.6 58C238.8 57.6 238.1 56.9668 237.5 56.1001C236.967 55.2334 236.7 54.1331 236.7 52.7998C236.7 51.3998 237.033 50.1668 237.7 49.1001C238.367 48.1001 239.2 47.3331 240.2 46.7998C241.267 46.1998 242.333 45.8999 243.4 45.8999C244.2 45.8999 244.9 45.9668 245.5 46.1001C246.1 46.2334 246.733 46.4335 247.4 46.7002C247.4 46.4335 247.5 46.2334 247.7 46.1001C247.833 45.9668 248 45.8999 248.2 45.8999C248.467 45.8999 248.667 46.0002 248.8 46.2002C248.933 46.3335 249 46.5331 249 46.7998V56.6001C249 59.1334 248.333 61.1669 247 62.7002C245.667 64.2335 243.5 65 240.5 65ZM242.3 56.8999C243.233 56.8999 244.167 56.6669 245.1 56.2002C245.967 55.6669 246.733 54.9333 247.4 54V48.5C246.667 48.2333 246.033 47.9998 245.5 47.7998C244.9 47.6665 244.2 47.6001 243.4 47.6001C242.6 47.6001 241.8 47.8002 241 48.2002C240.2 48.6669 239.567 49.2667 239.1 50C238.633 50.8 238.4 51.7331 238.4 52.7998C238.4 53.7331 238.6 54.5001 239 55.1001C239.333 55.7668 239.8 56.2333 240.4 56.5C241 56.7667 241.633 56.8999 242.3 56.8999ZM260.6 59C258.467 59 256.733 58.4331 255.4 57.2998C254.133 56.2331 253.5 54.6668 253.5 52.6001C253.5 51.2668 253.8 50.1001 254.4 49.1001C254.933 48.1001 255.7 47.3331 256.7 46.7998C257.633 46.1998 258.7 45.8999 259.9 45.8999C261.1 45.8999 262.1 46.1334 262.9 46.6001C263.7 47.0668 264.3 47.6666 264.7 48.3999C265.1 49.0666 265.3 49.7332 265.3 50.3999C265.3 51.1999 265.033 51.9 264.5 52.5C264.033 53.0333 263.1 53.2998 261.7 53.2998H255.2C255.4 54.6331 255.967 55.6331 256.9 56.2998C257.9 56.9665 259.133 57.2998 260.6 57.2998C261.133 57.2998 261.633 57.2669 262.1 57.2002C262.567 57.1335 262.933 57.0332 263.2 56.8999C263.4 56.8332 263.533 56.7998 263.6 56.7998C263.733 56.7331 263.8 56.7002 263.8 56.7002C264.067 56.7002 264.267 56.8 264.4 57C264.6 57.1333 264.7 57.3334 264.7 57.6001C264.7 57.9334 264.5 58.1665 264.1 58.2998C263.633 58.4998 263.1 58.6665 262.5 58.7998C261.9 58.9331 261.267 59 260.6 59ZM259.9 47.6001C258.7 47.6001 257.667 47.9669 256.8 48.7002C255.933 49.4335 255.4 50.4335 255.2 51.7002H261.8C263.067 51.7002 263.7 51.2666 263.7 50.3999C263.7 49.7332 263.333 49.1 262.6 48.5C261.933 47.9 261.033 47.6001 259.9 47.6001ZM270.9 59C270.633 59 270.433 58.9331 270.3 58.7998C270.1 58.5998 270 58.4002 270 58.2002V46.7998C270 46.5331 270.1 46.3335 270.3 46.2002C270.433 46.0002 270.633 45.8999 270.9 45.8999C271.1 45.8999 271.3 46.0002 271.5 46.2002C271.633 46.3335 271.7 46.5331 271.7 46.7998V48.7002C272.567 47.8335 273.5 47.1669 274.5 46.7002C275.433 46.2335 276.367 46 277.3 46C277.567 46 277.767 46.0669 277.9 46.2002C278.033 46.3335 278.1 46.5002 278.1 46.7002C278.1 47.2335 277.867 47.5334 277.4 47.6001C276.067 47.7334 274.967 48.1331 274.1 48.7998C273.233 49.4665 272.433 50.3332 271.7 51.3999V58.2002C271.7 58.4002 271.633 58.5998 271.5 58.7998C271.3 58.9331 271.1 59 270.9 59Z" fill="white"/>
</svg>
