<svg width="230" height="22" viewBox="0 0 230 22" fill="none" xmlns="http://www.w3.org/2000/svg">
<path d="M15.6 3.5C14.4 2.83333 12.8334 2.5 10.9 2.5C9.43336 2.5 8.06672 2.86667 6.80005 3.6C5.53338 4.33333 4.49995 5.33333 3.69995 6.6C2.96662 7.86667 2.59998 9.36667 2.59998 11.1C2.59998 12.7 2.93331 14.1333 3.59998 15.4C4.26664 16.6667 5.23333 17.6667 6.5 18.4C7.83333 19.1333 9.39995 19.5 11.2 19.5C12.0666 19.5 12.9 19.4 13.7 19.2C14.5 19 15.2 18.7667 15.8 18.5C15.9334 18.3667 16.0666 18.3 16.2 18.3C16.4666 18.3 16.7 18.4 16.9 18.6C17.1 18.8 17.2 19.0333 17.2 19.3C17.2 19.7 17 19.9667 16.6 20.1C15.8666 20.5 15.0333 20.8 14.1 21C13.1666 21.2 12.2 21.3 11.2 21.3C8.99995 21.3 7.1 20.8667 5.5 20C3.96667 19.0667 2.76669 17.8333 1.90002 16.3C1.10002 14.7667 0.699951 13.0333 0.699951 11.1C0.699951 9.03333 1.16664 7.2 2.09998 5.6C3.09998 4 4.36669 2.76667 5.90002 1.9C7.43336 1.03333 9.10002 0.599998 10.9 0.599998C13.1667 0.599998 15.0333 0.999999 16.5 1.8C16.8333 2 17 2.26667 17 2.6C17 2.86667 16.9 3.1 16.7 3.3C16.5666 3.5 16.3333 3.6 16 3.6C15.8667 3.6 15.7333 3.56667 15.6 3.5ZM28.9 6.2C30.4334 6.2 31.7334 6.53333 32.8 7.2C33.9334 7.86667 34.8 8.8 35.4 10C36.0667 11.1333 36.4 12.4 36.4 13.8C36.4 15.2 36.0667 16.4667 35.4 17.6C34.8 18.6667 33.9334 19.5333 32.8 20.2C31.7334 20.8 30.4334 21.1 28.9 21.1C27.4334 21.1 26.1333 20.8 25 20.2C23.8667 19.5333 22.9667 18.6333 22.3 17.5C21.7 16.3667 21.4 15.1333 21.4 13.8C21.4 12.4 21.7 11.1 22.3 9.9C22.9 8.76667 23.7667 7.86667 24.9 7.2C26.0334 6.53333 27.3667 6.2 28.9 6.2ZM28.9 8C27.7667 8 26.7667 8.26667 25.9 8.8C25.1 9.33333 24.4667 10.0333 24 10.9C23.5333 11.7667 23.3 12.7333 23.3 13.8C23.3 15.3333 23.8 16.6333 24.8 17.7C25.8667 18.7667 27.2334 19.3 28.9 19.3C30.6334 19.3 32 18.7667 33 17.7C34 16.6333 34.5 15.3333 34.5 13.8C34.5 12.7333 34.2667 11.7667 33.8 10.9C33.3334 10.0333 32.7 9.33333 31.9 8.8C31.0334 8.26667 30.0334 8 28.9 8ZM53.1 21C52.8333 21 52.6 20.9 52.4 20.7C52.2667 20.5 52.2 20.3 52.2 20.1V12.6C52.2 11 51.9 9.86667 51.3 9.2C50.7 8.53333 49.9 8.2 48.9 8.2C47.8334 8.2 46.8334 8.46667 45.9 9C44.9667 9.6 44.1 10.3 43.3 11.1V20.1C43.3 20.3 43.2 20.5 43 20.7C42.8 20.9 42.5667 21 42.3 21C42.1 21 41.9 20.9 41.7 20.7C41.5 20.5 41.4 20.3 41.4 20.1V7.2C41.4 6.93333 41.5 6.73333 41.7 6.6C41.9 6.4 42.1 6.3 42.3 6.3C42.5667 6.3 42.8 6.4 43 6.6C43.2 6.73333 43.3 6.93333 43.3 7.2V8.6C44.1 7.93333 44.9667 7.36667 45.9 6.9C46.8334 6.5 47.8334 6.3 48.9 6.3C49.8334 6.3 50.7 6.5 51.5 6.9C52.2333 7.23333 52.8334 7.86667 53.3 8.8C53.7667 9.73333 54 11 54 12.6V20.1C54 20.3 53.9334 20.5 53.8 20.7C53.6 20.9 53.3666 21 53.1 21ZM71.7 21C71.5 21 71.3 20.9 71.1 20.7C70.9 20.5 70.8 20.3 70.8 20.1V12.6C70.8 11 70.5 9.86667 69.9 9.2C69.3 8.53333 68.5 8.2 67.5 8.2C66.5 8.2 65.5 8.46667 64.5 9C63.5667 9.6 62.7 10.3 61.9 11.1V20.1C61.9 20.3 61.8 20.5 61.6 20.7C61.4666 20.9 61.2667 21 61 21C60.7333 21 60.5 20.9 60.3 20.7C60.1 20.5 60 20.3 60 20.1V7.2C60 6.93333 60.1 6.73333 60.3 6.6C60.5 6.4 60.7333 6.3 61 6.3C61.2667 6.3 61.4666 6.4 61.6 6.6C61.8 6.73333 61.9 6.93333 61.9 7.2V8.6C62.7667 7.93333 63.6666 7.36667 64.6 6.9C65.5333 6.5 66.5 6.3 67.5 6.3C68.5 6.3 69.3666 6.5 70.1 6.9C70.9 7.23333 71.5333 7.86667 72 8.8C72.4667 9.73333 72.7 11 72.7 12.6V20.1C72.7 20.3 72.6 20.5 72.4 20.7C72.2 20.9 71.9666 21 71.7 21ZM85.3 21C82.9 21 80.9667 20.3667 79.5 19.1C78.0333 17.9 77.3 16.1333 77.3 13.8C77.3 12.3333 77.6334 11.0333 78.3 9.9C78.9667 8.76667 79.8334 7.86667 80.9 7.2C81.9667 6.6 83.1667 6.3 84.5 6.3C85.8333 6.3 86.9667 6.56667 87.9 7.1C88.7667 7.63333 89.4334 8.26667 89.9 9C90.3667 9.8 90.6 10.5667 90.6 11.3C90.6 12.2333 90.3 13.0333 89.7 13.7C89.1666 14.3 88.1333 14.6 86.6 14.6H79.2C79.4 16.1333 80.0666 17.2667 81.2 18C82.3333 18.7333 83.7 19.1 85.3 19.1C85.9 19.1 86.4667 19.0667 87 19C87.5333 18.8667 87.9333 18.7667 88.2 18.7C88.4666 18.5667 88.6333 18.5 88.7 18.5C88.8333 18.5 88.9 18.5 88.9 18.5C89.1667 18.5 89.4 18.6 89.6 18.8C89.8 18.9333 89.9 19.1333 89.9 19.4C89.9 19.8 89.7 20.1 89.3 20.3C88.7667 20.5 88.1334 20.6667 87.4 20.8C86.7334 20.9333 86.0334 21 85.3 21ZM84.5 8.2C83.1667 8.2 82.0333 8.63333 81.1 9.5C80.1 10.3 79.5 11.4 79.3 12.8H86.6C88.0666 12.8 88.8 12.3 88.8 11.3C88.8 10.5667 88.4 9.86667 87.6 9.2C86.8 8.53333 85.7667 8.2 84.5 8.2ZM105.3 8.6C104.367 8.33333 103.5 8.2 102.7 8.2C100.767 8.2 99.2666 8.73333 98.2 9.8C97.1333 10.8667 96.6 12.2667 96.6 14C96.6 15.4667 97.1333 16.7 98.2 17.7C99.2666 18.6333 100.733 19.1 102.6 19.1C103.333 19.1 103.967 19.0667 104.5 19C105.033 18.8667 105.433 18.7333 105.7 18.6C105.967 18.5333 106.133 18.5 106.2 18.5C106.333 18.4333 106.433 18.4 106.5 18.4C106.7 18.4 106.9 18.5 107.1 18.7C107.3 18.9 107.4 19.1333 107.4 19.4C107.4 19.8 107.2 20.0667 106.8 20.2C106.267 20.4667 105.633 20.6667 104.9 20.8C104.233 20.9333 103.467 21 102.6 21C100.933 21 99.5 20.7 98.3 20.1C97.1667 19.4333 96.3 18.5667 95.7 17.5C95.1 16.4333 94.8 15.2667 94.8 14C94.8 12.5333 95.1 11.2333 95.7 10.1C96.3 8.9 97.2 7.96667 98.4 7.3C99.6 6.63333 101.033 6.3 102.7 6.3C103.967 6.3 105.167 6.5 106.3 6.9C106.7 7.03333 106.9 7.33333 106.9 7.8C106.9 8.06667 106.8 8.3 106.6 8.5C106.4 8.63333 106.2 8.7 106 8.7C105.933 8.7 105.7 8.66667 105.3 8.6ZM119.7 21C117.433 21 115.8 20.5333 114.8 19.6C113.867 18.6 113.4 17.3 113.4 15.7V8.2H111C110.733 8.2 110.5 8.1 110.3 7.9C110.167 7.7 110.1 7.46667 110.1 7.2C110.1 6.93333 110.167 6.73333 110.3 6.6C110.5 6.4 110.733 6.3 111 6.3H113.4V2.5C113.4 2.23333 113.467 2 113.6 1.8C113.8 1.66667 114.033 1.6 114.3 1.6C114.567 1.6 114.8 1.66667 115 1.8C115.133 2 115.2 2.23333 115.2 2.5V6.3H120.2C120.467 6.3 120.7 6.4 120.9 6.6C121.1 6.73333 121.2 6.93333 121.2 7.2C121.2 7.46667 121.1 7.7 120.9 7.9C120.7 8.1 120.467 8.2 120.2 8.2H115.2V15.7C115.2 17.9667 116.7 19.1 119.7 19.1C119.967 19.1 120.2 19.2 120.4 19.4C120.6 19.6 120.7 19.8333 120.7 20.1C120.7 20.3 120.6 20.5 120.4 20.7C120.2 20.9 119.967 21 119.7 21ZM157.1 21.4C156.967 21.4 156.8 21.3333 156.6 21.2C156.4 21.0667 156.233 20.8667 156.1 20.6C155.833 20 155.433 19.1 154.9 17.9C154.433 16.7 153.9 15.3667 153.3 13.9C152.767 12.3667 152.2 10.8333 151.6 9.3C151.067 7.76667 150.6 6.36667 150.2 5.1C149.733 6.43333 149.2 7.9 148.6 9.5C148 10.9667 147.433 12.4667 146.9 14C146.3 15.4667 145.767 16.8 145.3 18C144.833 19.2 144.433 20.1333 144.1 20.8C143.9 21.1333 143.6 21.3 143.2 21.3C142.933 21.3 142.733 21.2333 142.6 21.1C142.4 20.9667 142.267 20.8 142.2 20.6C142 20.0667 141.667 19.2333 141.2 18.1C140.8 16.9667 140.333 15.7333 139.8 14.4C139.333 13 138.867 11.6 138.4 10.2C137.933 8.73333 137.5 7.43333 137.1 6.3C136.7 5.1 136.4 4.13333 136.2 3.4C136.067 2.86667 135.967 2.5 135.9 2.3C135.833 2.1 135.8 1.96667 135.8 1.9C135.8 1.63333 135.9 1.43333 136.1 1.3C136.3 1.1 136.533 1 136.8 1C137.267 1 137.567 1.23333 137.7 1.7C137.967 2.63333 138.3 3.83333 138.7 5.3C139.167 6.7 139.667 8.2 140.2 9.8C140.733 11.4 141.267 12.9 141.8 14.3C142.333 15.7667 142.8 17 143.2 18C143.667 17 144.167 15.8 144.7 14.4C145.233 13 145.8 11.5333 146.4 10C147 8.46667 147.533 7 148 5.6C148.533 4.13333 148.967 2.86667 149.3 1.8C149.433 1.33333 149.733 1.1 150.2 1.1C150.667 1.1 151 1.46667 151.2 2.2C151.533 3.2 151.933 4.4 152.4 5.8C152.933 7.2 153.467 8.66667 154 10.2C154.533 11.7333 155.067 13.2 155.6 14.6C156.133 15.9333 156.6 17.1 157 18.1C157.467 17.0333 157.933 15.8 158.4 14.4C158.933 13 159.467 11.5333 160 10C160.533 8.46667 161.033 6.96667 161.5 5.5C161.967 4.03333 162.367 2.76667 162.7 1.7C162.833 1.23333 163.133 1 163.6 1C163.8 1 164 1.1 164.2 1.3C164.4 1.43333 164.5 1.63333 164.5 1.9C164.5 2.03333 164.467 2.3 164.4 2.7C164.067 3.7 163.7 4.86667 163.3 6.2C162.833 7.46667 162.367 8.83333 161.9 10.3C161.433 11.7 160.933 13.1 160.4 14.5C159.933 15.8333 159.467 17.0667 159 18.2C158.6 19.3333 158.267 20.2 158 20.8C157.8 21.2 157.5 21.4 157.1 21.4ZM179.3 20.7C178.767 20.1 178.333 19.3667 178 18.5C177.133 19.3 176.2 19.9333 175.2 20.4C174.2 20.8 173.1 21 171.9 21C170.767 21 169.867 20.8 169.2 20.4C168.533 19.9333 168.067 19.4 167.8 18.8C167.533 18.2 167.4 17.6 167.4 17C167.4 16.4 167.5 15.8333 167.7 15.3C167.9 14.7 168.233 14.2 168.7 13.8C169.3 13.2 170.133 12.7 171.2 12.3C172.267 11.9 173.533 11.7 175 11.7C175.8 11.7 176.667 11.7667 177.6 11.9C177.467 10.7667 177.1 9.86667 176.5 9.2C175.833 8.53333 174.833 8.2 173.5 8.2C173.033 8.2 172.533 8.23333 172 8.3C171.467 8.36667 171.067 8.46667 170.8 8.6C170.467 8.73333 170.233 8.8 170.1 8.8C169.833 8.8 169.6 8.7 169.4 8.5C169.2 8.3 169.1 8.1 169.1 7.9C169.1 7.43333 169.333 7.1 169.8 6.9C170.2 6.83333 170.733 6.7 171.4 6.5C172.133 6.36667 172.833 6.3 173.5 6.3C175.567 6.3 177.067 6.86667 178 8C179 9.13333 179.5 10.6 179.5 12.4V15.8C179.5 16.6667 179.6 17.3667 179.8 17.9C180 18.5 180.267 19 180.6 19.4C180.8 19.6 180.9 19.8 180.9 20C180.9 20.2667 180.8 20.5 180.6 20.7C180.4 20.9 180.2 21 180 21C179.733 21 179.5 20.9 179.3 20.7ZM171.9 19.1C172.967 19.1 174 18.8667 175 18.4C176 17.9333 176.867 17.2 177.6 16.2V13.7C176.667 13.6333 175.8 13.6 175 13.6C172.667 13.6 171 14.1 170 15.1C169.733 15.3667 169.533 15.6667 169.4 16C169.267 16.3333 169.2 16.6667 169.2 17C169.2 17.5333 169.433 18.0333 169.9 18.5C170.3 18.9 170.967 19.1 171.9 19.1ZM185.8 20.1V0.900002C185.8 0.633335 185.867 0.400001 186 0.200001C186.2 0.0666674 186.433 0 186.7 0C186.967 0 187.2 0.0666674 187.4 0.200001C187.533 0.400001 187.6 0.633335 187.6 0.900002V20.1C187.6 20.3 187.533 20.5 187.4 20.7C187.2 20.9 186.967 21 186.7 21C186.433 21 186.2 20.9 186 20.7C185.867 20.5 185.8 20.3 185.8 20.1ZM194.5 20.1V0.900002C194.5 0.633335 194.567 0.400001 194.7 0.200001C194.9 0.0666674 195.133 0 195.4 0C195.667 0 195.9 0.0666674 196.1 0.200001C196.233 0.400001 196.3 0.633335 196.3 0.900002V20.1C196.3 20.3 196.233 20.5 196.1 20.7C195.9 20.9 195.667 21 195.4 21C195.133 21 194.9 20.9 194.7 20.7C194.567 20.5 194.5 20.3 194.5 20.1ZM209.6 21C207.2 21 205.267 20.3667 203.8 19.1C202.333 17.9 201.6 16.1333 201.6 13.8C201.6 12.3333 201.933 11.0333 202.6 9.9C203.2 8.76667 204.067 7.86667 205.2 7.2C206.267 6.6 207.467 6.3 208.8 6.3C210.133 6.3 211.233 6.56667 212.1 7.1C213.033 7.63333 213.733 8.26667 214.2 9C214.667 9.8 214.9 10.5667 214.9 11.3C214.9 12.2333 214.6 13.0333 214 13.7C213.467 14.3 212.433 14.6 210.9 14.6H203.5C203.7 16.1333 204.367 17.2667 205.5 18C206.567 18.7333 207.933 19.1 209.6 19.1C210.2 19.1 210.767 19.0667 211.3 19C211.833 18.8667 212.233 18.7667 212.5 18.7C212.767 18.5667 212.933 18.5 213 18.5C213.067 18.5 213.133 18.5 213.2 18.5C213.467 18.5 213.7 18.6 213.9 18.8C214.1 18.9333 214.2 19.1333 214.2 19.4C214.2 19.8 214 20.1 213.6 20.3C213.067 20.5 212.433 20.6667 211.7 20.8C211.033 20.9333 210.333 21 209.6 21ZM208.8 8.2C207.467 8.2 206.3 8.63333 205.3 9.5C204.367 10.3 203.767 11.4 203.5 12.8H210.9C212.3 12.8 213 12.3 213 11.3C213 10.5667 212.633 9.86667 211.9 9.2C211.1 8.53333 210.067 8.2 208.8 8.2ZM227.8 21C225.533 21 223.9 20.5333 222.9 19.6C221.967 18.6 221.5 17.3 221.5 15.7V8.2H219.1C218.833 8.2 218.6 8.1 218.4 7.9C218.267 7.7 218.2 7.46667 218.2 7.2C218.2 6.93333 218.267 6.73333 218.4 6.6C218.6 6.4 218.833 6.3 219.1 6.3H221.5V2.5C221.5 2.23333 221.567 2 221.7 1.8C221.9 1.66667 222.133 1.6 222.4 1.6C222.667 1.6 222.9 1.66667 223.1 1.8C223.233 2 223.3 2.23333 223.3 2.5V6.3H228.3C228.567 6.3 228.8 6.4 229 6.6C229.2 6.73333 229.3 6.93333 229.3 7.2C229.3 7.46667 229.2 7.7 229 7.9C228.8 8.1 228.567 8.2 228.3 8.2H223.3V15.7C223.3 17.9667 224.8 19.1 227.8 19.1C228.133 19.1 228.367 19.2 228.5 19.4C228.7 19.6 228.8 19.8333 228.8 20.1C228.8 20.3 228.7 20.5 228.5 20.7C228.3 20.9 228.067 21 227.8 21Z" fill="white"/>
</svg>
