<svg width="265" height="265" viewBox="0 0 265 265" fill="none" xmlns="http://www.w3.org/2000/svg">
<path d="M132.5 1C205.1 1 264 59.9 264 132.5C264 205.1 205.1 264 132.5 264C59.9 264 1 205.1 1 132.5C1 59.9 59.9 1 132.5 1ZM132.5 1C205.1 1 264 59.9 264 132.5C264 205.1 205.1 264 132.5 264C59.9 264 1 205.1 1 132.5C1 59.9 59.9 1 132.5 1Z" fill="black"/>
<path d="M132.5 1C205.1 1 264 59.9 264 132.5C264 205.1 205.1 264 132.5 264C59.9 264 1 205.1 1 132.5C1 59.9 59.9 1 132.5 1Z" stroke="black" stroke-miterlimit="100"/>
</svg>
