<svg width="76" height="59" viewBox="0 0 76 59" fill="none" xmlns="http://www.w3.org/2000/svg">
<path d="M15.7 18H10.5C10.3 18 10.1 17.9334 9.90002 17.8C9.76669 17.6 9.70001 17.4 9.70001 17.2V1C9.70001 0.733333 9.76669 0.533236 9.90002 0.399902C10.1 0.266569 10.3 0.199951 10.5 0.199951H15.1C16.1 0.199951 16.9333 0.333431 17.6 0.600098C18.2666 0.866764 18.8 1.2001 19.2 1.6001C19.6 2.0001 19.9 2.5001 20.1 3.1001C20.3666 3.63343 20.5 4.16662 20.5 4.69995C20.5 5.29995 20.3666 5.86657 20.1 6.3999C19.9 6.93324 19.6 7.40005 19.2 7.80005C19.1333 7.86672 19.0667 7.93333 19 8C18.9333 8.06667 18.8333 8.13328 18.7 8.19995C19.5 8.53328 20.1333 8.93324 20.6 9.3999C21.6 10.3999 22.1 11.5666 22.1 12.8999C22.1 13.4999 21.9667 14.1 21.7 14.7C21.5 15.3 21.1667 15.8334 20.7 16.3C20.2333 16.7667 19.6 17.1667 18.8 17.5C18 17.8333 16.9667 18 15.7 18ZM11.3 7.69995H15.4C16 7.63328 16.5333 7.50005 17 7.30005C17.4667 7.10005 17.8 6.86676 18 6.6001C18.5333 6.13343 18.8 5.49995 18.8 4.69995C18.8 3.96662 18.5333 3.33338 18 2.80005C17.7333 2.53338 17.3667 2.3001 16.9 2.1001C16.4334 1.9001 15.8333 1.80005 15.1 1.80005H11.3V7.69995ZM15.8 9.3999H11.3V16.3999H15.7C16.6333 16.3999 17.4 16.3001 18 16.1001C18.6667 15.8334 19.1667 15.5333 19.5 15.2C20.1 14.6 20.4 13.8667 20.4 13C20.4 12.1333 20.0667 11.3666 19.4 10.7C18.5334 9.83328 17.3333 9.3999 15.8 9.3999ZM36.1 17.8C35.6333 17.2667 35.2667 16.6 35 15.8C34.2 16.5334 33.3667 17.1 32.5 17.5C31.5667 17.9 30.6 18.1001 29.6 18.1001C28.5333 18.1001 27.7 17.9 27.1 17.5C26.5 17.1 26.1 16.6334 25.9 16.1001C25.6334 15.5668 25.5 15.0333 25.5 14.5C25.5 13.9667 25.6 13.4667 25.8 13C26 12.4667 26.3 12.0333 26.7 11.7C27.2333 11.1666 27.9667 10.7332 28.9 10.3999C29.8334 9.9999 30.9667 9.80005 32.3 9.80005C33.0333 9.80005 33.8 9.83324 34.6 9.8999C34.5333 8.8999 34.2 8.13343 33.6 7.6001C33 7.0001 32.1333 6.69995 31 6.69995C30.5333 6.69995 30.0666 6.73338 29.6 6.80005C29.1333 6.86672 28.8 6.93333 28.6 7C28.2666 7.13333 28.0334 7.19995 27.9 7.19995C27.7 7.19995 27.5 7.13333 27.3 7C27.1667 6.8 27.1 6.5999 27.1 6.3999C27.1 5.9999 27.2666 5.73343 27.6 5.6001C28 5.46676 28.5 5.33328 29.1 5.19995C29.7666 5.06662 30.4 5 31 5C32.8 5 34.1333 5.5 35 6.5C35.8667 7.5 36.3 8.7999 36.3 10.3999V13.3999C36.3 14.1999 36.3667 14.8334 36.5 15.3C36.7 15.8334 36.9667 16.2668 37.3 16.6001C37.4333 16.8001 37.5 17 37.5 17.2C37.5 17.4 37.4333 17.6 37.3 17.8C37.1 17.9334 36.9 18 36.7 18C36.5 18 36.3 17.9334 36.1 17.8ZM29.6 16.3999C30.5333 16.3999 31.4333 16.2 32.3 15.8C33.1667 15.3334 33.9333 14.6667 34.6 13.8V11.6001C33.8 11.5334 33.0333 11.5 32.3 11.5C30.2333 11.5 28.7667 11.9334 27.9 12.8C27.6334 13.0667 27.4333 13.3334 27.3 13.6001C27.2333 13.9334 27.2 14.2333 27.2 14.5C27.2 14.9667 27.3667 15.4 27.7 15.8C28.1 16.2 28.7333 16.3999 29.6 16.3999ZM49.3 6.8999C49.1 6.83324 48.7333 6.76662 48.2 6.69995C47.6667 6.63328 47.0667 6.6001 46.4 6.6001C45.3334 6.6001 44.5 6.76676 43.9 7.1001C43.3 7.5001 43 7.96667 43 8.5C43 9.03333 43.2333 9.43328 43.7 9.69995C44.2333 10.0333 45.0667 10.2334 46.2 10.3L47.5 10.5C48.6333 10.5667 49.5333 10.8 50.2 11.2C50.8667 11.6 51.3333 12.1 51.6 12.7C51.8666 13.2333 52 13.7999 52 14.3999C52 14.9999 51.8333 15.6 51.5 16.2C51.1667 16.7333 50.6334 17.2001 49.9 17.6001C49.1 18.0001 48 18.2 46.6 18.2C45.8 18.2 44.9666 18.1333 44.1 18C43.2333 17.8 42.4 17.5333 41.6 17.2C41.2666 17.0666 41.1 16.7999 41.1 16.3999C41.1 16.1999 41.2 16.0332 41.4 15.8999C41.5334 15.6999 41.7333 15.6001 42 15.6001C42 15.6001 42.0667 15.6333 42.2 15.7C42.3333 15.7 42.5333 15.7666 42.8 15.8999C43.2 16.0332 43.7667 16.1667 44.5 16.3C45.1667 16.4334 45.8666 16.5 46.6 16.5C47.8 16.5 48.7 16.2999 49.3 15.8999C49.9667 15.4999 50.3 14.9999 50.3 14.3999C50.3 13.7999 50.0666 13.2999 49.6 12.8999C49.2 12.4999 48.4667 12.2334 47.4 12.1001L46.1 12C44.7666 11.8667 43.7666 11.6334 43.1 11.3C42.3666 10.9 41.9 10.4667 41.7 10C41.4333 9.46667 41.3 8.96667 41.3 8.5C41.3 7.96667 41.4333 7.43324 41.7 6.8999C42.0333 6.2999 42.5667 5.83333 43.3 5.5C44.0333 5.1 45.0667 4.8999 46.4 4.8999C47.1334 4.8999 47.8333 4.96676 48.5 5.1001C49.1667 5.16676 49.7667 5.26657 50.3 5.3999C50.4333 5.46657 50.5667 5.56662 50.7 5.69995C50.8333 5.89995 50.9 6.06662 50.9 6.19995C50.9 6.46662 50.8 6.66672 50.6 6.80005C50.4666 7.00005 50.2667 7.1001 50 7.1001C49.8667 7.1001 49.6333 7.03324 49.3 6.8999ZM62.6 18.1001C60.4666 18.1001 58.7334 17.5332 57.4 16.3999C56.1334 15.2666 55.5 13.7 55.5 11.7C55.5 10.3666 55.7667 9.19995 56.3 8.19995C56.9 7.19995 57.6666 6.40005 58.6 5.80005C59.6 5.26672 60.7 5 61.9 5C63.0334 5 64 5.23328 64.8 5.69995C65.6 6.16662 66.2 6.73324 66.6 7.3999C67.0666 8.13324 67.3 8.83333 67.3 9.5C67.3 10.3 67.0333 10.9667 66.5 11.5C66.0333 12.1 65.1 12.3999 63.7 12.3999H57.2C57.3333 13.7332 57.9 14.7332 58.9 15.3999C59.9 16.0666 61.1333 16.3999 62.6 16.3999C63.1333 16.3999 63.6333 16.3667 64.1 16.3C64.5666 16.1667 64.9 16.0667 65.1 16C65.3666 15.9333 65.5333 15.8667 65.6 15.8C65.6666 15.8 65.7333 15.8 65.8 15.8C66 15.8 66.2 15.9001 66.4 16.1001C66.5334 16.2334 66.6 16.4001 66.6 16.6001C66.6 17.0001 66.4333 17.2666 66.1 17.3999C65.6333 17.5999 65.1 17.7666 64.5 17.8999C63.8333 18.0332 63.2 18.1001 62.6 18.1001ZM61.9 6.69995C60.7 6.69995 59.6667 7.06672 58.8 7.80005C57.9333 8.53338 57.4 9.49995 57.2 10.7H63.7C64.9667 10.7 65.6 10.3 65.6 9.5C65.6 8.76667 65.2666 8.13343 64.6 7.6001C63.9333 7.0001 63.0334 6.69995 61.9 6.69995ZM15.7 58.1001C15.3 58.1001 15.0334 57.9 14.9 57.5C14.7 56.9 14.4333 56.2333 14.1 55.5C13.7666 54.7667 13.4333 54 13.1 53.2H3.70001C3.36668 54 3.06665 54.7667 2.79999 55.5C2.53332 56.2333 2.29998 56.9 2.09998 57.5C2.03331 57.7 1.90001 57.8332 1.70001 57.8999C1.56668 58.0332 1.40001 58.1001 1.20001 58.1001C1.00001 58.1001 0.833346 58 0.700012 57.8C0.500012 57.6667 0.400024 57.4666 0.400024 57.2C0.400024 57.1333 0.433333 57.0332 0.5 56.8999C0.5 56.7666 0.599988 56.5333 0.799988 56.2C1.13332 55.2 1.56664 54.0333 2.09998 52.7C2.63331 51.4333 3.19999 50.1 3.79999 48.7C4.39999 47.3 4.99998 45.9 5.59998 44.5C6.26664 43.0333 6.86669 41.6666 7.40002 40.3999C7.60002 40.0666 7.86668 39.8999 8.20001 39.8999H8.40002C8.80002 39.8999 9.06668 40.0666 9.20001 40.3999C9.80001 41.6666 10.4333 43.0668 11.1 44.6001C11.7666 46.0668 12.4333 47.5333 13.1 49C13.7 50.4667 14.2667 51.8334 14.8 53.1001C15.3333 54.3001 15.7666 55.3333 16.1 56.2C16.3 56.6 16.4 56.8667 16.4 57C16.4667 57.1333 16.5 57.2 16.5 57.2C16.5 57.4666 16.4 57.6667 16.2 57.8C16.0667 58 15.9 58.1001 15.7 58.1001ZM4.40002 51.6001H12.4C11.7334 50.0668 11.0667 48.5333 10.4 47C9.66669 45.4667 8.96665 44.0001 8.29999 42.6001C7.69999 44.0001 7.03332 45.4667 6.29999 47C5.63332 48.5333 5.00002 50.0668 4.40002 51.6001ZM21.8 58.1001C21.6 58.1001 21.4 58 21.2 57.8C21.0667 57.6667 21 57.4666 21 57.2V45.8C21 45.6 21.0667 45.4 21.2 45.2C21.4 45.0666 21.6 45 21.8 45C22.0667 45 22.2667 45.0666 22.4 45.2C22.6 45.4 22.7 45.6 22.7 45.8V47.8C23.5667 46.8667 24.4667 46.1666 25.4 45.7C26.4 45.2333 27.3667 45 28.3 45C28.5 45 28.6667 45.1 28.8 45.3C29 45.4334 29.1 45.6 29.1 45.8C29.1 46.3334 28.8333 46.6333 28.3 46.7C27.0333 46.8333 25.9666 47.2332 25.1 47.8999C24.1666 48.5666 23.3667 49.4333 22.7 50.5V57.2C22.7 57.4666 22.6 57.6667 22.4 57.8C22.2667 58 22.0667 58.1001 21.8 58.1001ZM39.7 58.1001C37.6333 58.1001 36.1667 57.6667 35.3 56.8C34.4333 55.9334 34 54.7667 34 53.3V46.7H31.9C31.7 46.7 31.5 46.5999 31.3 46.3999C31.1667 46.2666 31.1 46.0667 31.1 45.8C31.1 45.6 31.1667 45.4 31.3 45.2C31.5 45.0666 31.7 45 31.9 45H34V41.6001C34 41.4001 34.0667 41.2 34.2 41C34.4 40.8667 34.6 40.8 34.8 40.8C35.0667 40.8 35.2667 40.8667 35.4 41C35.6 41.2 35.7 41.4001 35.7 41.6001V45H40.1C40.3666 45 40.5667 45.0666 40.7 45.2C40.8333 45.4 40.9 45.6 40.9 45.8C40.9 46.0667 40.8333 46.2666 40.7 46.3999C40.5667 46.5999 40.3666 46.7 40.1 46.7H35.7V53.3C35.7 55.3667 37.0333 56.3999 39.7 56.3999C39.9 56.3999 40.1 56.5 40.3 56.7C40.4333 56.8333 40.5 57 40.5 57.2C40.5 57.4666 40.4 57.6667 40.2 57.8C40.0667 58 39.9 58.1001 39.7 58.1001ZM46 38.2C46.4 38.2 46.7333 38.3334 47 38.6001C47.2667 38.9334 47.4 39.3334 47.4 39.8C47.4 40.3334 47.2667 40.7333 47 41C46.7333 41.2667 46.4 41.3999 46 41.3999C45.6 41.3999 45.2667 41.2667 45 41C44.7333 40.7333 44.6 40.3334 44.6 39.8C44.6 39.3334 44.7333 38.9334 45 38.6001C45.2667 38.3334 45.6 38.2 46 38.2ZM45.2 57.2V45.8C45.2 45.6 45.2667 45.4 45.4 45.2C45.6 45.0666 45.8 45 46 45C46.2667 45 46.4666 45.0666 46.6 45.2C46.8 45.4 46.9 45.6 46.9 45.8V57.2C46.9 57.4666 46.8 57.6667 46.6 57.8C46.4666 58 46.2667 58.1001 46 58.1001C45.8 58.1001 45.6 58 45.4 57.8C45.2667 57.6667 45.2 57.4666 45.2 57.2ZM60.4 46.8999C60.2 46.8332 59.8 46.7666 59.2 46.7C58.6667 46.6333 58.1 46.6001 57.5 46.6001C56.3667 46.6001 55.5 46.7668 54.9 47.1001C54.3 47.5001 54 47.9667 54 48.5C54 49.0333 54.2667 49.4333 54.8 49.7C55.2667 50.0333 56.1 50.2334 57.3 50.3L58.6 50.5C59.7333 50.5667 60.6333 50.8 61.3 51.2C61.9 51.6 62.3333 52.1 62.6 52.7C62.8666 53.2333 63 53.7999 63 54.3999C63 54.9999 62.8666 55.6 62.6 56.2C62.2666 56.7333 61.7 57.2001 60.9 57.6001C60.1667 58.0001 59.1 58.2 57.7 58.2C56.8333 58.2 55.9666 58.1333 55.1 58C54.2333 57.8 53.4333 57.5333 52.7 57.2C52.3667 57.0666 52.2 56.7999 52.2 56.3999C52.2 56.1999 52.2667 56.0332 52.4 55.8999C52.6 55.6999 52.8 55.6001 53 55.6001C53.0667 55.6001 53.1667 55.6333 53.3 55.7C53.3667 55.7 53.5667 55.7666 53.9 55.8999C54.3 56.0332 54.8333 56.1667 55.5 56.3C56.2333 56.4334 56.9667 56.5 57.7 56.5C58.9 56.5 59.8 56.2999 60.4 55.8999C61.0667 55.4999 61.4 54.9999 61.4 54.3999C61.4 53.7999 61.1667 53.2999 60.7 52.8999C60.2333 52.4999 59.5 52.2334 58.5 52.1001L57.1 52C55.8333 51.8667 54.8333 51.6334 54.1 51.3C53.4333 50.9 52.9667 50.4667 52.7 50C52.5 49.4667 52.4 48.9667 52.4 48.5C52.4 47.9667 52.5333 47.4332 52.8 46.8999C53.1333 46.2999 53.6667 45.8333 54.4 45.5C55.1334 45.1 56.1667 44.8999 57.5 44.8999C58.2333 44.8999 58.9333 44.9668 59.6 45.1001C60.2666 45.1668 60.8333 45.2666 61.3 45.3999C61.5 45.4666 61.6667 45.5666 61.8 45.7C61.8667 45.9 61.9 46.0666 61.9 46.2C61.9 46.4666 61.8333 46.6667 61.7 46.8C61.5 47 61.3 47.1001 61.1 47.1001C60.9666 47.1001 60.7334 47.0332 60.4 46.8999ZM74.2 58.1001C72.1333 58.1001 70.6667 57.6667 69.8 56.8C68.9333 55.9334 68.5 54.7667 68.5 53.3V46.7H66.4C66.2 46.7 66 46.5999 65.8 46.3999C65.6667 46.2666 65.6 46.0667 65.6 45.8C65.6 45.6 65.6667 45.4 65.8 45.2C66 45.0666 66.2 45 66.4 45H68.5V41.6001C68.5 41.4001 68.6 41.2 68.8 41C68.9333 40.8667 69.1334 40.8 69.4 40.8C69.6 40.8 69.8 40.8667 70 41C70.1333 41.2 70.2 41.4001 70.2 41.6001V45H74.6C74.8666 45 75.0667 45.0666 75.2 45.2C75.4 45.4 75.5 45.6 75.5 45.8C75.5 46.0667 75.4 46.2666 75.2 46.3999C75.0667 46.5999 74.8666 46.7 74.6 46.7H70.2V53.3C70.2 55.3667 71.5333 56.3999 74.2 56.3999C74.4667 56.3999 74.6667 56.5 74.8 56.7C74.9333 56.8333 75 57 75 57.2C75 57.4666 74.9333 57.6667 74.8 57.8C74.6 58 74.4 58.1001 74.2 58.1001Z" fill="white"/>
</svg>
