<svg width="90" height="31" viewBox="0 0 90 31" fill="none" xmlns="http://www.w3.org/2000/svg">
<path d="M32.2 30.1C31.8667 30.1 31.6 30 31.4 29.8C31.1333 29.6 30.9667 29.3333 30.9 29C30.7 27.1333 30.4 25 30 22.6C29.6667 20.2 29.2667 17.7 28.8 15.1C28.4 12.5666 27.9667 10.1 27.5 7.69995C26.3667 9.89995 25.2333 12.2333 24.1 14.7C22.9667 17.1 21.8667 19.4666 20.8 21.8C19.8 24.1333 18.8667 26.3 18 28.3C17.8 28.9 17.4333 29.2 16.9 29.2C16.3 29.2 15.9 28.9666 15.7 28.5C14.7667 26.4333 13.7 24.2 12.5 21.8C11.3667 19.3333 10.2 16.9 9 14.5C7.86667 12.0333 6.8 9.76662 5.8 7.69995C5.53334 9.49995 5.26667 11.3666 5 13.3C4.73333 15.3 4.46666 17.2666 4.2 19.2C3.93333 21.1333 3.7 22.9333 3.5 24.6C3.3 26.3333 3.13333 27.8 3 29C2.93333 29.3333 2.76667 29.6 2.5 29.8C2.3 30 2.03333 30.1 1.7 30.1C1.36666 30.1 1.06667 30 0.800003 29.8C0.600003 29.5333 0.5 29.2 0.5 28.8C0.5 28.7333 0.533339 28.2666 0.600006 27.4C0.733339 26.2666 0.93333 24.7666 1.2 22.9C1.4 20.9666 1.66667 18.9 2 16.7C2.26667 14.4333 2.56666 12.1666 2.89999 9.89996C3.23333 7.69996 3.56666 5.69996 3.89999 3.89996C3.96666 3.56662 4.1 3.29995 4.3 3.09995C4.56667 2.89995 4.86666 2.79996 5.2 2.79996C5.6 2.79996 5.90001 2.93328 6.10001 3.19995C6.43334 3.53328 6.69999 3.93329 6.89999 4.39996C7.83333 6.26662 8.83333 8.36662 9.89999 10.7C11.0333 13.0333 12.2 15.4 13.4 17.8C14.6 20.2666 15.7333 22.6 16.8 24.8C17.8 22.6 18.8333 20.2666 19.9 17.8C21.0333 15.3333 22.2 12.8666 23.4 10.4C24.6 7.86662 25.7667 5.53329 26.9 3.39996C27.1667 2.99996 27.5333 2.79996 28 2.79996C28.3333 2.79996 28.6333 2.89995 28.9 3.09995C29.1667 3.23329 29.3 3.46662 29.3 3.79996C29.7 5.73329 30.1 7.83329 30.5 10.1C30.9 12.3 31.2667 14.4 31.6 16.4C31.9333 18.4666 32.2 20.2666 32.4 21.8C32.6 23.2666 32.7667 24.3 32.9 24.9C33.1667 26.5 33.3 27.5333 33.3 28C33.3667 28.4666 33.4 28.7666 33.4 28.9C33.4 29.2333 33.3 29.5333 33.1 29.8C32.8333 30 32.5333 30.1 32.2 30.1ZM43.2 0.199951C43.8 0.199951 44.3 0.433289 44.7 0.899956C45.1 1.29996 45.3 1.89995 45.3 2.69995C45.3 3.43328 45.1 3.99996 44.7 4.39996C44.3 4.79996 43.8333 4.99995 43.3 4.99995C42.7 4.99995 42.1667 4.79996 41.7 4.39996C41.3 3.99996 41.1 3.43328 41.1 2.69995C41.1 1.89995 41.3 1.29996 41.7 0.899956C42.1 0.433289 42.6 0.199951 43.2 0.199951ZM42 28.8V11.7C42 11.3 42.1333 11 42.4 10.8C42.6667 10.5333 42.9667 10.4 43.3 10.4C43.6333 10.4 43.9333 10.5333 44.2 10.8C44.4 11 44.5 11.3 44.5 11.7V28.8C44.5 29.1333 44.4 29.4333 44.2 29.7C43.9333 29.9 43.6333 30 43.3 30C42.9667 30 42.6667 29.9 42.4 29.7C42.1333 29.4333 42 29.1333 42 28.8ZM68.9 30C68.5667 30 68.2667 29.9 68 29.7C67.8 29.4333 67.7 29.1333 67.7 28.8V18.8C67.7 16.7333 67.3 15.2333 66.5 14.3C65.7 13.3666 64.6333 12.9 63.3 12.9C61.9 12.9 60.5667 13.3 59.3 14.1C58.0333 14.8333 56.8667 15.7333 55.8 16.8V28.8C55.8 29.1333 55.7 29.4333 55.5 29.7C55.2333 29.9 54.9333 30 54.6 30C54.2667 30 53.9667 29.9 53.7 29.7C53.4333 29.4333 53.3 29.1333 53.3 28.8V11.7C53.3 11.3 53.4333 11 53.7 10.8C53.9667 10.5333 54.2667 10.4 54.6 10.4C54.9333 10.4 55.2333 10.5333 55.5 10.8C55.7 11 55.8 11.3 55.8 11.7V13.5C56.9333 12.5666 58.1333 11.8333 59.4 11.3C60.6 10.7 61.9 10.4 63.3 10.4C64.5667 10.4 65.7333 10.6666 66.8 11.2C67.8 11.6666 68.6 12.5333 69.2 13.8C69.8667 15 70.2 16.6666 70.2 18.8V28.8C70.2 29.1333 70.0667 29.4333 69.8 29.7C69.6 29.9 69.3 30 68.9 30ZM87.9 30C84.8333 30 82.6333 29.3666 81.3 28.1C80.0333 26.8333 79.4 25.1 79.4 22.9V12.9H76.2C75.8667 12.9 75.5667 12.8 75.3 12.6C75.1 12.3333 75 12.0333 75 11.7C75 11.3 75.1 11 75.3 10.8C75.5667 10.5333 75.8667 10.4 76.2 10.4H79.4V5.39996C79.4 4.99996 79.5 4.69995 79.7 4.49995C79.9667 4.23329 80.2667 4.09995 80.6 4.09995C81 4.09995 81.3 4.23329 81.5 4.49995C81.7667 4.69995 81.9 4.99996 81.9 5.39996V10.4H88.5C88.9 10.4 89.2 10.5333 89.4 10.8C89.6667 11 89.8 11.3 89.8 11.7C89.8 12.0333 89.6667 12.3333 89.4 12.6C89.2 12.8 88.9 12.9 88.5 12.9H81.9V22.9C81.9 25.9666 83.9 27.5 87.9 27.5C88.2333 27.5 88.5333 27.6333 88.8 27.9C89 28.1666 89.1 28.4666 89.1 28.8C89.1 29.1333 88.9667 29.4333 88.7 29.7C88.5 29.9 88.2333 30 87.9 30Z" fill="white"/>
</svg>
